<svg id="Layer_1" data-name="Layer 1" xmlns="http://www.w3.org/2000/svg" xmlns:xlink="http://www.w3.org/1999/xlink" viewBox="0 0 1440 772.29">
  <defs>
    <style>
      .cls-1 {
        fill: #08009f;
      }
    </style>
  </defs>
  <title>P3</title>
  <image width="1920" height="939" transform="translate(0 68.04) scale(0.75)" xlink:href="../../../Downloads/P3p.png"/>
  <g>
    <path class="cls-1" d="M580,426.12l6.43-1.82a4.94,4.94,0,0,0,1.76,2.88,5.18,5.18,0,0,0,3.38,1.1q5.91,0,5.9-6.09v-1.11c-1.18,1.8-3.31,2.69-6.38,2.69a10.49,10.49,0,0,1-7.92-3.31,11.55,11.55,0,0,1-3.17-8.3,11.77,11.77,0,0,1,3.15-8.24,10.32,10.32,0,0,1,7.94-3.43,9.11,9.11,0,0,1,4.32.91,5.43,5.43,0,0,1,2.3,2.07v-2.55h7V421.8a13.36,13.36,0,0,1-3.21,9.2q-3.23,3.62-9.55,3.62a12.85,12.85,0,0,1-8.14-2.52A9.25,9.25,0,0,1,580,426.12ZM588.72,416a5,5,0,0,0,3.69,1.44,4.94,4.94,0,0,0,3.68-1.44,5.25,5.25,0,0,0,1.41-3.84,5.1,5.1,0,0,0-1.49-3.82,4.92,4.92,0,0,0-3.6-1.46,5,5,0,0,0-3.62,1.46,5.08,5.08,0,0,0-1.51,3.82A5.19,5.19,0,0,0,588.72,416Z" transform="translate(-258.93 -389.36)"/>
    <path class="cls-1" d="M611.42,396.65a4.29,4.29,0,0,1,0-6,4.07,4.07,0,0,1,3-1.24,4.21,4.21,0,0,1,3.05,1.24,4.24,4.24,0,0,1,0,6,4.22,4.22,0,0,1-3.05,1.25A4.08,4.08,0,0,1,611.42,396.65Zm6.67,28.13H610.8V400.92h7.29Z" transform="translate(-258.93 -389.36)"/>
    <path class="cls-1" d="M633.21,394v7h4.66v6.39h-4.66v8.93q0,2.49,2.64,2.49a8.68,8.68,0,0,0,1.92-.24v6.05a8.61,8.61,0,0,1-3.79.67,8.06,8.06,0,0,1-5.83-2.06,7.48,7.48,0,0,1-2.14-5.62V407.31h-4.22v-6.39H623a3.44,3.44,0,0,0,2.76-1.08,4.14,4.14,0,0,0,.94-2.8V394Z" transform="translate(-258.93 -389.36)"/>
    <path class="cls-1" d="M648.57,410.76v14h-7.29V390h7.29v12.43a8.24,8.24,0,0,1,6.1-2.16c3,0,5.22.89,6.74,2.66a10.16,10.16,0,0,1,2.28,6.84v15H656.4V411.05a4.38,4.38,0,0,0-1-3,3.64,3.64,0,0,0-2.9-1.13,3.74,3.74,0,0,0-2.76,1.08A4.12,4.12,0,0,0,648.57,410.76Z" transform="translate(-258.93 -389.36)"/>
    <path class="cls-1" d="M685.2,424.78a11.47,11.47,0,0,1-.2-2.4,5.29,5.29,0,0,1-2.64,2.18,9.5,9.5,0,0,1-3.74.75,8.53,8.53,0,0,1-6.65-2.67,9.51,9.51,0,0,1-2.42-6.64V400.92h7.29v13.54a4.41,4.41,0,0,0,1,3,3.56,3.56,0,0,0,2.85,1.15,3.85,3.85,0,0,0,2.91-1.13,4.09,4.09,0,0,0,1.08-2.95V400.92H692v19.59a34.59,34.59,0,0,0,.24,4.27Z" transform="translate(-258.93 -389.36)"/>
    <path class="cls-1" d="M705.45,424.78H698.4V390h7.15v13.15a6.09,6.09,0,0,1,2.69-2,10.48,10.48,0,0,1,4.22-.81,10.14,10.14,0,0,1,8.09,3.48,13.21,13.21,0,0,1,3,8.95,12.93,12.93,0,0,1-3.19,9,10.56,10.56,0,0,1-8.19,3.53,9.07,9.07,0,0,1-4.08-.89,6.24,6.24,0,0,1-2.64-2.33Zm10.8-11.95a5.89,5.89,0,0,0-1.53-4.39,5.27,5.27,0,0,0-3.84-1.52,5.34,5.34,0,0,0-3.87,1.52,6.91,6.91,0,0,0,0,8.78,5.25,5.25,0,0,0,3.84,1.56,5.18,5.18,0,0,0,3.81-1.56A5.93,5.93,0,0,0,716.25,412.83Z" transform="translate(-258.93 -389.36)"/>
    <path class="cls-1" d="M728.44,423.75a4.81,4.81,0,0,1-1.44-3.48,4.92,4.92,0,0,1,4.9-4.9,4.81,4.81,0,0,1,3.48,1.44,4.66,4.66,0,0,1,1.46,3.46,4.91,4.91,0,0,1-8.4,3.48Z" transform="translate(-258.93 -389.36)"/>
    <path class="cls-1" d="M753,406.92a5.25,5.25,0,0,0-3.91,1.59,5.94,5.94,0,0,0-1.56,4.37,5.77,5.77,0,0,0,1.61,4.32,5.44,5.44,0,0,0,4,1.58,5,5,0,0,0,3.24-1,5.05,5.05,0,0,0,1.7-2.52l6.43,2a10.87,10.87,0,0,1-3.86,5.85,11.51,11.51,0,0,1-7.51,2.45,12.61,12.61,0,0,1-9.1-3.58,12,12,0,0,1-3.72-9,12.31,12.31,0,0,1,12.58-12.68,11.79,11.79,0,0,1,7.63,2.4,10.79,10.79,0,0,1,3.84,5.91l-6.53,2a5,5,0,0,0-1.63-2.55A4.78,4.78,0,0,0,753,406.92Z" transform="translate(-258.93 -389.36)"/>
    <path class="cls-1" d="M779.66,400.2a12.41,12.41,0,0,1,9.05,3.56,13.2,13.2,0,0,1,0,18.16,13.16,13.16,0,0,1-18.07,0,13.07,13.07,0,0,1,0-18.12A12.4,12.4,0,0,1,779.66,400.2Zm0,18.58a5.23,5.23,0,0,0,3.82-1.54,5.9,5.9,0,0,0,1.56-4.41,5.82,5.82,0,0,0-1.56-4.39,5.5,5.5,0,0,0-7.61,0,5.79,5.79,0,0,0-1.59,4.37,5.87,5.87,0,0,0,1.59,4.39A5.2,5.2,0,0,0,779.66,418.78Z" transform="translate(-258.93 -389.36)"/>
    <path class="cls-1" d="M804.33,424.78H797V400.92h7v2.74a6.21,6.21,0,0,1,2.85-2.5,9.18,9.18,0,0,1,4-1c3.42,0,5.78,1.25,7.06,3.75a8.44,8.44,0,0,1,7.39-3.75,9.1,9.1,0,0,1,6.29,2.28q2.53,2.28,2.54,6.84v15.46h-7.06V411a4.33,4.33,0,0,0-1-2.91,3.51,3.51,0,0,0-2.83-1.13,3.71,3.71,0,0,0-2.93,1.2,4.23,4.23,0,0,0-1.05,2.88v13.78h-7.2V411a4.24,4.24,0,0,0-1-2.91,3.57,3.57,0,0,0-2.85-1.13,3.63,3.63,0,0,0-2.88,1.2,4.26,4.26,0,0,0-1.06,2.93Z" transform="translate(-258.93 -389.36)"/>
    <path class="cls-1" d="M860.83,390.08l-17.28,35.37h-6.48l17.23-35.37Z" transform="translate(-258.93 -389.36)"/>
    <path class="cls-1" d="M857.37,418l6.19-1.1a3.51,3.51,0,0,0,1,2.28,3.67,3.67,0,0,0,2.71.93,3.14,3.14,0,0,0,2.06-.6,1.83,1.83,0,0,0,.72-1.46c0-1-.78-1.62-2.35-2l-2.74-.62a9.62,9.62,0,0,1-5.37-2.71,6.76,6.76,0,0,1-1.73-4.64,7.19,7.19,0,0,1,2.62-5.61,9.51,9.51,0,0,1,6.55-2.31q4.65,0,7,2.24a7.67,7.67,0,0,1,2.57,4.87l-6,1.1a3.32,3.32,0,0,0-1-2.11,3.37,3.37,0,0,0-2.43-.82,3,3,0,0,0-1.82.58,1.78,1.78,0,0,0-.77,1.49c0,1,.63,1.55,1.87,1.77l3.17.63a9.86,9.86,0,0,1,5.47,2.73,6.77,6.77,0,0,1,1.88,4.76,7.59,7.59,0,0,1-2.5,5.68,9.73,9.73,0,0,1-7,2.38,13.27,13.27,0,0,1-4.68-.77,7.61,7.61,0,0,1-3.12-2,10.19,10.19,0,0,1-1.63-2.42A7.08,7.08,0,0,1,857.37,418Z" transform="translate(-258.93 -389.36)"/>
    <path class="cls-1" d="M889,424.78h-7.29V390H889Z" transform="translate(-258.93 -389.36)"/>
    <path class="cls-1" d="M911,416.19l6.1,1.73a9.92,9.92,0,0,1-3.79,5.44,11.72,11.72,0,0,1-7.2,2.14,12.93,12.93,0,0,1-8.91-21.79,11.5,11.5,0,0,1,8.38-3.51q5.57,0,8.76,3.24t3.19,9a10.55,10.55,0,0,1-.14,2.26H900.81a4.39,4.39,0,0,0,1.68,3.29,5.66,5.66,0,0,0,3.74,1.32Q909.94,419.31,911,416.19ZM901,410h9.56a4.32,4.32,0,0,0-1.28-2.84,4.72,4.72,0,0,0-3.52-1.2,4.54,4.54,0,0,0-3.36,1.25A4.46,4.46,0,0,0,901,410Z" transform="translate(-258.93 -389.36)"/>
    <path class="cls-1" d="M937.87,416.19l6.09,1.73a9.92,9.92,0,0,1-3.79,5.44,11.72,11.72,0,0,1-7.2,2.14,12.92,12.92,0,0,1-8.9-21.79,11.46,11.46,0,0,1,8.37-3.51q5.56,0,8.76,3.24t3.19,9a9.89,9.89,0,0,1-.14,2.26H927.64a4.46,4.46,0,0,0,1.68,3.29,5.69,5.69,0,0,0,3.75,1.32Q936.76,419.31,937.87,416.19ZM927.79,410h9.55a4.35,4.35,0,0,0-1.27-2.84,4.76,4.76,0,0,0-3.53-1.2,4.54,4.54,0,0,0-3.36,1.25A4.4,4.4,0,0,0,927.79,410Z" transform="translate(-258.93 -389.36)"/>
    <path class="cls-1" d="M956.39,433.9H949.1v-33h7v2.45a6.35,6.35,0,0,1,2.72-2.13,9.86,9.86,0,0,1,4.29-.89,10.14,10.14,0,0,1,8.09,3.48,13.21,13.21,0,0,1,3,8.95,12.93,12.93,0,0,1-3.19,9,10.56,10.56,0,0,1-8.19,3.53q-4.5,0-6.48-2.4Zm9.15-16.68a5.93,5.93,0,0,0,1.56-4.39,5.85,5.85,0,0,0-1.56-4.37,5.32,5.32,0,0,0-3.87-1.54,5.24,5.24,0,0,0-3.81,1.54,5.85,5.85,0,0,0-1.56,4.37,5.93,5.93,0,0,0,1.56,4.39,5.18,5.18,0,0,0,3.81,1.56A5.25,5.25,0,0,0,965.54,417.22Z" transform="translate(-258.93 -389.36)"/>
    <path class="cls-1" d="M986.25,424.78H979V390h7.3Z" transform="translate(-258.93 -389.36)"/>
    <path class="cls-1" d="M1008.28,416.19l6.1,1.73a9.94,9.94,0,0,1-3.8,5.44,11.72,11.72,0,0,1-7.2,2.14,12.92,12.92,0,0,1-8.9-21.79,11.47,11.47,0,0,1,8.38-3.51q5.57,0,8.76,3.24t3.19,9a9.65,9.65,0,0,1-.15,2.26h-16.6a4.39,4.39,0,0,0,1.68,3.29,5.64,5.64,0,0,0,3.74,1.32Q1007.17,419.31,1008.28,416.19ZM998.2,410h9.55a4.3,4.3,0,0,0-1.27-2.84A4.73,4.73,0,0,0,1003,406a4.54,4.54,0,0,0-3.36,1.25A4.5,4.5,0,0,0,998.2,410Z" transform="translate(-258.93 -389.36)"/>
    <path class="cls-1" d="M1017.54,418l6.2-1.1a3.45,3.45,0,0,0,1,2.28,3.67,3.67,0,0,0,2.71.93,3.14,3.14,0,0,0,2.06-.6,1.83,1.83,0,0,0,.72-1.46c0-1-.78-1.62-2.35-2l-2.74-.62a9.62,9.62,0,0,1-5.37-2.71,6.76,6.76,0,0,1-1.73-4.64,7.19,7.19,0,0,1,2.62-5.61,9.51,9.51,0,0,1,6.55-2.31q4.65,0,7,2.24a7.67,7.67,0,0,1,2.57,4.87l-6,1.1a3.32,3.32,0,0,0-1-2.11,3.37,3.37,0,0,0-2.43-.82,3,3,0,0,0-1.82.58,1.78,1.78,0,0,0-.77,1.49c0,1,.63,1.55,1.88,1.77l3.16.63a9.86,9.86,0,0,1,5.47,2.73,6.77,6.77,0,0,1,1.88,4.76,7.59,7.59,0,0,1-2.5,5.68,9.73,9.73,0,0,1-7,2.38,13.27,13.27,0,0,1-4.68-.77,7.61,7.61,0,0,1-3.12-2,10.19,10.19,0,0,1-1.63-2.42A7.08,7.08,0,0,1,1017.54,418Z" transform="translate(-258.93 -389.36)"/>
    <path class="cls-1" d="M1039.91,418l6.19-1.1a3.54,3.54,0,0,0,1,2.28,3.71,3.71,0,0,0,2.72.93,3.14,3.14,0,0,0,2.06-.6,1.83,1.83,0,0,0,.72-1.46c0-1-.78-1.62-2.35-2l-2.74-.62a9.62,9.62,0,0,1-5.37-2.71,6.72,6.72,0,0,1-1.73-4.64,7.21,7.21,0,0,1,2.61-5.61,9.56,9.56,0,0,1,6.56-2.31q4.65,0,7,2.24a7.67,7.67,0,0,1,2.57,4.87l-6.05,1.1a3.1,3.1,0,0,0-3.41-2.93,3,3,0,0,0-1.82.58,1.78,1.78,0,0,0-.77,1.49c0,1,.62,1.55,1.87,1.77l3.17.63a9.89,9.89,0,0,1,5.47,2.73,6.76,6.76,0,0,1,1.87,4.76,7.58,7.58,0,0,1-2.49,5.68,9.75,9.75,0,0,1-7,2.38,13.27,13.27,0,0,1-4.68-.77,7.61,7.61,0,0,1-3.12-2,10.19,10.19,0,0,1-1.63-2.42A6.84,6.84,0,0,1,1039.91,418Z" transform="translate(-258.93 -389.36)"/>
    <path class="cls-1" d="M1062.52,426.12l6.43-1.82a5,5,0,0,0,1.75,2.88,5.18,5.18,0,0,0,3.38,1.1q5.91,0,5.91-6.09v-1.11c-1.18,1.8-3.31,2.69-6.38,2.69a10.49,10.49,0,0,1-7.92-3.31,11.51,11.51,0,0,1-3.17-8.3,11.81,11.81,0,0,1,3.14-8.24,10.35,10.35,0,0,1,7.95-3.43,9.13,9.13,0,0,1,4.32.91,5.56,5.56,0,0,1,2.3,2.07v-2.55h7V421.8A13.32,13.32,0,0,1,1084,431q-3.21,3.62-9.55,3.62a12.84,12.84,0,0,1-8.13-2.52A9.25,9.25,0,0,1,1062.52,426.12Zm8.73-10.12a5,5,0,0,0,3.7,1.44,4.92,4.92,0,0,0,3.67-1.44,5.22,5.22,0,0,0,1.42-3.84,5.14,5.14,0,0,0-1.49-3.82,4.92,4.92,0,0,0-3.6-1.46,5,5,0,0,0-3.62,1.46,5.08,5.08,0,0,0-1.52,3.82A5.19,5.19,0,0,0,1071.25,416Z" transform="translate(-258.93 -389.36)"/>
    <path class="cls-1" d="M1100.63,424.78h-7.3V390h7.3Z" transform="translate(-258.93 -389.36)"/>
    <path class="cls-1" d="M1118,400.2a12.4,12.4,0,0,1,9,3.56,13.17,13.17,0,0,1,0,18.16,12.7,12.7,0,0,1-21.72-9.09,12.14,12.14,0,0,1,3.65-9.05A12.4,12.4,0,0,1,1118,400.2Zm0,18.58a5.21,5.21,0,0,0,3.82-1.54,5.9,5.9,0,0,0,1.56-4.41,5.82,5.82,0,0,0-1.56-4.39,5.5,5.5,0,0,0-7.61,0,5.82,5.82,0,0,0-1.58,4.37,5.9,5.9,0,0,0,1.58,4.39A5.22,5.22,0,0,0,1118,418.78Z" transform="translate(-258.93 -389.36)"/>
    <path class="cls-1" d="M1150.55,400.92v7.2a10,10,0,0,0-2.3-.24,5.36,5.36,0,0,0-4,1.59,6.72,6.72,0,0,0-1.56,4.89v10.42h-7.3V400.92h7.06v3.22a5.23,5.23,0,0,1,2.64-2.64,8.47,8.47,0,0,1,3.55-.82A6.85,6.85,0,0,1,1150.55,400.92Z" transform="translate(-258.93 -389.36)"/>
    <path class="cls-1" d="M1165.48,434h-7.68l5.42-12.39-10-20.64h8.16l5.81,12.77,5.28-12.77h7.72Z" transform="translate(-258.93 -389.36)"/>
    <path class="cls-1" d="M1202.2,390.08l-17.28,35.37h-6.48l17.23-35.37Z" transform="translate(-258.93 -389.36)"/>
    <path class="cls-1" d="M1213.72,394v7h4.65v6.39h-4.65v8.93q0,2.49,2.64,2.49a8.82,8.82,0,0,0,1.92-.24v6.05a8.65,8.65,0,0,1-3.8.67,8.07,8.07,0,0,1-5.83-2.06,7.47,7.47,0,0,1-2.13-5.62V407.31h-4.23v-6.39h1.2a3.44,3.44,0,0,0,2.76-1.08,4.09,4.09,0,0,0,.94-2.8V394Z" transform="translate(-258.93 -389.36)"/>
    <path class="cls-1" d="M1234.21,400.2a12.41,12.41,0,0,1,9,3.56,13.2,13.2,0,0,1,0,18.16,13.16,13.16,0,0,1-18.07,0,13.07,13.07,0,0,1,0-18.12A12.4,12.4,0,0,1,1234.21,400.2Zm0,18.58a5.21,5.21,0,0,0,3.82-1.54,5.9,5.9,0,0,0,1.56-4.41,5.82,5.82,0,0,0-1.56-4.39,5.5,5.5,0,0,0-7.61,0,5.78,5.78,0,0,0-1.58,4.37,5.86,5.86,0,0,0,1.58,4.39A5.22,5.22,0,0,0,1234.21,418.78Z" transform="translate(-258.93 -389.36)"/>
    <path class="cls-1" d="M1264.93,413.6h-14.4V407h14.4Z" transform="translate(-258.93 -389.36)"/>
    <path class="cls-1" d="M1293.78,390v30.48c0,1.44.06,2.86.19,4.27h-7a15,15,0,0,1-.19-2.3,6.18,6.18,0,0,1-2.57,2,9,9,0,0,1-3.81.79,11.19,11.19,0,0,1-8.45-3.53,13.76,13.76,0,0,1-.1-17.9,10.81,10.81,0,0,1,8.31-3.53c3.26,0,5.41.81,6.43,2.45V390Zm-16.3,18.43a5.85,5.85,0,0,0-1.56,4.37,5.93,5.93,0,0,0,1.56,4.39,5.46,5.46,0,0,0,7.64,0,5.93,5.93,0,0,0,1.56-4.39,5.85,5.85,0,0,0-1.56-4.37,5.51,5.51,0,0,0-7.64,0Z" transform="translate(-258.93 -389.36)"/>
    <path class="cls-1" d="M1311.3,400.2a12.41,12.41,0,0,1,9,3.56,13.2,13.2,0,0,1,0,18.16,13.16,13.16,0,0,1-18.07,0,13.07,13.07,0,0,1,0-18.12A12.4,12.4,0,0,1,1311.3,400.2Zm0,18.58a5.23,5.23,0,0,0,3.82-1.54,5.9,5.9,0,0,0,1.56-4.41,5.82,5.82,0,0,0-1.56-4.39,5.5,5.5,0,0,0-7.61,0,5.79,5.79,0,0,0-1.59,4.37,5.87,5.87,0,0,0,1.59,4.39A5.2,5.2,0,0,0,1311.3,418.78Z" transform="translate(-258.93 -389.36)"/>
    <path class="cls-1" d="M1342,413.6h-14.4V407H1342Z" transform="translate(-258.93 -389.36)"/>
    <path class="cls-1" d="M1354.69,424.78h-7.29V390h7.29Z" transform="translate(-258.93 -389.36)"/>
    <path class="cls-1" d="M1361.75,396.65a4.29,4.29,0,0,1,0-6,4,4,0,0,1,3-1.24,4.2,4.2,0,0,1,3,1.24,4.24,4.24,0,0,1,0,6,4.21,4.21,0,0,1-3,1.25A4.06,4.06,0,0,1,1361.75,396.65Zm6.67,28.13h-7.3V400.92h7.3Z" transform="translate(-258.93 -389.36)"/>
    <path class="cls-1" d="M1372.83,418l6.2-1.1a3.45,3.45,0,0,0,1,2.28,3.68,3.68,0,0,0,2.71.93,3.12,3.12,0,0,0,2.06-.6,1.83,1.83,0,0,0,.72-1.46c0-1-.78-1.62-2.35-2l-2.73-.62a9.62,9.62,0,0,1-5.38-2.71,6.76,6.76,0,0,1-1.73-4.64,7.19,7.19,0,0,1,2.62-5.61,9.53,9.53,0,0,1,6.55-2.31q4.65,0,7,2.24a7.62,7.62,0,0,1,2.57,4.87l-6,1.1a3.12,3.12,0,0,0-3.41-2.93,3,3,0,0,0-1.83.58,1.77,1.77,0,0,0-.76,1.49c0,1,.62,1.55,1.87,1.77l3.17.63a9.93,9.93,0,0,1,5.47,2.73,6.81,6.81,0,0,1,1.87,4.76,7.55,7.55,0,0,1-2.5,5.68,9.72,9.72,0,0,1-7,2.38,13.19,13.19,0,0,1-4.68-.77,7.48,7.48,0,0,1-3.12-2,10,10,0,0,1-1.64-2.42A7.08,7.08,0,0,1,1372.83,418Z" transform="translate(-258.93 -389.36)"/>
    <path class="cls-1" d="M1405.91,394v7h4.65v6.39h-4.65v8.93q0,2.49,2.64,2.49a8.82,8.82,0,0,0,1.92-.24v6.05a8.65,8.65,0,0,1-3.8.67,8.07,8.07,0,0,1-5.83-2.06,7.47,7.47,0,0,1-2.13-5.62V407.31h-4.23v-6.39h1.2a3.44,3.44,0,0,0,2.76-1.08,4.09,4.09,0,0,0,.94-2.8V394Z" transform="translate(-258.93 -389.36)"/>
    <path class="cls-1" d="M578.45,441.82V438h833.84v3.84Z" transform="translate(-258.93 -389.36)"/>
  </g>
</svg>
