<svg id="Layer_1" data-name="Layer 1" xmlns="http://www.w3.org/2000/svg" viewBox="0 0 215.04 38.15">
  <defs>
    <style>
      .cls-1 {
        fill: #08009f;
      }
    </style>
  </defs>
  <title>About-me</title>
  <g>
    <path class="cls-1" d="M28.93,61.2l-2.35-6.63H14L11.63,61.2H4L16.28,28.58h8.41L36.84,61.2ZM20.37,36.68,16.37,48h7.91Z" transform="translate(0 -23.74)"/>
    <path class="cls-1" d="M47.14,61.2H40.38V27.89h6.85V40.5a5.91,5.91,0,0,1,2.58-1.94,10.09,10.09,0,0,1,4-.78,9.7,9.7,0,0,1,7.75,3.34,12.64,12.64,0,0,1,2.87,8.58,12.39,12.39,0,0,1-3.05,8.62,10.09,10.09,0,0,1-7.85,3.38,8.62,8.62,0,0,1-3.91-.85,5.91,5.91,0,0,1-2.53-2.23ZM57.49,49.74A5.66,5.66,0,0,0,56,45.53a5.06,5.06,0,0,0-3.68-1.45,5.12,5.12,0,0,0-3.7,1.45,5.59,5.59,0,0,0-1.5,4.21A5.64,5.64,0,0,0,48.66,54a5,5,0,0,0,3.68,1.5A5,5,0,0,0,56,54,5.71,5.71,0,0,0,57.49,49.74Z" transform="translate(0 -23.74)"/>
    <path class="cls-1" d="M79.48,37.65a11.87,11.87,0,0,1,8.67,3.4,11.63,11.63,0,0,1,3.47,8.69A11.8,11.8,0,0,1,79.48,61.89a11.84,11.84,0,0,1-8.65-3.45,11.71,11.71,0,0,1-3.49-8.7,11.64,11.64,0,0,1,3.49-8.67A11.89,11.89,0,0,1,79.48,37.65Zm0,17.8A5,5,0,0,0,83.14,54a5.69,5.69,0,0,0,1.49-4.23,5.63,5.63,0,0,0-1.49-4.21,5.1,5.1,0,0,0-3.66-1.45,5,5,0,0,0-3.63,1.48,5.52,5.52,0,0,0-1.52,4.18A5.6,5.6,0,0,0,75.85,54,5,5,0,0,0,79.48,55.45Z" transform="translate(0 -23.74)"/>
    <path class="cls-1" d="M110.85,61.2a11.4,11.4,0,0,1-.18-2.3A5.19,5.19,0,0,1,108.14,61a9.31,9.31,0,0,1-3.59.71,8.18,8.18,0,0,1-6.37-2.55,9.09,9.09,0,0,1-2.32-6.37V38.33h7v13a4.24,4.24,0,0,0,.94,2.85,3.39,3.39,0,0,0,2.74,1.1,3.68,3.68,0,0,0,2.78-1.08,3.92,3.92,0,0,0,1-2.83v-13h7V57.1a32,32,0,0,0,.23,4.1Z" transform="translate(0 -23.74)"/>
    <path class="cls-1" d="M131.87,31.66v6.67h4.47v6.12h-4.47V53c0,1.59.85,2.39,2.53,2.39a7.9,7.9,0,0,0,1.84-.23V61a8.29,8.29,0,0,1-3.63.64,7.7,7.7,0,0,1-5.59-2,7.15,7.15,0,0,1-2-5.38v-9.8h-4V38.33h1.15a3.31,3.31,0,0,0,2.64-1,4,4,0,0,0,.9-2.69V31.66Z" transform="translate(0 -23.74)"/>
    <path class="cls-1" d="M159.38,61.2h-7V38.33h6.67V41a6,6,0,0,1,2.74-2.4,8.79,8.79,0,0,1,3.84-.91q4.92,0,6.76,3.58a8.09,8.09,0,0,1,7.08-3.58,8.68,8.68,0,0,1,6,2.18c1.62,1.46,2.44,3.64,2.44,6.55V61.2h-6.77V48a4.09,4.09,0,0,0-.92-2.78,3.35,3.35,0,0,0-2.71-1.09,3.54,3.54,0,0,0-2.8,1.15,4,4,0,0,0-1,2.77V61.2h-6.9V48a4.05,4.05,0,0,0-.94-2.78,3.45,3.45,0,0,0-2.74-1.09,3.52,3.52,0,0,0-2.76,1.15,4.14,4.14,0,0,0-1,2.81Z" transform="translate(0 -23.74)"/>
    <path class="cls-1" d="M208.78,53l5.85,1.66A9.52,9.52,0,0,1,211,59.84a11.3,11.3,0,0,1-6.9,2,11.82,11.82,0,0,1-8.44-3.31,11.68,11.68,0,0,1-3.47-8.88,11.71,11.71,0,0,1,3.38-8.7,11,11,0,0,1,8-3.35q5.32,0,8.39,3.1c2,2.07,3.06,4.94,3.06,8.63a9.7,9.7,0,0,1-.14,2.16H199a4.22,4.22,0,0,0,1.61,3.15A5.42,5.42,0,0,0,204.18,56C206.54,56,208.08,55,208.78,53ZM199.12,47h9.16a4.14,4.14,0,0,0-1.22-2.72,4.56,4.56,0,0,0-3.38-1.15A4.39,4.39,0,0,0,199.12,47Z" transform="translate(0 -23.74)"/>
  </g>
  <polygon class="cls-1" points="6.81 0 8.92 4.26 13.62 4.95 10.22 8.27 11.02 12.96 6.81 10.74 2.6 12.96 3.41 8.27 0 4.95 4.71 4.26 6.81 0"/>
  <polygon class="cls-1" points="144.19 25.2 146.3 29.46 151 30.14 147.6 33.46 148.4 38.15 144.19 35.94 139.98 38.15 140.79 33.46 137.38 30.14 142.09 29.46 144.19 25.2"/>
</svg>
