<svg id="Layer_1" data-name="Layer 1" xmlns="http://www.w3.org/2000/svg" viewBox="0 0 884 501">
  <defs>
    <style>
      .cls-1 {
        fill: #07007a;
      }

      .cls-2 {
        fill: #94007d;
      }

      .cls-3 {
        fill: #fff;
      }
    </style>
  </defs>
  <title>Artboard 1</title>
  <path class="cls-1" d="M712.65,396.35c1.66-15.51,3.1-31,4.65-46.51-1-.23-1.22-.45-1.33-.34-.77.45-1.55.89-2.32,1.44-13.85,10.08-29.13,16.28-46.08,19.72-24.92,5.09-47.3-.34-68.67-12.85C583.28,348.73,569.65,337,556,325.14c-1.55-1.33-2.88-2.77-5.2-2.55-17.51,1.89-35,3.88-52.51,5.54-2.88.22-3.1,1.33-3.21,3.65-.33,15.84-.66,31.57-1.11,47.4a11.18,11.18,0,0,0,3.88,9.19c24,22.15,49.84,41.75,79.86,55.15a170.88,170.88,0,0,0,67.12,15.4c15.07.22,29.91-1.77,44.75-4.76a198.1,198.1,0,0,0,61.92-24.81c5.31-3.21,11.07-6.2,15.73-12l-47.63-11.3C711.65,404.21,711.76,404.21,712.65,396.35Z"/>
  <path class="cls-1" d="M796.39,143.52c-4.21-4.87-8.53-9.85-14.07-14.06-.55,5.53-1.11,10.08-1.55,14.62-1.11,13.28-2.22,26.68-3.32,40-.23,2.22-1,3.22-3.55,3.77-8,1.77-16.06.66-24,1.66-8.31,1.11-16.84,1.11-26.37,1.66,2.33,2.66,3.77,4.43,5.32,6.09,20.16,22,30,47.62,27.69,77.74-1.88,24.37-11.52,45.19-28.13,62.91-1.33,1.32-2.66,2.65-2.77,4.54-1.55,17.38-3.1,34.66-4.65,52.05-.23,3,.88,3.87,3.87,4.65,14.74,3.43,29.36,7.42,44.2,10.63,2.77.66,6,2.66,9.19-.33,16.06-14.62,29.91-30.9,40.54-49.84A186.64,186.64,0,0,0,796.39,143.52Z"/>
  <path class="cls-1" d="M504.08,143.19c15.18,2.1,30.46,4.32,45.64,6.09,3.43.44,4.32,1.33,4.21,4.65-.22,8.09-.11,16.17-.11,24.37v24.36c0,1.33-.89,3.21.88,4s2.66-1.11,3.55-2a250.07,250.07,0,0,1,27.47-22c15.28-10.29,31.56-18.16,50.06-19.93,22-2.1,43.42,1.22,62.8,12.29,10.52,6,20.83,10.52,33.12,8.31,6.2-1.11,12.52-.22,18.61-1.33,5.54-1,11.08.33,16.39-1.33,1.55-.44,3.44-.22,3.33-2.77-.23-4.43,1.1-8.64,1.32-13.07a203.31,203.31,0,0,1,3.11-31.67c1.55-8.41-1.89-13.73-8.64-18.16-12.3-8.08-24.7-16-38.11-22C706.45,83.39,684.07,78.18,661,76.08a153.49,153.49,0,0,0-36.33,1,199.89,199.89,0,0,0-54.6,15.61c-25.15,11.52-47,27.8-67.57,46.07-.88.89-2.43,1.66-1.88,3.1S502.86,143,504.08,143.19Z"/>
  <path class="cls-1" d="M544.07,218.49c1.11-1.21,2.21-2.21,2.21-4.2-.11-18.28,0-36.55,0-54.82,0-1.55.11-2.66-2.1-3-16.17-2.11-32.23-4.32-48.41-6.65a8.37,8.37,0,0,0-8.19,3.22c-3.88,4.43-8,8.63-12,12.95L416.8,229.46c-25.36,27.13-49.07,55.7-75.65,81.62-4,4-8.42,7.64-13.18,12a31.94,31.94,0,0,0,9.08,2c14.18,1.33,28.47,2.77,42.65,4.21,1.77.22,2.54.88,2.65,2.66.23,5.64,1.11,11.29,1,16.94-.22,12.85,1.66,25.69.89,39.87,7.31-4.88,12.07-10.41,17.28-15.62,19.93-19.93,38.54-41,57.48-61.79Q501.38,265.12,544.07,218.49Z"/>
  <path class="cls-2" d="M163.15,387.49a219,219,0,0,1-2.1-24c-.11-6.87-2.44-13.29-2.33-20.16,0-1.77-1.21-2.55-2.32-3.54a101.27,101.27,0,0,1-27-47.95c-6.42-25.7-2.88-50.06,9.42-73.2a94.87,94.87,0,0,1,15.84-21.82A342.71,342.71,0,0,0,119.4,194c-6.31-.11-12.62-1.44-19.05-1.88C98,192,97.8,190.92,97.69,189c-1.22-14.4-3.43-28.69-3.32-43.19A11.53,11.53,0,0,0,92,138.54c-.88,1.11-1.44,2-2.1,2.77a177.08,177.08,0,0,0-39.32,65.56C42.87,229.68,39.1,253.38,41,277.74a201.71,201.71,0,0,0,8.64,46.51c9.75,30.24,26.7,56.15,48.85,78.85,4.87,5,9.75,5.76,16.17,4,13.62-3.65,27.47-7,41.31-10C162.82,395.68,163.93,394.46,163.15,387.49Z"/>
  <path class="cls-2" d="M375.6,372.76c1-9.41-1-20.15-.89-31,0-3.65-1.33-4.76-4.76-5-7.87-.44-15.62-1.55-23.48-2.44-6.65-.66-13.52.22-19.94-2.66-2.55-1.1-5.76-.55-8.64,2a205.88,205.88,0,0,1-37.33,26.58c-10.08,5.53-20.71,10.52-32.12,11.73-27.91,3-53.83-3.32-77-19.6-.66-.55-1.22-1.55-2.33-1-1.32.55-.66,1.88-.77,2.88-.44,5.31.77,10.52,1.22,15.83.77,9.3,1.44,18.61,2.66,27.8.44,2.88,0,3.87-2.88,4.54-3.88.77-7.76,1.66-11.74,2.55-12.52,2.76-24.93,6.2-37.44,9.3-1.77.44-4.43-.22-4.88,1.66s2.22,3.21,3.66,4.21c12.52,8.52,25.14,16.72,39.32,22.26,17.83,7,35.89,12.73,55.27,14.61,16.95,1.67,33.9,2.22,50.51-.77,21.38-3.88,41.42-12,60.36-22.7a339.71,339.71,0,0,0,35.12-23.48c17-12.63,16.94-12.74,16.17-34.22A10.08,10.08,0,0,0,375.6,372.76Z"/>
  <path class="cls-2" d="M105.11,181c.23,3,1.11,3.55,3.88,3.55,11.19.11,22.26,2,33.34,2.54,11.41.56,22.6,3.22,31.57-6.75.22-.22.66-.22,1-.44a104.51,104.51,0,0,1,48.51-17.28c12.74-1.11,25.58-1.33,38.21,2.44a126.16,126.16,0,0,1,43.75,22.81c1.33,1.11,2.88,2.77,4.88,1.88,2.21-1,1-3.21,1-4.87.12-15.28.12-30.57.12-46,0-2.21-.45-4.1,3.1-4.54,17.27-2.21,34.55-4.65,52.72-7.2-18.39-14.06-36.66-26.8-57.49-35.66A198.32,198.32,0,0,0,268.6,79a174.8,174.8,0,0,0-47.41-2.22,193.17,193.17,0,0,0-23.81,3.11,197.8,197.8,0,0,0-42.53,13.62c-19.17,8.86-36.89,19.71-52.06,34.66a6.71,6.71,0,0,0-2,6C102.35,149.72,103.9,165.34,105.11,181Z"/>
  <path class="cls-2" d="M319,148c.55,7.75.11,15.51.11,23.26,0,7.2.33,14.39-.11,21.59-.33,4.88,1.77,7.75,5.2,10.63a353.9,353.9,0,0,1,28.91,28.8c7.76,8.52,15.29,17.16,23,25.58.89,1,1.33,2.77,3.55.33,17.61-19.6,35.44-38.87,53.27-58.14,2.44-2.66,2.22-4.54,0-7.09-16.83-19.38-35-37.32-53.39-55.15-1.77-1.77-3.87-3.65-6.64-3.1-15.73,3.21-31.68,4.88-47.52,6.54C321.21,141.53,318.67,143,319,148Z"/>
  <path class="cls-2" d="M509.18,276.75c-3-3.44-4.88-3-7.53.11q-25.59,28.39-51.51,56.7c-2,2.21-2.32,3.54.33,5.76s4.43,5.42,6.87,7.86c9.3,9.08,18.72,18.16,27.91,27a19.48,19.48,0,0,0,1.22-9.08c-.77-13.62,1.22-27.13,1.11-40.76,0-1.88-.11-3.43,2.66-3.65,17.72-1.77,35.55-3.76,54.6-5.76C532,302.11,520.48,289.59,509.18,276.75Z"/>
  <path class="cls-2" d="M194.28,232.78c5,0,12.51,0,18.94,3.88,6.09,3.76,10.74,10.85,10.74,25.14,0,13.62-4.21,21.37-10.74,25.47s-14.07,3.87-18.94,3.87H177.22V232.78Zm-2.44,47h3.43c2,0,5.1,0,7.65-1.55,4-2.44,5.43-8,5.43-16.39S206.9,248,202.7,245.63a15.28,15.28,0,0,0-7.31-1.55H192v35.66Z"/>
  <path class="cls-2" d="M266.39,289.92a58.44,58.44,0,0,1-13.85,1.67c-8.2,0-13.29-2-16.72-5.32-4-4-5.54-9.75-5.54-16.94,0-13.63,5.87-23.15,19.82-23.15,7.42,0,12.74,2.77,15.62,7.09,3.32,5,3.32,11.29,3.32,19.93H244.79c0,5.21,3,8.2,9.3,8.2a53.8,53.8,0,0,0,11.85-2h.56v10.52Zm-11.63-25c0-5.54-.89-8.86-4.77-8.86s-5.42,3.54-5.42,8.86Z"/>
  <path class="cls-2" d="M288,247.51l7.09,28.35,7.42-28.35h13.18l-14.06,43.63H286.1l-14-43.63Z"/>
  <path class="cls-1" d="M613.07,284.39c-4.21,5-11,7.86-19.38,7.86-8,0-14.84-2.55-19.27-7.86s-6.09-13.51-6.09-22.37c0-9.75,2-17.28,6.42-22.37s11-7.87,19.49-7.87c8,0,14.85,2.55,19.28,7.87,4.76,5.76,6.09,14.06,6.09,22C619.61,271.43,617.5,279.18,613.07,284.39Zm-11.63-7.75c1.66-3,2.33-7.53,2.33-14.73s-.67-11.74-2.33-14.73a8.84,8.84,0,0,0-12.18-3,9.48,9.48,0,0,0-3,3c-1.66,3-2.33,7.42-2.33,14.73s.67,11.73,2.33,14.73a8.84,8.84,0,0,0,12.18,3A7.71,7.71,0,0,0,601.44,276.64Z"/>
  <path class="cls-1" d="M627.58,305.43V247.51H639.1l2.33,6.2c1.66-5,6.31-7.09,11.52-7.09s9.41,1.89,12.29,5.65,4.1,9.3,4.1,16.5c0,6.87-1.11,13.18-4.76,17.61a15.4,15.4,0,0,1-12.41,5.54c-5,0-8.64-1.77-10.19-5.76v19.27Zm25-26.69c1.21-2,1.66-4.65,1.66-9.41s-.33-7.53-1.66-9.53a5.08,5.08,0,0,0-4.54-2.32,4.86,4.86,0,0,0-4.55,2.32c-1.21,2-1.55,4.65-1.55,9.42s.34,7.53,1.55,9.52a5.07,5.07,0,0,0,4.55,2.32A4.46,4.46,0,0,0,652.62,278.74Z"/>
  <path class="cls-1" d="M704.45,258.58h-.66a43.37,43.37,0,0,0-9.86-1.88c-3,0-4.21,1.11-4.21,2.44,0,2.88,5.21,4,9.19,6.31s7.43,5.54,7.43,12.07c0,8.31-5.65,14.07-18.72,14.07a37.12,37.12,0,0,1-12.08-1.78V279.62h.67s6.64,2.22,11.3,2.22c3.21,0,4.65-1.11,4.65-2.88,0-3.43-5.54-4.21-10.3-7.2-3.44-2.21-6.32-5.31-6.32-11.18,0-8.75,6.65-13.62,18.17-13.62a40.12,40.12,0,0,1,11,1.44Z"/>
  <path class="cls-3" d="M361.75,166.56a9.19,9.19,0,0,1,2.88,4.2,5.82,5.82,0,0,1-2,5.76c-2,1.89-4.1,2.55-6,2.11a9.13,9.13,0,0,1-4.21-2.77l-.89-.89-4.21,4.21-2.77-2.77L358,162.79Zm-7.86,6.31,1,1a3.42,3.42,0,0,0,2.1,1.21,4.7,4.7,0,0,0,4-4.09,3.6,3.6,0,0,0-1.33-2l-1-1Z"/>
  <path class="cls-3" d="M372.16,176.86l-11.07,11.29,4.43,4.32-2.33,2.44-7.31-7.2,13.4-13.62Z"/>
  <path class="cls-3" d="M372.39,203.88l2.1-3.77-4.32-4.32-3.77,2.11-2.54-2.44,17.61-9.63,3.32,3.21-9.3,17.72Zm.55-9.64,3.1,3,3.88-7Z"/>
  <path class="cls-3" d="M393.1,197.34,390,210.85l8.3-8.41,2.44,2.43-13.4,13.62L384.79,216l2.88-13.85-8.31,8.53-2.43-2.43,13.4-13.63Z"/>
  <path class="cls-3" d="M418.13,291.81l5.32,4.76-2.55,2.88L406.61,286.6l4.1-4.54a8.71,8.71,0,0,1,4-2.88,6.24,6.24,0,0,1,7,5.54,5.81,5.81,0,0,1-.11,2l8.53,2.33-2.88,3.21-7.53-2.33Zm-2.44-2.22,1.44-1.66a3.53,3.53,0,0,0,1.11-1.88,2.7,2.7,0,0,0-1.22-2.22,2.85,2.85,0,0,0-2.21-.88,2.77,2.77,0,0,0-1.66,1.1l-1.55,1.78Z"/>
  <path class="cls-3" d="M424.89,266.45l2.43,2.21-4.54,5,3.21,2.88,3.88-4.2,2.44,2.21-3.77,4.21,3.77,3.32,4.76-5.31,2.44,2.21-7.42,8.2L417.8,274.31Z"/>
  <path class="cls-3" d="M429.87,260.8l11.74,10.52,4.21-4.65,2.44,2.21-6.87,7.64L427.1,263.68Z"/>
  <path class="cls-3" d="M442.72,246.51l2.44,2.22-4.55,5,3.22,2.88,3.87-4.21,2.44,2.22-3.88,4.21,3.77,3.32,4.76-5.32,2.44,2.22-7.42,8.19-14.29-12.84Z"/>
  <path class="cls-3" d="M466.09,249.28l-3.88-1.88-4.09,4.54,2.32,3.65-2.32,2.66L447.7,241.09l3.11-3.44,18.05,8.53Zm-9.64-.11,2.88-3.21-7.19-3.54Z"/>
  <path class="cls-3" d="M465.32,226.91l-.12.11a9.57,9.57,0,0,0-2.87,2.22c-1.22,1.33-1.11,2.43-.45,3.1,1.22,1.11,3.21,0,5.43-.56a5.62,5.62,0,0,1,6,1.11c2.77,2.55,2.33,5.87-.44,9a14.1,14.1,0,0,1-3.44,2.77L467,242.42l.11-.12a13.87,13.87,0,0,0,3.32-2.32c1.22-1.33,1.33-2.77.33-3.66-1.44-1.21-3.54,0-6,.56a5.41,5.41,0,0,1-5.43-1.11c-2.43-2.21-2.54-5.32.23-8.42a14.48,14.48,0,0,1,3.21-2.65Z"/>
  <path class="cls-3" d="M472.4,213.62l2.44,2.22-4.54,5,3.21,2.88,3.77-4.21,2.43,2.22-3.87,4.2,3.76,3.33,4.77-5.32,2.43,2.22-7.42,8.19L465.2,221.6Z"/>
  <path class="cls-3" d="M188.41,137.1a15.85,15.85,0,0,1-3.32,1.66c-6.1,2.1-9.64-1.66-11.3-6.53s-1.11-10,5.09-12a10.51,10.51,0,0,1,3.66-.67l1,3.1h-.22a9.17,9.17,0,0,0-3,.45c-3.32,1.1-3.87,4-2.66,7.64s3.44,5.87,6.87,4.76a7.3,7.3,0,0,0,2.55-1.44h.22Z"/>
  <path class="cls-3" d="M203.8,131a8.62,8.62,0,0,1-11.51,3.76c-.45-.22-.89-.55-1.33-.77-1.44-1.33-2.44-3.43-3.11-6.31a11.61,11.61,0,0,1,.11-7,8.61,8.61,0,0,1,12.85-2.88c1.44,1.33,2.44,3.54,3.1,6.31A11.78,11.78,0,0,1,203.8,131Zm-3.76-.89a10.7,10.7,0,0,0-.22-5.2c-.56-2.55-1.22-4-2-4.76a3.85,3.85,0,0,0-5.42.33l-.67,1a10.74,10.74,0,0,0,.22,5.21,10.72,10.72,0,0,0,2,4.87,3.71,3.71,0,0,0,5.31-.33C199.6,130.79,199.82,130.45,200,130.12Z"/>
  <path class="cls-3" d="M211.78,113.4a11.89,11.89,0,0,1,6.2.55c2.11,1,3.88,3,4.43,7.87s-.66,7.31-2.77,8.75a11.1,11.1,0,0,1-5.87,1.77l-5.2.55-2-19Zm.44,15.95,1.66-.22a5.21,5.21,0,0,0,2.88-.89c1.44-1.11,1.78-2.88,1.44-5.87s-1-4.76-2.66-5.54a7,7,0,0,0-3-.33l-1.66.11Z"/>
  <path class="cls-3" d="M236.7,112.18v3.21h-6.76v4.32h5.76V123h-5.65v5.1h7.09v3.21l-11.07.11L226,112.29Z"/>
  <path class="cls-3" d="M90.94,258.81a8.37,8.37,0,0,1-1.11,4.31,4.35,4.35,0,0,1-4.1,1.89c-3.77-.34-3.88-3.44-3.88-3.44a4.39,4.39,0,0,1-5.09,3.66,4.77,4.77,0,0,1-4.32-2.77,9.4,9.4,0,0,1-.55-5l.44-5.87,19,1.44ZM75.1,255.7,75,257.92a4.59,4.59,0,0,0,.22,2.1,2.36,2.36,0,0,0,2.1,1.22,2,2,0,0,0,2.22-.88,4.56,4.56,0,0,0,.55-2l.11-2.1Zm8.42.67-.12,1.77a3.2,3.2,0,0,0,.23,1.77,1.85,1.85,0,0,0,1.88,1,2.24,2.24,0,0,0,2.1-.77,4.53,4.53,0,0,0,.45-1.67l.11-1.77Z"/>
  <path class="cls-3" d="M90.49,272.32l-12.62.33c-2.11.11-3.66.77-3.55,3.32s1.66,3.1,3.77,3.1l12.62-.33.12,3.54-12,.33a8.53,8.53,0,0,1-5.42-1.21,7.08,7.08,0,0,1-2.33-5.54,6.93,6.93,0,0,1,2-5.65c1.33-1.22,3.55-1.44,5.32-1.55l12-.33Z"/>
  <path class="cls-3" d="M91.71,289.48l-19,2.1-.44-4,19-2.11Z"/>
  <path class="cls-3" d="M92.82,296.79l-15.51,2.77,1.11,6.09-3.32.55-1.89-10.07L92,292.69Z"/>
  <path class="cls-3" d="M95.7,309.42a11.78,11.78,0,0,1,.55,6.2c-.55,2.21-2.32,4.43-7.09,5.75-4.54,1.33-7.31.56-9.08-1.21a11.65,11.65,0,0,1-2.77-5.43l-1.44-5,18.5-5.21ZM80,312.63l.44,1.55A5.75,5.75,0,0,0,81.85,317c1.33,1.21,3.22,1.21,6.1.33s4.54-1.89,5-3.55a5.49,5.49,0,0,0-.22-3l-.44-1.55Z"/>
  <path class="cls-3" d="M562.9,373.09l-4.65,13.29,12-7.42,4,3.21L562.12,397l-3-2.43,9-11.08-11.85,7.75L553.59,389l5-13.29-9,11.07L547,384.61,559,369.77Z"/>
  <path class="cls-3" d="M580.07,405.1a8.66,8.66,0,0,1-11-5.32,6.8,6.8,0,0,1-.33-1.44A12.8,12.8,0,0,1,571,391.7a11.75,11.75,0,0,1,4.88-5,7.59,7.59,0,0,1,7.2.78,7.79,7.79,0,0,1,4.1,6c.11,2-.67,4.21-2.22,6.64S581.84,404.32,580.07,405.1ZM578,401.77c1-.55,2-1.66,3.44-3.87s1.88-3.66,1.88-4.76a3.85,3.85,0,0,0-4.1-3.55,2.57,2.57,0,0,0-1.22.33c-1,.56-2,1.67-3.43,3.88s-1.88,3.66-1.88,4.76a3.84,3.84,0,0,0,4.09,3.55C577.08,402,577.52,401.89,578,401.77Z"/>
  <path class="cls-3" d="M595.46,394.58l1.77,13.73,4.88-10.74,3.21,1.44-8,17.38L594.13,415l-2-14.06-5,10.85-3.11-1.44,8-17.38Z"/>
  <path class="cls-3" d="M612.19,401.44l-6.43,18.05L602,418.16l6.42-18.05Z"/>
  <path class="cls-3" d="M626.48,405.54l-.89,3.21-4.32-1.22-4.21,15.29-3.88-1.11,4.21-15.28-4.32-1.22L614,402Z"/>
  <path class="cls-3" d="M638.55,424.25a7.62,7.62,0,0,1-7.09,2,7.34,7.34,0,0,1-6-4.1c-.89-1.77-1-4.1-.44-7.09a11.44,11.44,0,0,1,2.65-6.42,8.71,8.71,0,0,1,12.19.89,4.88,4.88,0,0,1,.88,1.21,11.57,11.57,0,0,1,.45,7C640.76,420.82,640,422.93,638.55,424.25ZM635.34,422c.77-.89,1.21-2.33,1.66-4.87a11.4,11.4,0,0,0,0-5.21,3.72,3.72,0,0,0-5.1-1.66l-1,.67c-.78.88-1.22,2.32-1.67,4.87s-.44,4.1,0,5.2a3.71,3.71,0,0,0,5.1,1.66A1.65,1.65,0,0,0,635.34,422Z"/>
  <path class="cls-3" d="M648.41,420.6l-.33,7.2-3.88-.11.77-19.16,6.21.22a7.43,7.43,0,0,1,4.76,1.33,6.18,6.18,0,0,1,.22,8.86,6.49,6.49,0,0,1-1.66,1.22l3.65,8.08-4.43-.22-3-7.31Zm.11-3.21,2.21.11a3.45,3.45,0,0,0,2.11-.33,3,3,0,0,0,1-2.33,2.72,2.72,0,0,0-.77-2.21,2.49,2.49,0,0,0-2-.56l-2.33-.11Z"/>
  <path class="cls-3" d="M229,401.22l-.22,3.32-4.55-.33-1.33,15.73-4-.34,1.33-15.72-4.54-.33.22-3.33Z"/>
  <path class="cls-3" d="M241.46,401.22v3.32h-6.75v4.32h5.76v3.32h-5.65v5h7.09v3.32H230.83l-.11-19.16Z"/>
  <path class="cls-3" d="M254.31,403.66h-.22a10.13,10.13,0,0,0-3.66-.33c-1.77.22-2.54,1-2.43,2,.11,1.66,2.32,2.21,4.43,3.21a5.63,5.63,0,0,1,3.65,5c.34,3.77-2.21,6-6.31,6.32a11.89,11.89,0,0,1-4.43-.34l-.33-3.32h.22a12.74,12.74,0,0,0,4.1.55c1.88-.22,2.88-1.1,2.77-2.43-.22-1.88-2.66-2.44-4.77-3.66a5.35,5.35,0,0,1-3.32-4.54c-.33-3.32,1.77-5.53,5.87-6a13.56,13.56,0,0,1,4.21.22Z"/>
  <path class="cls-3" d="M268.49,397.57l.55,3.32-4.43.77,2.88,15.51-3.87.77-2.88-15.5-4.43.77-.56-3.32Z"/>
  <path class="cls-3" d="M620.27,109.19a13.07,13.07,0,0,1,6.21.56c2.1,1,3.87,3,4.43,8,.44,4.76-.78,7.31-2.77,8.75a12.24,12.24,0,0,1-5.87,1.77l-5.21.55-1.88-19Zm.33,16.06,1.67-.11a5.84,5.84,0,0,0,3-.89c1.44-1.1,1.77-2.88,1.44-5.87s-1-4.76-2.66-5.53a6.85,6.85,0,0,0-3-.34l-1.66.11Z"/>
  <path class="cls-3" d="M645.2,108.2v3.32h-6.76v4.32h5.76v3.21h-5.76v5h7.09v3.21H634.45v-19Z"/>
  <path class="cls-3" d="M655.39,109a10,10,0,0,1,5,1.44c1.55,1.11,2.44,3,2.1,5.76s-1.55,4.65-3.32,5.42a8.51,8.51,0,0,1-5,.56L653,122l-.56,5.87-4-.45,1.88-19Zm-2.22,9.75,1.44.11a4.62,4.62,0,0,0,2.44-.34,3.54,3.54,0,0,0,1.22-2.65,3.37,3.37,0,0,0-.78-3,3.44,3.44,0,0,0-2.33-.78l-1.44-.11Z"/>
  <path class="cls-3" d="M671.11,111.07l-2.88,15.51,6.1,1.11-.56,3.32-10.08-1.88,3.44-18.83Z"/>
  <path class="cls-3" d="M689.28,132.34a8.57,8.57,0,0,1-12-2.22,7.31,7.31,0,0,1-.78-1.33,12,12,0,0,1,.33-7.08,11.87,11.87,0,0,1,3.33-6.1,7.93,7.93,0,0,1,7.2-1.21,7.61,7.61,0,0,1,5.53,4.65,11.43,11.43,0,0,1-.22,7C691.83,129.13,690.83,131.12,689.28,132.34Zm-2.88-2.55c.88-.78,1.44-2.1,2.21-4.65s.89-4,.56-5.21a3.73,3.73,0,0,0-4.88-2.21,5.14,5.14,0,0,0-1.1.55c-.89.78-1.55,2.11-2.22,4.65s-.88,4.1-.55,5.21a3.72,3.72,0,0,0,4.87,2.21A3.49,3.49,0,0,0,686.4,129.79Z"/>
  <path class="cls-3" d="M701.46,119.27l.45,8.64,6.2-6.09,3.43,1.33L702,132.23l-2.55,6.64-3.77-1.44,2.55-6.64-.89-13.29Z"/>
  <path class="cls-3" d="M786.53,240.31a8.71,8.71,0,0,1-3.44-11.74,5.47,5.47,0,0,1,.89-1.22,12.66,12.66,0,0,1,6.43-2.88,11.51,11.51,0,0,1,7,.34,8.7,8.7,0,0,1,2.55,13.06,12.11,12.11,0,0,1-6.42,2.88A13.57,13.57,0,0,1,786.53,240.31Zm1-3.76c1.1.44,2.54.44,5.2-.11s4-1.11,4.87-1.78a3.7,3.7,0,0,0-.11-5.31,5.24,5.24,0,0,0-1-.67c-1.11-.44-2.55-.44-5.21.11s-4,1.11-4.87,1.78a3.8,3.8,0,0,0,.11,5.31Z"/>
  <path class="cls-3" d="M803.81,248.73a9.79,9.79,0,0,1-.56,5.09c-.88,1.66-2.54,2.88-5.31,3.1a6.56,6.56,0,0,1-6-2.32,9.26,9.26,0,0,1-1.44-4.88l-.11-1.32-5.88.44-.33-4,19-1.55Zm-10.08-.45.11,1.44a3.49,3.49,0,0,0,.77,2.33,3.87,3.87,0,0,0,2.88.78,3.61,3.61,0,0,0,2.77-1.22,4.47,4.47,0,0,0,.33-2.44l-.11-1.44Z"/>
  <path class="cls-3" d="M804.36,271.43H801l.11-6.76h-4.32l-.11,5.76H793.4l.11-5.76-5-.11-.11,7.09H785.2l.11-11.07,19.16.22Z"/>
  <path class="cls-3" d="M791.84,278.85l-7.19-.77.44-3.88,19,2-.67,6.09a7.78,7.78,0,0,1-1.55,4.65,5.45,5.45,0,0,1-5,1.66c-2.88-.33-4.43-1.66-5.1-3.65l-8.3,3.1.44-4.32,7.53-2.54Zm3.22.33-.22,2.22a3.33,3.33,0,0,0,.22,2.1,3.05,3.05,0,0,0,2.21,1.11,2.66,2.66,0,0,0,2.33-.67,3,3,0,0,0,.66-1.88l.22-2.32Z"/>
  <path class="cls-3" d="M781.21,300.22l4.32-.33,1.22-6-3.88-2,.67-3.44L801.15,298l-.89,4.54-19.93,1.77Zm8.31-4.76-.89,4.21,8-.55Z"/>
  <path class="cls-3" d="M795.28,321l-3.21-.88,1.33-4.32-15.18-4.43,1.11-3.88L794.5,312l1.22-4.32,3.21.89Z"/>
  <path class="cls-3" d="M790.18,334.55l-3.1-1.1,2.44-6.32-4.1-1.55-2,5.32-3-1.11,2-5.31-4.65-1.78-2.55,6.65-3.1-1.11,4-10.3,17.94,6.87Z"/>
</svg>
