<svg id="Layer_1" data-name="Layer 1" xmlns="http://www.w3.org/2000/svg" viewBox="0 0 215.48 20.96">
  <defs>
    <style>
      .cls-1 {
        fill: #08009f;
      }
    </style>
  </defs>
  <title>P1</title>
  <g>
    <path class="cls-1" d="M3.71,7H2.77V4.48H1.84V3.85a1.17,1.17,0,0,0,.71-.21.82.82,0,0,0,.35-.52h.81Z" transform="translate(-1.63 -2.59)"/>
    <path class="cls-1" d="M4.64,6.89a.62.62,0,0,1-.18-.44A.58.58,0,0,1,4.64,6a.6.6,0,0,1,.44-.18A.6.6,0,0,1,5.51,6a.58.58,0,0,1,.18.43.6.6,0,0,1-.18.43.57.57,0,0,1-.43.19A.6.6,0,0,1,4.64,6.89Z" transform="translate(-1.63 -2.59)"/>
    <path class="cls-1" d="M10,7.1a2.16,2.16,0,0,1-1.57-.61A2.09,2.09,0,0,1,7.75,4.9,2.17,2.17,0,0,1,10,2.67a2.35,2.35,0,0,1,.82.14,1.59,1.59,0,0,1,.6.35,2.57,2.57,0,0,1,.37.46,1.78,1.78,0,0,1,.19.48l-.9.29a1.06,1.06,0,0,0-.09-.25,1.38,1.38,0,0,0-.19-.25.78.78,0,0,0-.33-.21A1.19,1.19,0,0,0,10,3.59a1.26,1.26,0,0,0-.85.34,1.28,1.28,0,0,0-.36,1A1.21,1.21,0,0,0,10,6.16a1.1,1.1,0,0,0,.76-.25,1.2,1.2,0,0,0,.36-.55l.9.26a1.92,1.92,0,0,1-.19.48,2.58,2.58,0,0,1-.37.48,1.82,1.82,0,0,1-.61.38A2.33,2.33,0,0,1,10,7.1Z" transform="translate(-1.63 -2.59)"/>
    <path class="cls-1" d="M13.84,3.94A1.54,1.54,0,0,1,15,4.39a1.51,1.51,0,0,1,.46,1.13A1.55,1.55,0,0,1,15,6.66a1.53,1.53,0,0,1-1.13.44,1.55,1.55,0,0,1-1.13-.45,1.52,1.52,0,0,1-.45-1.13,1.52,1.52,0,0,1,.45-1.13A1.55,1.55,0,0,1,13.84,3.94Zm0,2.32a.65.65,0,0,0,.48-.19.74.74,0,0,0,.19-.55A.74.74,0,0,0,14.32,5a.69.69,0,0,0-1,0,.74.74,0,0,0-.2.55.74.74,0,0,0,.2.55A.64.64,0,0,0,13.84,6.26Z" transform="translate(-1.63 -2.59)"/>
    <path class="cls-1" d="M16.93,7H16V4h.87v.34a.86.86,0,0,1,.36-.31,1.15,1.15,0,0,1,.5-.12.9.9,0,0,1,.88.47,1.08,1.08,0,0,1,.93-.47,1.12,1.12,0,0,1,.78.29,1.05,1.05,0,0,1,.32.85V7h-.88V5.29a.57.57,0,0,0-.12-.37.45.45,0,0,0-.35-.14.47.47,0,0,0-.37.15.52.52,0,0,0-.13.36V7h-.9V5.29a.52.52,0,0,0-.13-.37.45.45,0,0,0-.35-.14.46.46,0,0,0-.36.15.52.52,0,0,0-.13.37Z" transform="translate(-1.63 -2.59)"/>
    <path class="cls-1" d="M22.33,8.15h-.91V4h.88v.31a.8.8,0,0,1,.34-.27A1.33,1.33,0,0,1,23.18,4a1.24,1.24,0,0,1,1,.44,1.64,1.64,0,0,1,.37,1.11,1.59,1.59,0,0,1-.4,1.13,1.31,1.31,0,0,1-1,.44,1,1,0,0,1-.81-.3Zm1.14-2.08a.74.74,0,0,0,.2-.55.74.74,0,0,0-.2-.55.7.7,0,0,0-1,0,.74.74,0,0,0-.19.55.74.74,0,0,0,.19.55.7.7,0,0,0,1,0Z" transform="translate(-1.63 -2.59)"/>
    <path class="cls-1" d="M27.1,5.94l.76.22a1.23,1.23,0,0,1-.47.68,1.45,1.45,0,0,1-.9.26,1.51,1.51,0,0,1-1.55-1.59,1.5,1.5,0,0,1,.44-1.13,1.43,1.43,0,0,1,1-.44,1.48,1.48,0,0,1,1.1.41,1.55,1.55,0,0,1,.4,1.12,1.28,1.28,0,0,1,0,.28H25.82a.57.57,0,0,0,.21.42.72.72,0,0,0,.47.16A.57.57,0,0,0,27.1,5.94Zm-1.26-.77H27a.54.54,0,0,0-.6-.51.54.54,0,0,0-.42.16A.52.52,0,0,0,25.84,5.17Z" transform="translate(-1.63 -2.59)"/>
    <path class="cls-1" d="M29.6,3.16V4h.58v.8H29.6V6c0,.2.11.31.33.31l.24,0V7A1.21,1.21,0,0,1,29,6.81a1,1,0,0,1-.26-.7V4.83h-.53V4h.15a.41.41,0,0,0,.34-.13.51.51,0,0,0,.12-.35V3.16Z" transform="translate(-1.63 -2.59)"/>
    <path class="cls-1" d="M30.91,3.5a.53.53,0,0,1,0-.76.5.5,0,0,1,.37-.15.54.54,0,0,1,.38.15.53.53,0,0,1,0,.76.54.54,0,0,1-.38.15A.5.5,0,0,1,30.91,3.5ZM31.74,7h-.91V4h.91Z" transform="translate(-1.63 -2.59)"/>
    <path class="cls-1" d="M33.63,3.16V4h.58v.8h-.58V6c0,.2.11.31.33.31l.24,0V7A1.2,1.2,0,0,1,33,6.81a.93.93,0,0,1-.27-.7V4.83H32.2V4h.15a.45.45,0,0,0,.35-.13.56.56,0,0,0,.11-.35V3.16Z" transform="translate(-1.63 -2.59)"/>
    <path class="cls-1" d="M34.94,3.5a.53.53,0,0,1,0-.76.51.51,0,0,1,.37-.15.54.54,0,0,1,.38.15.53.53,0,0,1,0,.76.54.54,0,0,1-.38.15A.51.51,0,0,1,34.94,3.5ZM35.77,7h-.91V4h.91Z" transform="translate(-1.63 -2.59)"/>
    <path class="cls-1" d="M37.94,3.94a1.54,1.54,0,0,1,1.13.45,1.51,1.51,0,0,1,.45,1.13,1.6,1.6,0,0,1-2.71,1.13,1.49,1.49,0,0,1-.46-1.13,1.49,1.49,0,0,1,.46-1.13A1.54,1.54,0,0,1,37.94,3.94Zm0,2.32a.63.63,0,0,0,.47-.19.74.74,0,0,0,.2-.55.74.74,0,0,0-.2-.55.67.67,0,0,0-.47-.19.71.71,0,0,0-.48.19.74.74,0,0,0-.19.55.74.74,0,0,0,.19.55A.66.66,0,0,0,37.94,6.26Z" transform="translate(-1.63 -2.59)"/>
    <path class="cls-1" d="M41,5.3V7h-.91V4H41v.34a.82.82,0,0,1,.35-.31A1.21,1.21,0,0,1,41.83,4a1,1,0,0,1,.81.34,1.29,1.29,0,0,1,.27.85V7H42V5.3a.58.58,0,0,0-.12-.38.5.5,0,0,0-.37-.14.45.45,0,0,0-.35.15A.53.53,0,0,0,41,5.3Z" transform="translate(-1.63 -2.59)"/>
    <path class="cls-1" d="M47.05,4v.9a1.23,1.23,0,0,0-.29,0,.69.69,0,0,0-.5.2.84.84,0,0,0-.19.61V7h-.92V4H46v.4a.66.66,0,0,1,.33-.33,1.13,1.13,0,0,1,.44-.1A.88.88,0,0,1,47.05,4Z" transform="translate(-1.63 -2.59)"/>
    <path class="cls-1" d="M49.52,5.94l.76.22a1.34,1.34,0,0,1-.47.68,1.47,1.47,0,0,1-.9.26,1.55,1.55,0,0,1-1.11-.43,1.53,1.53,0,0,1-.45-1.16,1.54,1.54,0,0,1,.44-1.13,1.56,1.56,0,0,1,2.14,0,1.51,1.51,0,0,1,.4,1.12.84.84,0,0,1,0,.28H48.24a.57.57,0,0,0,.21.42.71.71,0,0,0,.47.16A.58.58,0,0,0,49.52,5.94Zm-1.26-.77h1.19a.54.54,0,0,0-.16-.36.59.59,0,0,0-.44-.15.57.57,0,0,0-.59.51Z" transform="translate(-1.63 -2.59)"/>
    <path class="cls-1" d="M52.29,4.78a.66.66,0,0,0-.48.2.74.74,0,0,0-.2.55.77.77,0,0,0,.2.54.69.69,0,0,0,.5.19.63.63,0,0,0,.4-.12.6.6,0,0,0,.21-.32l.81.25a1.38,1.38,0,0,1-.48.73,1.47,1.47,0,0,1-.94.3,1.57,1.57,0,0,1-1.14-.44,1.51,1.51,0,0,1-.46-1.13,1.54,1.54,0,0,1,.45-1.14,1.52,1.52,0,0,1,1.12-.45,1.46,1.46,0,0,1,.95.3,1.33,1.33,0,0,1,.48.74l-.81.25a.64.64,0,0,0-.21-.32A.57.57,0,0,0,52.29,4.78Z" transform="translate(-1.63 -2.59)"/>
    <path class="cls-1" d="M55.63,3.94a1.55,1.55,0,0,1,1.13.45,1.51,1.51,0,0,1,.45,1.13A1.6,1.6,0,0,1,54.5,6.65,1.49,1.49,0,0,1,54,5.52a1.49,1.49,0,0,1,.46-1.13A1.54,1.54,0,0,1,55.63,3.94Zm0,2.32a.64.64,0,0,0,.47-.19.74.74,0,0,0,.2-.55A.74.74,0,0,0,56.1,5a.69.69,0,0,0-1,0,.74.74,0,0,0-.2.55.74.74,0,0,0,.2.55A.65.65,0,0,0,55.63,6.26Z" transform="translate(-1.63 -2.59)"/>
    <path class="cls-1" d="M59.69,4v.9a1.23,1.23,0,0,0-.29,0,.69.69,0,0,0-.5.2.84.84,0,0,0-.19.61V7H57.8V4h.88v.4A.66.66,0,0,1,59,4.1a1.21,1.21,0,0,1,.44-.1A.83.83,0,0,1,59.69,4Z" transform="translate(-1.63 -2.59)"/>
    <path class="cls-1" d="M63.14,2.67V6.48a4.58,4.58,0,0,0,0,.53h-.88a1.32,1.32,0,0,1,0-.28A.75.75,0,0,1,62,7a1.09,1.09,0,0,1-.48.1,1.41,1.41,0,0,1-1.06-.44A1.56,1.56,0,0,1,60,5.51,1.6,1.6,0,0,1,60.4,4.4a1.37,1.37,0,0,1,1-.44c.41,0,.68.1.8.31V2.67Zm-2,2.3a.74.74,0,0,0-.2.55.74.74,0,0,0,.2.55.64.64,0,0,0,.47.19.65.65,0,0,0,.48-.19.74.74,0,0,0,.2-.55.74.74,0,0,0-.2-.55.69.69,0,0,0-1,0Z" transform="translate(-1.63 -2.59)"/>
    <path class="cls-1" d="M63.72,6.17,64.49,6a.41.41,0,0,0,.13.28.45.45,0,0,0,.34.12.4.4,0,0,0,.26-.07.23.23,0,0,0,.09-.19c0-.12-.1-.2-.29-.24l-.35-.08A1.22,1.22,0,0,1,64,5.51a.84.84,0,0,1-.21-.58.89.89,0,0,1,.32-.7,1.21,1.21,0,0,1,.82-.29,1.23,1.23,0,0,1,.87.28,1,1,0,0,1,.33.61L65.37,5a.42.42,0,0,0-.12-.27.46.46,0,0,0-.31-.1.45.45,0,0,0-.23.07.23.23,0,0,0-.09.19c0,.12.08.19.23.22l.4.08a1.19,1.19,0,0,1,.68.34.85.85,0,0,1,.24.6,1,1,0,0,1-.32.71A1.19,1.19,0,0,1,65,7.1,1.78,1.78,0,0,1,64.39,7,1.05,1.05,0,0,1,64,6.76a1.31,1.31,0,0,1-.2-.3A.84.84,0,0,1,63.72,6.17Z" transform="translate(-1.63 -2.59)"/>
    <path class="cls-1" d="M71.17,4,70,7h-.92L67.9,4h1l.7,1.86L70.21,4Z" transform="translate(-1.63 -2.59)"/>
    <path class="cls-1" d="M73.31,7h-1V4.48h-.92V3.85a1.17,1.17,0,0,0,.71-.21.82.82,0,0,0,.35-.52h.81Z" transform="translate(-1.63 -2.59)"/>
    <path class="cls-1" d="M74.24,6.89a.62.62,0,0,1-.18-.44A.58.58,0,0,1,74.24,6a.6.6,0,0,1,.43-.18.6.6,0,0,1,.44.18.58.58,0,0,1,.18.43.6.6,0,0,1-.18.43.58.58,0,0,1-.44.19A.6.6,0,0,1,74.24,6.89Z" transform="translate(-1.63 -2.59)"/>
    <path class="cls-1" d="M75.76,5.07A2.42,2.42,0,0,1,76.1,3.7,1.46,1.46,0,0,1,77.42,3a1.48,1.48,0,0,1,1.33.67,2.42,2.42,0,0,1,.34,1.37,2.42,2.42,0,0,1-.34,1.37,1.65,1.65,0,0,1-2.65,0A2.42,2.42,0,0,1,75.76,5.07Zm.95,0a2.18,2.18,0,0,0,.14.85.63.63,0,0,0,1.14,0,2,2,0,0,0,.15-.85A2,2,0,0,0,78,4.22a.63.63,0,0,0-1.14,0A2.18,2.18,0,0,0,76.71,5.07Z" transform="translate(-1.63 -2.59)"/>
    <path class="cls-1" d="M79.61,6.89a.62.62,0,0,1-.18-.44A.58.58,0,0,1,79.61,6,.6.6,0,0,1,80,5.84a.6.6,0,0,1,.44.18.58.58,0,0,1,.18.43.6.6,0,0,1-.18.43.58.58,0,0,1-.44.19A.6.6,0,0,1,79.61,6.89Z" transform="translate(-1.63 -2.59)"/>
    <path class="cls-1" d="M81.13,5.07a2.42,2.42,0,0,1,.34-1.37A1.46,1.46,0,0,1,82.79,3a1.48,1.48,0,0,1,1.33.67,2.42,2.42,0,0,1,.34,1.37,2.42,2.42,0,0,1-.34,1.37,1.65,1.65,0,0,1-2.65,0A2.42,2.42,0,0,1,81.13,5.07Zm1,0a2.18,2.18,0,0,0,.14.85.63.63,0,0,0,1.14,0,2,2,0,0,0,.15-.85,2,2,0,0,0-.15-.85.63.63,0,0,0-1.14,0A2.18,2.18,0,0,0,82.08,5.07Z" transform="translate(-1.63 -2.59)"/>
    <path class="cls-1" d="M4.14,14.21l-.76-1.58H3v1.58h-1V10H3.78a1.38,1.38,0,0,1,1,.38,1.3,1.3,0,0,1,.38.95,1.25,1.25,0,0,1-.22.75,1.24,1.24,0,0,1-.62.45l.86,1.72ZM3,11.81H3.6A.6.6,0,0,0,4,11.67a.46.46,0,0,0,.16-.37A.46.46,0,0,0,4,10.92a.64.64,0,0,0-.44-.14H3Z" transform="translate(-1.63 -2.59)"/>
    <path class="cls-1" d="M7.69,13.14l.76.22A1.3,1.3,0,0,1,8,14a1.45,1.45,0,0,1-.9.26A1.61,1.61,0,0,1,6,11.58a1.44,1.44,0,0,1,1-.44,1.46,1.46,0,0,1,1.09.41,1.51,1.51,0,0,1,.4,1.12.84.84,0,0,1,0,.28H6.41a.57.57,0,0,0,.21.42.71.71,0,0,0,.47.16A.58.58,0,0,0,7.69,13.14Zm-1.26-.77H7.62A.54.54,0,0,0,7.46,12,.59.59,0,0,0,7,11.86.54.54,0,0,0,6.6,12,.55.55,0,0,0,6.43,12.37Z" transform="translate(-1.63 -2.59)"/>
    <path class="cls-1" d="M8.91,13.39a.79.79,0,0,1,.25-.61,1.16,1.16,0,0,1,.63-.29l.7-.11c.15,0,.22-.08.22-.2a.28.28,0,0,0-.12-.23.49.49,0,0,0-.32-.09.48.48,0,0,0-.36.13.44.44,0,0,0-.15.3L9,12.13a1,1,0,0,1,.37-.68,1.36,1.36,0,0,1,.94-.31,1.35,1.35,0,0,1,1,.33,1.12,1.12,0,0,1,.32.82v1.46a2.86,2.86,0,0,0,0,.46h-.82a1.42,1.42,0,0,1,0-.33.91.91,0,0,1-.84.42A1,1,0,0,1,9.19,14,.84.84,0,0,1,8.91,13.39Zm1.25.25a.52.52,0,0,0,.55-.6v-.13l-.56.09c-.23,0-.34.15-.34.33a.29.29,0,0,0,.09.22A.34.34,0,0,0,10.16,13.64Z" transform="translate(-1.63 -2.59)"/>
    <path class="cls-1" d="M13.72,12a.68.68,0,0,0-.49.2.74.74,0,0,0-.19.55.72.72,0,0,0,.2.54A.65.65,0,0,0,14.35,13l.81.25a1.42,1.42,0,0,1-1.43,1,1.56,1.56,0,0,1-1.13-.44,1.52,1.52,0,0,1-.47-1.13,1.54,1.54,0,0,1,1.57-1.59,1.49,1.49,0,0,1,1,.3,1.33,1.33,0,0,1,.48.74l-.82.25a.58.58,0,0,0-.6-.45Z" transform="translate(-1.63 -2.59)"/>
    <path class="cls-1" d="M16.81,10.36v.87h.58V12h-.58v1.12c0,.2.11.31.33.31l.24,0v.75a1.05,1.05,0,0,1-.48.09,1,1,0,0,1-.73-.26.92.92,0,0,1-.26-.7V12h-.53v-.8h.15a.42.42,0,0,0,.34-.13.51.51,0,0,0,.12-.35v-.39Z" transform="translate(-1.63 -2.59)"/>
    <path class="cls-1" d="M18,13.69a.5.5,0,0,1,.17-.4.57.57,0,0,1,.43-.16.56.56,0,0,1,.47.22.79.79,0,0,1,.17.53,1.64,1.64,0,0,1-.1.6,1.21,1.21,0,0,1-.29.42,1.42,1.42,0,0,1-.37.25,1.27,1.27,0,0,1-.38.11v-.43a.83.83,0,0,0,.41-.22.57.57,0,0,0,.19-.43.23.23,0,0,1-.16.05.53.53,0,0,1-.39-.16A.52.52,0,0,1,18,13.69Z" transform="translate(-1.63 -2.59)"/>
    <path class="cls-1" d="M23.43,14.3a2.16,2.16,0,0,1-1.57-.61,2.09,2.09,0,0,1-.64-1.59,2.17,2.17,0,0,1,2.2-2.23,2.35,2.35,0,0,1,.82.14,1.59,1.59,0,0,1,.6.35,2.57,2.57,0,0,1,.37.46,1.78,1.78,0,0,1,.19.48l-.9.29a1.06,1.06,0,0,0-.09-.25,1.38,1.38,0,0,0-.19-.25.78.78,0,0,0-.33-.21,1.19,1.19,0,0,0-.47-.09,1.26,1.26,0,0,0-.85.34,1.28,1.28,0,0,0-.36,1,1.21,1.21,0,0,0,1.22,1.26,1.1,1.1,0,0,0,.76-.25,1.2,1.2,0,0,0,.36-.55l.9.26a1.92,1.92,0,0,1-.19.48,2.58,2.58,0,0,1-.37.48,1.82,1.82,0,0,1-.61.38A2.33,2.33,0,0,1,23.43,14.3Z" transform="translate(-1.63 -2.59)"/>
    <path class="cls-1" d="M27.14,15.36h-1l.68-1.55-1.25-2.58h1l.72,1.6.66-1.6h1Z" transform="translate(-1.63 -2.59)"/>
    <path class="cls-1" d="M30.35,15.35h-.91V11.23h.88v.31a.8.8,0,0,1,.34-.27,1.33,1.33,0,0,1,.54-.11,1.27,1.27,0,0,1,1,.44,1.64,1.64,0,0,1,.37,1.11,1.63,1.63,0,0,1-.39,1.13,1.34,1.34,0,0,1-1,.44,1,1,0,0,1-.81-.3Zm1.15-2.08a.89.89,0,0,0,0-1.1A.7.7,0,0,0,31,12a.68.68,0,0,0-.47.19.86.86,0,0,0,0,1.1.64.64,0,0,0,.47.19A.66.66,0,0,0,31.5,13.27Z" transform="translate(-1.63 -2.59)"/>
    <path class="cls-1" d="M35.07,11.23v.9a1.29,1.29,0,0,0-.29,0,.69.69,0,0,0-.5.2.84.84,0,0,0-.2.61v1.3h-.91v-3h.89v.4a.68.68,0,0,1,.32-.33,1.22,1.22,0,0,1,.45-.1A.88.88,0,0,1,35.07,11.23Z" transform="translate(-1.63 -2.59)"/>
    <path class="cls-1" d="M37.54,13.14l.76.22a1.3,1.3,0,0,1-.48.68,1.45,1.45,0,0,1-.9.26,1.61,1.61,0,0,1-1.11-2.72,1.44,1.44,0,0,1,1-.44,1.46,1.46,0,0,1,1.09.41,1.51,1.51,0,0,1,.4,1.12.84.84,0,0,1,0,.28H36.26a.54.54,0,0,0,.21.42.69.69,0,0,0,.47.16A.58.58,0,0,0,37.54,13.14Zm-1.27-.77h1.2a.54.54,0,0,0-.16-.36.6.6,0,0,0-.44-.15.54.54,0,0,0-.42.16A.62.62,0,0,0,36.27,12.37Z" transform="translate(-1.63 -2.59)"/>
    <path class="cls-1" d="M38.69,13.37l.78-.14a.46.46,0,0,0,.13.29.48.48,0,0,0,.34.11.37.37,0,0,0,.25-.07.23.23,0,0,0,.09-.19c0-.12-.09-.2-.29-.24l-.34-.08a1.15,1.15,0,0,1-.67-.34.81.81,0,0,1-.22-.58.9.9,0,0,1,.33-.7,1.19,1.19,0,0,1,.82-.29,1.26,1.26,0,0,1,.87.28,1,1,0,0,1,.32.61l-.76.14a.42.42,0,0,0-.12-.27.45.45,0,0,0-.3-.1.42.42,0,0,0-.23.07.24.24,0,0,0-.1.19c0,.12.08.19.24.22l.39.08a1.25,1.25,0,0,1,.69.34.88.88,0,0,1,.23.6,1,1,0,0,1-.31.71,1.22,1.22,0,0,1-.88.29,1.72,1.72,0,0,1-.58-.09A1.05,1.05,0,0,1,39,14a1.37,1.37,0,0,1-.21-.3A1.15,1.15,0,0,1,38.69,13.37Z" transform="translate(-1.63 -2.59)"/>
    <path class="cls-1" d="M41.49,13.37l.77-.14a.46.46,0,0,0,.13.29.5.5,0,0,0,.34.11.4.4,0,0,0,.26-.07.23.23,0,0,0,.09-.19c0-.12-.1-.2-.29-.24l-.35-.08a1.22,1.22,0,0,1-.67-.34.84.84,0,0,1-.21-.58.89.89,0,0,1,.32-.7,1.21,1.21,0,0,1,.82-.29,1.23,1.23,0,0,1,.87.28,1,1,0,0,1,.33.61l-.76.14A.42.42,0,0,0,43,11.9a.46.46,0,0,0-.31-.1.48.48,0,0,0-.23.07.23.23,0,0,0-.09.19c0,.12.08.19.23.22l.4.08a1.19,1.19,0,0,1,.68.34.85.85,0,0,1,.24.6,1,1,0,0,1-.31.71,1.22,1.22,0,0,1-.88.29,1.78,1.78,0,0,1-.59-.09,1.05,1.05,0,0,1-.39-.25,1.31,1.31,0,0,1-.2-.3A.84.84,0,0,1,41.49,13.37Z" transform="translate(-1.63 -2.59)"/>
    <path class="cls-1" d="M44.47,13.69a.53.53,0,0,1,.17-.4.6.6,0,0,1,.43-.16.55.55,0,0,1,.47.22.79.79,0,0,1,.18.53,1.64,1.64,0,0,1-.11.6,1.19,1.19,0,0,1-.28.42,1.42,1.42,0,0,1-.37.25,1.36,1.36,0,0,1-.38.11v-.43a.8.8,0,0,0,.4-.22.58.58,0,0,0,.2-.43.26.26,0,0,1-.17.05.53.53,0,0,1-.39-.16A.52.52,0,0,1,44.47,13.69Z" transform="translate(-1.63 -2.59)"/>
    <path class="cls-1" d="M49.66,13l1-3h1l-1.55,4.25h-1L47.59,10h1Z" transform="translate(-1.63 -2.59)"/>
    <path class="cls-1" d="M52.22,10.7a.56.56,0,0,1,0-.76.53.53,0,0,1,.37-.15.56.56,0,0,1,.39.15.56.56,0,0,1,0,.76.56.56,0,0,1-.39.15A.53.53,0,0,1,52.22,10.7Zm.84,3.51h-.92v-3h.92Z" transform="translate(-1.63 -2.59)"/>
    <path class="cls-1" d="M55,10.36v.87h.58V12H55v1.12c0,.2.11.31.33.31l.24,0v.75a1.05,1.05,0,0,1-.48.09,1,1,0,0,1-.73-.26,1,1,0,0,1-.26-.7V12h-.53v-.8h.15A.41.41,0,0,0,54,11.1a.51.51,0,0,0,.12-.35v-.39Z" transform="translate(-1.63 -2.59)"/>
    <path class="cls-1" d="M58.09,13.14l.76.22a1.23,1.23,0,0,1-.47.68,1.45,1.45,0,0,1-.9.26,1.52,1.52,0,0,1-1.56-1.59,1.51,1.51,0,0,1,.45-1.13,1.43,1.43,0,0,1,1-.44,1.48,1.48,0,0,1,1.1.41,1.55,1.55,0,0,1,.4,1.12,1.28,1.28,0,0,1,0,.28H56.81a.57.57,0,0,0,.21.42.71.71,0,0,0,.47.16A.57.57,0,0,0,58.09,13.14Zm-1.26-.77H58a.53.53,0,0,0-.15-.36.61.61,0,0,0-.45-.15A.57.57,0,0,0,57,12,.55.55,0,0,0,56.83,12.37Z" transform="translate(-1.63 -2.59)"/>
    <path class="cls-1" d="M59.37,13.69a.53.53,0,0,1,.17-.4.59.59,0,0,1,.43-.16.55.55,0,0,1,.47.22.79.79,0,0,1,.18.53,1.64,1.64,0,0,1-.11.6,1.09,1.09,0,0,1-.29.42,1.38,1.38,0,0,1-.36.25,1.47,1.47,0,0,1-.38.11v-.43a.8.8,0,0,0,.4-.22.58.58,0,0,0,.2-.43.29.29,0,0,1-.17.05.53.53,0,0,1-.39-.16A.52.52,0,0,1,59.37,13.69Z" transform="translate(-1.63 -2.59)"/>
    <path class="cls-1" d="M62.55,12.9v-.28l.9-.16v.39a.53.53,0,0,0,.15.41.53.53,0,0,0,.73,0,.56.56,0,0,0,.13-.39V10h1v2.92a1.4,1.4,0,0,1-.41,1,1.36,1.36,0,0,1-1,.41,1.4,1.4,0,0,1-1-.38A1.38,1.38,0,0,1,62.55,12.9Z" transform="translate(-1.63 -2.59)"/>
    <path class="cls-1" d="M66,13.39a.82.82,0,0,1,.24-.61,1.22,1.22,0,0,1,.64-.29l.7-.11c.15,0,.22-.08.22-.2a.28.28,0,0,0-.12-.23.51.51,0,0,0-.32-.09A.48.48,0,0,0,67,12a.44.44,0,0,0-.15.3l-.79-.16a1,1,0,0,1,.37-.68,1.63,1.63,0,0,1,1.94,0,1.12,1.12,0,0,1,.32.82v1.46a2.86,2.86,0,0,0,0,.46h-.82a1.42,1.42,0,0,1,0-.33.91.91,0,0,1-.84.42,1,1,0,0,1-.75-.27A.84.84,0,0,1,66,13.39Zm1.25.25a.52.52,0,0,0,.55-.6v-.13l-.56.09c-.23,0-.34.15-.34.33a.29.29,0,0,0,.09.22A.33.33,0,0,0,67.28,13.64Z" transform="translate(-1.63 -2.59)"/>
    <path class="cls-1" d="M72.33,11.23l-1.13,3h-.92l-1.22-3h1l.69,1.86.64-1.86Z" transform="translate(-1.63 -2.59)"/>
    <path class="cls-1" d="M72.61,13.39a.79.79,0,0,1,.25-.61,1.16,1.16,0,0,1,.63-.29l.7-.11c.15,0,.22-.08.22-.2a.28.28,0,0,0-.12-.23.49.49,0,0,0-.32-.09.48.48,0,0,0-.36.13.44.44,0,0,0-.15.3l-.79-.16a1,1,0,0,1,.37-.68,1.38,1.38,0,0,1,.94-.31,1.35,1.35,0,0,1,1,.33,1.12,1.12,0,0,1,.32.82v1.46a2.86,2.86,0,0,0,0,.46h-.82a1.42,1.42,0,0,1,0-.33.91.91,0,0,1-.84.42,1,1,0,0,1-.75-.27A.84.84,0,0,1,72.61,13.39Zm1.25.25a.52.52,0,0,0,.55-.6v-.13l-.56.09c-.23,0-.34.15-.34.33a.29.29,0,0,0,.09.22A.34.34,0,0,0,73.86,13.64Z" transform="translate(-1.63 -2.59)"/>
    <path class="cls-1" d="M79.05,11l-.85.24a.6.6,0,0,0-.2-.36.7.7,0,0,0-.51-.17.64.64,0,0,0-.42.14.42.42,0,0,0-.16.32c0,.22.14.35.42.4l.57.11a1.58,1.58,0,0,1,.91.46,1.16,1.16,0,0,1,.32.82,1.26,1.26,0,0,1-.42.94,1.61,1.61,0,0,1-1.15.4,1.7,1.7,0,0,1-1.24-.41,1.51,1.51,0,0,1-.5-1l.87-.21a.8.8,0,0,0,.25.53.88.88,0,0,0,.63.2.72.72,0,0,0,.44-.12.38.38,0,0,0,.16-.32.34.34,0,0,0-.12-.27.64.64,0,0,0-.33-.16l-.59-.1a1.48,1.48,0,0,1-.84-.44,1.16,1.16,0,0,1-.31-.81,1.25,1.25,0,0,1,.45-1,1.57,1.57,0,0,1,1.07-.39,2.06,2.06,0,0,1,.68.11,1.42,1.42,0,0,1,.47.27,2.11,2.11,0,0,1,.27.36A1.2,1.2,0,0,1,79.05,11Z" transform="translate(-1.63 -2.59)"/>
    <path class="cls-1" d="M81.09,12a.66.66,0,0,0-.49.2.74.74,0,0,0-.2.55.73.73,0,0,0,.21.54.66.66,0,0,0,.49.19.69.69,0,0,0,.41-.12.75.75,0,0,0,.21-.32l.8.25A1.38,1.38,0,0,1,82,14a1.45,1.45,0,0,1-.94.3A1.57,1.57,0,0,1,80,13.86a1.51,1.51,0,0,1-.46-1.13,1.54,1.54,0,0,1,1.57-1.59,1.44,1.44,0,0,1,1,.3,1.33,1.33,0,0,1,.48.74l-.81.25a.64.64,0,0,0-.21-.32A.56.56,0,0,0,81.09,12Z" transform="translate(-1.63 -2.59)"/>
    <path class="cls-1" d="M85,11.23v.9a1.29,1.29,0,0,0-.29,0,.67.67,0,0,0-.5.2.84.84,0,0,0-.2.61v1.3h-.91v-3H84v.4a.66.66,0,0,1,.33-.33,1.22,1.22,0,0,1,.45-.1A.88.88,0,0,1,85,11.23Z" transform="translate(-1.63 -2.59)"/>
    <path class="cls-1" d="M85.61,10.7a.53.53,0,0,1,0-.76A.5.5,0,0,1,86,9.79a.54.54,0,0,1,.38.15.53.53,0,0,1,0,.76.54.54,0,0,1-.38.15A.5.5,0,0,1,85.61,10.7Zm.83,3.51h-.91v-3h.91Z" transform="translate(-1.63 -2.59)"/>
    <path class="cls-1" d="M88.15,15.35h-.91V11.23h.88v.31a.8.8,0,0,1,.34-.27,1.33,1.33,0,0,1,.54-.11,1.27,1.27,0,0,1,1,.44,1.64,1.64,0,0,1,.37,1.11,1.59,1.59,0,0,1-.4,1.13,1.31,1.31,0,0,1-1,.44,1,1,0,0,1-.81-.3Zm1.14-2.08a.86.86,0,0,0,0-1.1.7.7,0,0,0-1,0,.89.89,0,0,0,0,1.1.7.7,0,0,0,1,0Z" transform="translate(-1.63 -2.59)"/>
    <path class="cls-1" d="M92.06,10.36v.87h.58V12h-.58v1.12c0,.2.11.31.33.31l.24,0v.75a1.05,1.05,0,0,1-.48.09,1,1,0,0,1-.73-.26,1,1,0,0,1-.26-.7V12h-.53v-.8h.15a.42.42,0,0,0,.34-.13.51.51,0,0,0,.12-.35v-.39Z" transform="translate(-1.63 -2.59)"/>
    <path class="cls-1" d="M93.2,13.69a.5.5,0,0,1,.17-.4.57.57,0,0,1,.43-.16.56.56,0,0,1,.47.22.79.79,0,0,1,.17.53,1.64,1.64,0,0,1-.1.6,1.21,1.21,0,0,1-.29.42,1.56,1.56,0,0,1-.36.25,1.43,1.43,0,0,1-.39.11v-.43a.83.83,0,0,0,.41-.22.57.57,0,0,0,.19-.43.23.23,0,0,1-.16.05.53.53,0,0,1-.39-.16A.52.52,0,0,1,93.2,13.69Z" transform="translate(-1.63 -2.59)"/>
    <path class="cls-1" d="M99.65,11l-.86.24a.64.64,0,0,0-.19-.36.73.73,0,0,0-.51-.17.61.61,0,0,0-.42.14.4.4,0,0,0-.17.32c0,.22.14.35.42.4l.57.11a1.55,1.55,0,0,1,.91.46,1.16,1.16,0,0,1,.32.82,1.26,1.26,0,0,1-.42.94,1.61,1.61,0,0,1-1.15.4,1.72,1.72,0,0,1-1.24-.41,1.51,1.51,0,0,1-.5-1l.87-.21a.8.8,0,0,0,.25.53.88.88,0,0,0,.63.2.72.72,0,0,0,.44-.12.38.38,0,0,0,.16-.32.34.34,0,0,0-.12-.27.64.64,0,0,0-.33-.16l-.58-.1a1.51,1.51,0,0,1-.85-.44,1.16,1.16,0,0,1-.31-.81,1.25,1.25,0,0,1,.45-1,1.59,1.59,0,0,1,1.07-.39,2.06,2.06,0,0,1,.68.11,1.42,1.42,0,0,1,.47.27,2.11,2.11,0,0,1,.27.36A1.53,1.53,0,0,1,99.65,11Z" transform="translate(-1.63 -2.59)"/>
    <path class="cls-1" d="M102.33,14.3a2.15,2.15,0,0,1-1.57-.61,2.09,2.09,0,0,1-.64-1.59,2.17,2.17,0,0,1,2.2-2.23,2.35,2.35,0,0,1,.82.14,1.59,1.59,0,0,1,.6.35,2.14,2.14,0,0,1,.36.46,1.53,1.53,0,0,1,.2.48l-.9.29a1.06,1.06,0,0,0-.09-.25,1.38,1.38,0,0,0-.19-.25.78.78,0,0,0-.33-.21,1.19,1.19,0,0,0-.47-.09,1.24,1.24,0,0,0-.85.34,1.28,1.28,0,0,0-.37,1,1.18,1.18,0,0,0,.36.91,1.22,1.22,0,0,0,.87.35,1.08,1.08,0,0,0,1.11-.8l.91.26a2,2,0,0,1-.2.48,2.5,2.5,0,0,1-.36.48,1.92,1.92,0,0,1-.61.38A2.33,2.33,0,0,1,102.33,14.3Z" transform="translate(-1.63 -2.59)"/>
    <path class="cls-1" d="M107.93,11l-.86.24a.64.64,0,0,0-.19-.36.73.73,0,0,0-.51-.17.61.61,0,0,0-.42.14.4.4,0,0,0-.17.32c0,.22.14.35.42.4l.57.11a1.55,1.55,0,0,1,.91.46A1.16,1.16,0,0,1,108,13a1.26,1.26,0,0,1-.42.94,1.61,1.61,0,0,1-1.15.4,1.72,1.72,0,0,1-1.24-.41,1.51,1.51,0,0,1-.5-1l.87-.21a.8.8,0,0,0,.25.53.88.88,0,0,0,.63.2.72.72,0,0,0,.44-.12A.38.38,0,0,0,107,13a.34.34,0,0,0-.12-.27.64.64,0,0,0-.33-.16l-.58-.1a1.51,1.51,0,0,1-.85-.44,1.16,1.16,0,0,1-.31-.81,1.25,1.25,0,0,1,.45-1,1.59,1.59,0,0,1,1.07-.39,2.06,2.06,0,0,1,.68.11,1.42,1.42,0,0,1,.47.27,2.11,2.11,0,0,1,.27.36A1.53,1.53,0,0,1,107.93,11Z" transform="translate(-1.63 -2.59)"/>
    <path class="cls-1" d="M111.58,11l-.85.24a.65.65,0,0,0-.2-.36.7.7,0,0,0-.51-.17.64.64,0,0,0-.42.14.39.39,0,0,0-.16.32c0,.22.14.35.42.4l.57.11a1.62,1.62,0,0,1,.91.46,1.21,1.21,0,0,1,.32.82,1.24,1.24,0,0,1-.43.94,1.57,1.57,0,0,1-1.14.4,1.73,1.73,0,0,1-1.25-.41,1.49,1.49,0,0,1-.49-1l.87-.21a.84.84,0,0,0,.24.53.89.89,0,0,0,.64.2.74.74,0,0,0,.44-.12.4.4,0,0,0,.16-.32.34.34,0,0,0-.12-.27.64.64,0,0,0-.34-.16l-.58-.1a1.54,1.54,0,0,1-.85-.44,1.16,1.16,0,0,1-.31-.81,1.25,1.25,0,0,1,.45-1A1.59,1.59,0,0,1,110,9.87a2,2,0,0,1,.67.11,1.24,1.24,0,0,1,.47.27,1.41,1.41,0,0,1,.27.36A1.22,1.22,0,0,1,111.58,11Z" transform="translate(-1.63 -2.59)"/>
    <path class="cls-1" d="M113.6,12.05h1.14V10.88h.76v1.17h1.14v.75H115.5V14h-.76V12.8H113.6Z" transform="translate(-1.63 -2.59)"/>
    <path class="cls-1" d="M118.85,10h1.59a1.4,1.4,0,0,1,1,.32,1,1,0,0,1,.36.82,1,1,0,0,1-.18.57.88.88,0,0,1-.45.34,1,1,0,0,1,.54.34,1,1,0,0,1,.22.66,1.13,1.13,0,0,1-.37.87,1.4,1.4,0,0,1-1,.33h-1.72Zm.92,1.7h.52a.62.62,0,0,0,.4-.12.41.41,0,0,0,.15-.34.4.4,0,0,0-.15-.33.61.61,0,0,0-.41-.12h-.51Zm0,1.78h.6a.63.63,0,0,0,.43-.13.49.49,0,0,0,.16-.37.47.47,0,0,0-.16-.36.63.63,0,0,0-.43-.14h-.6Z" transform="translate(-1.63 -2.59)"/>
    <path class="cls-1" d="M125.25,14.21h-2.7V10h2.7v.89H123.5v.81h1.58v.84H123.5v.81h1.75Z" transform="translate(-1.63 -2.59)"/>
    <path class="cls-1" d="M130.87,14.21h-.93V11.39l-1.11,2.82h-.77L127,11.43v2.78h-.9V10h1.24l1.17,2.87L129.57,10h1.3Z" transform="translate(-1.63 -2.59)"/>
    <path class="cls-1" d="M131.67,13.69a.53.53,0,0,1,.17-.4.6.6,0,0,1,.43-.16.58.58,0,0,1,.48.22.84.84,0,0,1,.17.53,1.64,1.64,0,0,1-.11.6,1.07,1.07,0,0,1-.28.42,1.42,1.42,0,0,1-.37.25,1.27,1.27,0,0,1-.38.11v-.43a.87.87,0,0,0,.41-.22.57.57,0,0,0,.19-.43.26.26,0,0,1-.17.05.53.53,0,0,1-.39-.16A.52.52,0,0,1,131.67,13.69Z" transform="translate(-1.63 -2.59)"/>
    <path class="cls-1" d="M134.85,12.9v-.28l.9-.16v.39a.53.53,0,0,0,.15.41.49.49,0,0,0,.37.14.46.46,0,0,0,.36-.15.56.56,0,0,0,.14-.39V10h.94v2.92a1.39,1.39,0,0,1-1.44,1.42,1.37,1.37,0,0,1-1-.38A1.35,1.35,0,0,1,134.85,12.9Z" transform="translate(-1.63 -2.59)"/>
    <path class="cls-1" d="M141.53,11l-.85.24a.65.65,0,0,0-.2-.36.7.7,0,0,0-.51-.17.64.64,0,0,0-.42.14.39.39,0,0,0-.16.32c0,.22.14.35.42.4l.57.11a1.62,1.62,0,0,1,.91.46,1.21,1.21,0,0,1,.32.82,1.24,1.24,0,0,1-.43.94,1.57,1.57,0,0,1-1.14.4,1.75,1.75,0,0,1-1.25-.41,1.49,1.49,0,0,1-.49-1l.87-.21a.8.8,0,0,0,.25.53.85.85,0,0,0,.63.2.74.74,0,0,0,.44-.12.4.4,0,0,0,.16-.32.34.34,0,0,0-.12-.27.64.64,0,0,0-.34-.16l-.58-.1a1.54,1.54,0,0,1-.85-.44,1.2,1.2,0,0,1-.31-.81,1.25,1.25,0,0,1,.45-1A1.59,1.59,0,0,1,140,9.87a2,2,0,0,1,.67.11,1.24,1.24,0,0,1,.47.27,1.76,1.76,0,0,1,.28.36A1.49,1.49,0,0,1,141.53,11Z" transform="translate(-1.63 -2.59)"/>
    <path class="cls-1" d="M143.79,14.21h-1.53V10h1.54a2.1,2.1,0,0,1,1.55.58,2.07,2.07,0,0,1,.58,1.55,2.07,2.07,0,0,1-.58,1.55A2.14,2.14,0,0,1,143.79,14.21Zm-.58-.89h.55a1.19,1.19,0,0,0,.85-.31,1.22,1.22,0,0,0,.34-.92,1.14,1.14,0,0,0-1.19-1.24h-.55Z" transform="translate(-1.63 -2.59)"/>
    <path class="cls-1" d="M148,11.14a1.54,1.54,0,0,1,1.13.45,1.51,1.51,0,0,1,.45,1.13,1.6,1.6,0,0,1-2.71,1.13,1.64,1.64,0,0,1,0-2.26A1.55,1.55,0,0,1,148,11.14Zm0,2.32a.65.65,0,0,0,.48-.19.89.89,0,0,0,0-1.1.69.69,0,0,0-1,0,.86.86,0,0,0,0,1.1A.64.64,0,0,0,148,13.46Z" transform="translate(-1.63 -2.59)"/>
    <path class="cls-1" d="M151.5,12a.66.66,0,0,0-.49.2.74.74,0,0,0-.2.55.77.77,0,0,0,.2.54.69.69,0,0,0,.5.19.63.63,0,0,0,.4-.12.69.69,0,0,0,.22-.32l.8.25a1.38,1.38,0,0,1-.48.73,1.47,1.47,0,0,1-.94.3,1.57,1.57,0,0,1-1.14-.44,1.51,1.51,0,0,1-.46-1.13,1.54,1.54,0,0,1,1.57-1.59,1.46,1.46,0,0,1,1,.3,1.33,1.33,0,0,1,.48.74l-.81.25a.64.64,0,0,0-.21-.32A.56.56,0,0,0,151.5,12Z" transform="translate(-1.63 -2.59)"/>
    <path class="cls-1" d="M153.38,13.69a.5.5,0,0,1,.17-.4.63.63,0,0,1,.9.06.79.79,0,0,1,.17.53,1.64,1.64,0,0,1-.1.6,1.21,1.21,0,0,1-.29.42,1.42,1.42,0,0,1-.37.25,1.27,1.27,0,0,1-.38.11v-.43a.83.83,0,0,0,.41-.22.57.57,0,0,0,.19-.43.23.23,0,0,1-.16.05.52.52,0,0,1-.39-.16A.48.48,0,0,1,153.38,13.69Z" transform="translate(-1.63 -2.59)"/>
    <path class="cls-1" d="M158.86,14.3a2.15,2.15,0,0,1-1.57-.61,2.09,2.09,0,0,1-.64-1.59,2.17,2.17,0,0,1,2.2-2.23,2.35,2.35,0,0,1,.82.14,1.59,1.59,0,0,1,.6.35,2.14,2.14,0,0,1,.36.46,1.53,1.53,0,0,1,.2.48l-.9.29a1.06,1.06,0,0,0-.09-.25,1.38,1.38,0,0,0-.19-.25.78.78,0,0,0-.33-.21,1.19,1.19,0,0,0-.47-.09,1.24,1.24,0,0,0-.85.34,1.28,1.28,0,0,0-.37,1A1.18,1.18,0,0,0,158,13a1.22,1.22,0,0,0,.87.35,1.08,1.08,0,0,0,1.11-.8l.91.26a1.92,1.92,0,0,1-.19.48,2.58,2.58,0,0,1-.37.48,1.82,1.82,0,0,1-.61.38A2.33,2.33,0,0,1,158.86,14.3Z" transform="translate(-1.63 -2.59)"/>
    <path class="cls-1" d="M164.46,11l-.86.24a.64.64,0,0,0-.19-.36.73.73,0,0,0-.51-.17.61.61,0,0,0-.42.14.4.4,0,0,0-.17.32c0,.22.14.35.42.4l.57.11a1.55,1.55,0,0,1,.91.46,1.16,1.16,0,0,1,.32.82,1.26,1.26,0,0,1-.42.94,1.61,1.61,0,0,1-1.15.4,1.72,1.72,0,0,1-1.24-.41,1.51,1.51,0,0,1-.5-1l.87-.21a.85.85,0,0,0,.25.53.88.88,0,0,0,.63.2.72.72,0,0,0,.44-.12.38.38,0,0,0,.16-.32.34.34,0,0,0-.12-.27.64.64,0,0,0-.33-.16l-.58-.1a1.51,1.51,0,0,1-.85-.44,1.16,1.16,0,0,1-.31-.81,1.25,1.25,0,0,1,.45-1,1.59,1.59,0,0,1,1.07-.39,2.06,2.06,0,0,1,.68.11,1.32,1.32,0,0,1,.47.27,1.69,1.69,0,0,1,.27.36A1.53,1.53,0,0,1,164.46,11Z" transform="translate(-1.63 -2.59)"/>
    <path class="cls-1" d="M168.11,11l-.85.24a.65.65,0,0,0-.2-.36.7.7,0,0,0-.51-.17.64.64,0,0,0-.42.14.39.39,0,0,0-.16.32c0,.22.14.35.42.4l.57.11a1.62,1.62,0,0,1,.91.46,1.21,1.21,0,0,1,.32.82,1.24,1.24,0,0,1-.43.94,1.57,1.57,0,0,1-1.14.4,1.75,1.75,0,0,1-1.25-.41,1.49,1.49,0,0,1-.49-1l.87-.21a.8.8,0,0,0,.25.53.85.85,0,0,0,.63.2.74.74,0,0,0,.44-.12.4.4,0,0,0,.16-.32.34.34,0,0,0-.12-.27.64.64,0,0,0-.34-.16l-.58-.1a1.54,1.54,0,0,1-.85-.44,1.2,1.2,0,0,1-.31-.81,1.25,1.25,0,0,1,.45-1,1.59,1.59,0,0,1,1.08-.39,2,2,0,0,1,.67.11,1.24,1.24,0,0,1,.47.27,1.76,1.76,0,0,1,.28.36A1.49,1.49,0,0,1,168.11,11Z" transform="translate(-1.63 -2.59)"/>
    <path class="cls-1" d="M168.66,13.69a.53.53,0,0,1,.17-.4.6.6,0,0,1,.43-.16.58.58,0,0,1,.48.22.84.84,0,0,1,.17.53,1.46,1.46,0,0,1-.11.6,1.07,1.07,0,0,1-.28.42,1.42,1.42,0,0,1-.37.25,1.27,1.27,0,0,1-.38.11v-.43a.83.83,0,0,0,.41-.22.57.57,0,0,0,.19-.43.26.26,0,0,1-.17.05.53.53,0,0,1-.39-.16A.52.52,0,0,1,168.66,13.69Z" transform="translate(-1.63 -2.59)"/>
    <path class="cls-1" d="M175.78,14.21h-.95V12.52h-1.7v1.69h-.95V10h.95v1.67h1.7V10h.95Z" transform="translate(-1.63 -2.59)"/>
    <path class="cls-1" d="M179.92,10.87h-1.31v3.34h-1V10.87h-1.31V10h3.57Z" transform="translate(-1.63 -2.59)"/>
    <path class="cls-1" d="M185.32,14.21h-.93V11.39l-1.11,2.82h-.77l-1.11-2.78v2.78h-.9V10h1.24l1.17,2.87L184,10h1.3Z" transform="translate(-1.63 -2.59)"/>
    <path class="cls-1" d="M189,14.21h-2.79V10h.95v3.35H189Z" transform="translate(-1.63 -2.59)"/>
    <path class="cls-1" d="M189.58,13.69a.5.5,0,0,1,.17-.4.57.57,0,0,1,.43-.16.55.55,0,0,1,.47.22.79.79,0,0,1,.18.53,1.64,1.64,0,0,1-.11.6,1.09,1.09,0,0,1-.29.42,1.56,1.56,0,0,1-.36.25,1.47,1.47,0,0,1-.38.11v-.43a.84.84,0,0,0,.4-.22.58.58,0,0,0,.2-.43.29.29,0,0,1-.17.05.53.53,0,0,1-.39-.16A.52.52,0,0,1,189.58,13.69Z" transform="translate(-1.63 -2.59)"/>
    <path class="cls-1" d="M197,14.21h-.77l-.06-.43a1.16,1.16,0,0,1-.46.37,1.64,1.64,0,0,1-.73.15,2.11,2.11,0,0,1-1.54-.61,2.16,2.16,0,0,1-.62-1.6,2.14,2.14,0,0,1,.65-1.6,2.19,2.19,0,0,1,1.57-.62,2,2,0,0,1,1.31.39,2,2,0,0,1,.66.92l-.92.32a1,1,0,0,0-.32-.5,1.05,1.05,0,0,0-.73-.24,1.28,1.28,0,0,0-.88.34,1.25,1.25,0,0,0-.38,1,1.29,1.29,0,0,0,.37,1,1.24,1.24,0,0,0,.91.36,1.08,1.08,0,0,0,.73-.22.89.89,0,0,0,.32-.48h-1.28v-.8H197Z" transform="translate(-1.63 -2.59)"/>
    <path class="cls-1" d="M197.84,10.7a.53.53,0,0,1,.38-.91.55.55,0,0,1,.38.15.53.53,0,0,1,0,.76.55.55,0,0,1-.38.15A.54.54,0,0,1,197.84,10.7Zm.84,3.51h-.91v-3h.91Z" transform="translate(-1.63 -2.59)"/>
    <path class="cls-1" d="M200.57,10.36v.87h.58V12h-.58v1.12c0,.2.11.31.33.31l.24,0v.75a1,1,0,0,1-.48.09,1,1,0,0,1-.72-.26.93.93,0,0,1-.27-.7V12h-.53v-.8h.15a.41.41,0,0,0,.34-.13.51.51,0,0,0,.12-.35v-.39Z" transform="translate(-1.63 -2.59)"/>
    <path class="cls-1" d="M201.71,13.69a.53.53,0,0,1,.17-.4.59.59,0,0,1,.43-.16.55.55,0,0,1,.47.22.79.79,0,0,1,.18.53,1.64,1.64,0,0,1-.11.6,1.09,1.09,0,0,1-.29.42,1.38,1.38,0,0,1-.36.25,1.47,1.47,0,0,1-.38.11v-.43a.84.84,0,0,0,.4-.22.58.58,0,0,0,.2-.43.29.29,0,0,1-.17.05.53.53,0,0,1-.39-.16A.52.52,0,0,1,201.71,13.69Z" transform="translate(-1.63 -2.59)"/>
    <path class="cls-1" d="M206.08,12.5v1.71h-.91v-3h.88v.34a.74.74,0,0,1,.35-.3,1.07,1.07,0,0,1,.49-.12,1,1,0,0,1,.81.34,1.29,1.29,0,0,1,.27.85v1.87h-.91V12.5a.58.58,0,0,0-.12-.38.5.5,0,0,0-.37-.14.45.45,0,0,0-.35.15A.53.53,0,0,0,206.08,12.5Z" transform="translate(-1.63 -2.59)"/>
    <path class="cls-1" d="M209.65,15.35h-.91V11.23h.88v.31a.8.8,0,0,1,.34-.27,1.33,1.33,0,0,1,.54-.11,1.27,1.27,0,0,1,1,.44,1.64,1.64,0,0,1,.37,1.11,1.63,1.63,0,0,1-.39,1.13,1.34,1.34,0,0,1-1,.44,1,1,0,0,1-.81-.3Zm1.14-2.08a.86.86,0,0,0,0-1.1.67.67,0,0,0-.48-.19.69.69,0,0,0-.48.19.89.89,0,0,0,0,1.1.65.65,0,0,0,.48.19A.63.63,0,0,0,210.79,13.27Z" transform="translate(-1.63 -2.59)"/>
    <path class="cls-1" d="M213.38,14.21h-.91v-3h.87v.34a.8.8,0,0,1,.36-.31,1.15,1.15,0,0,1,.5-.12.9.9,0,0,1,.88.47,1.08,1.08,0,0,1,.93-.47,1.12,1.12,0,0,1,.78.29,1.09,1.09,0,0,1,.32.85v1.93h-.88V12.49a.57.57,0,0,0-.12-.37.52.52,0,0,0-.72,0,.52.52,0,0,0-.13.36v1.72h-.9V12.49a.52.52,0,0,0-.13-.37.45.45,0,0,0-.35-.14.43.43,0,0,0-.36.15.53.53,0,0,0-.14.37Z" transform="translate(-1.63 -2.59)"/>
    <path class="cls-1" d="M1.82,21.58l.81-.23a.57.57,0,0,0,.22.36.59.59,0,0,0,.42.14A.66.66,0,0,0,4,21.09V21a.88.88,0,0,1-.8.34,1.29,1.29,0,0,1-1-.42,1.53,1.53,0,0,1,0-2.06,1.27,1.27,0,0,1,1-.43,1.2,1.2,0,0,1,.54.11.68.68,0,0,1,.29.26v-.32h.87V21a1.69,1.69,0,0,1-.4,1.15,1.53,1.53,0,0,1-1.2.45,1.61,1.61,0,0,1-1-.31A1.18,1.18,0,0,1,1.82,21.58Zm1.1-1.26a.62.62,0,0,0,.46.18.62.62,0,0,0,.46-.18A.69.69,0,0,0,4,19.84a.64.64,0,1,0-1.09.48Z" transform="translate(-1.63 -2.59)"/>
    <path class="cls-1" d="M5.75,17.9A.53.53,0,0,1,6.13,17a.55.55,0,0,1,.38.15.53.53,0,0,1,0,.76.55.55,0,0,1-.38.15A.54.54,0,0,1,5.75,17.9Zm.84,3.51H5.68v-3h.91Z" transform="translate(-1.63 -2.59)"/>
    <path class="cls-1" d="M8.48,17.56v.87h.58v.8H8.48v1.12c0,.2.11.31.33.31l.24,0v.75a1,1,0,0,1-.48.09,1,1,0,0,1-.73-.26,1,1,0,0,1-.26-.7V19.23H7.05v-.8H7.2a.41.41,0,0,0,.34-.13A.51.51,0,0,0,7.66,18v-.39Z" transform="translate(-1.63 -2.59)"/>
    <path class="cls-1" d="M10.4,19.66v1.75H9.49V17.07h.91v1.55a1,1,0,0,1,.76-.27,1.05,1.05,0,0,1,.84.34,1.25,1.25,0,0,1,.29.85v1.87h-.91V19.7a.58.58,0,0,0-.13-.38.46.46,0,0,0-.36-.14.48.48,0,0,0-.35.14A.55.55,0,0,0,10.4,19.66Z" transform="translate(-1.63 -2.59)"/>
    <path class="cls-1" d="M15,21.41a1.15,1.15,0,0,1,0-.3.66.66,0,0,1-.33.28,1.23,1.23,0,0,1-.47.09,1.07,1.07,0,0,1-.83-.33,1.19,1.19,0,0,1-.3-.83V18.43h.91v1.69a.53.53,0,0,0,.13.38.45.45,0,0,0,.35.14.47.47,0,0,0,.36-.14.51.51,0,0,0,.14-.37v-1.7h.91v2.45a4.22,4.22,0,0,0,0,.53Z" transform="translate(-1.63 -2.59)"/>
    <path class="cls-1" d="M17.51,21.41h-.88V17.07h.89v1.64a.77.77,0,0,1,.34-.25,1.24,1.24,0,0,1,.52-.1,1.28,1.28,0,0,1,1,.44,1.64,1.64,0,0,1,.37,1.11,1.59,1.59,0,0,1-.4,1.13,1.34,1.34,0,0,1-1,.44,1.19,1.19,0,0,1-.51-.11.73.73,0,0,1-.33-.29Zm1.35-1.49a.78.78,0,0,0-.19-.55.71.71,0,0,0-1,0,.74.74,0,0,0-.19.55.7.7,0,0,0,.2.55.65.65,0,0,0,.48.19.64.64,0,0,0,.47-.19A.74.74,0,0,0,18.86,19.92Z" transform="translate(-1.63 -2.59)"/>
    <path class="cls-1" d="M20.38,21.29a.62.62,0,0,1-.18-.44.58.58,0,0,1,.18-.43.6.6,0,0,1,.43-.18.6.6,0,0,1,.44.18.58.58,0,0,1,.18.43.6.6,0,0,1-.18.43.58.58,0,0,1-.44.19A.6.6,0,0,1,20.38,21.29Z" transform="translate(-1.63 -2.59)"/>
    <path class="cls-1" d="M23.45,19.18a.68.68,0,0,0-.49.2.74.74,0,0,0-.19.55.77.77,0,0,0,.2.54.68.68,0,0,0,.5.19.65.65,0,0,0,.4-.12.6.6,0,0,0,.21-.32l.81.25a1.4,1.4,0,0,1-.49.73,1.44,1.44,0,0,1-.93.3,1.57,1.57,0,0,1-1.14-.44,1.58,1.58,0,0,1,1.11-2.72,1.48,1.48,0,0,1,.95.3,1.33,1.33,0,0,1,.48.74l-.82.25a.58.58,0,0,0-.6-.45Z" transform="translate(-1.63 -2.59)"/>
    <path class="cls-1" d="M26.78,18.34a1.52,1.52,0,0,1,1.13.45,1.48,1.48,0,0,1,.46,1.13,1.54,1.54,0,0,1-1.59,1.58,1.53,1.53,0,0,1-1.12-.45,1.62,1.62,0,0,1,0-2.26A1.53,1.53,0,0,1,26.78,18.34Zm0,2.32a.65.65,0,0,0,.48-.19.86.86,0,0,0,0-1.1.69.69,0,0,0-1,0,.86.86,0,0,0,0,1.1A.64.64,0,0,0,26.78,20.66Z" transform="translate(-1.63 -2.59)"/>
    <path class="cls-1" d="M29.87,21.41H29v-3h.87v.34a.83.83,0,0,1,.35-.31,1.18,1.18,0,0,1,.5-.12.92.92,0,0,1,.89.47,1,1,0,0,1,.92-.47,1.17,1.17,0,0,1,.79.29,1.08,1.08,0,0,1,.31.85v1.93h-.88V19.69a.57.57,0,0,0-.12-.37.45.45,0,0,0-.35-.14.47.47,0,0,0-.37.15.52.52,0,0,0-.13.36v1.72h-.9V19.69a.57.57,0,0,0-.12-.37.47.47,0,0,0-.36-.14.46.46,0,0,0-.36.15.52.52,0,0,0-.13.37Z" transform="translate(-1.63 -2.59)"/>
    <path class="cls-1" d="M36.93,17.08,34.77,21.5H34l2.15-4.42Z" transform="translate(-1.63 -2.59)"/>
    <path class="cls-1" d="M36.5,20.57l.77-.14a.46.46,0,0,0,.13.29.5.5,0,0,0,.34.11.4.4,0,0,0,.26-.07.23.23,0,0,0,.09-.19q0-.18-.3-.24l-.34-.08a1.18,1.18,0,0,1-.67-.34.85.85,0,0,1-.22-.58.9.9,0,0,1,.33-.7,1.21,1.21,0,0,1,.82-.29,1.23,1.23,0,0,1,.87.28.94.94,0,0,1,.32.61l-.75.14A.43.43,0,0,0,38,19.1a.45.45,0,0,0-.3-.1.45.45,0,0,0-.23.07.23.23,0,0,0-.09.19c0,.12.08.19.23.22l.4.08a1.19,1.19,0,0,1,.68.34.85.85,0,0,1,.24.6,1,1,0,0,1-.32.71,1.19,1.19,0,0,1-.87.29,1.78,1.78,0,0,1-.59-.09,1,1,0,0,1-.59-.55A.84.84,0,0,1,36.5,20.57Z" transform="translate(-1.63 -2.59)"/>
    <path class="cls-1" d="M40.45,21.41h-.91V17.07h.91Z" transform="translate(-1.63 -2.59)"/>
    <path class="cls-1" d="M43.21,20.34l.76.22a1.3,1.3,0,0,1-.48.68,1.45,1.45,0,0,1-.9.26,1.61,1.61,0,0,1-1.11-2.72,1.44,1.44,0,0,1,1.05-.44,1.46,1.46,0,0,1,1.09.41,1.51,1.51,0,0,1,.4,1.12.84.84,0,0,1,0,.28H41.93a.57.57,0,0,0,.21.42.71.71,0,0,0,.47.16A.58.58,0,0,0,43.21,20.34ZM42,19.57h1.19a.54.54,0,0,0-.16-.36.59.59,0,0,0-.44-.15.54.54,0,0,0-.42.16A.55.55,0,0,0,42,19.57Z" transform="translate(-1.63 -2.59)"/>
    <path class="cls-1" d="M46.56,20.34l.76.22a1.23,1.23,0,0,1-.47.68,1.45,1.45,0,0,1-.9.26,1.52,1.52,0,0,1-1.1-.43,1.5,1.5,0,0,1-.46-1.16,1.54,1.54,0,0,1,.44-1.13,1.57,1.57,0,0,1,2.15,0,1.55,1.55,0,0,1,.4,1.12,1.28,1.28,0,0,1,0,.28H45.28a.57.57,0,0,0,.21.42.71.71,0,0,0,.47.16A.57.57,0,0,0,46.56,20.34Zm-1.26-.77h1.19a.5.5,0,0,0-.16-.36.57.57,0,0,0-.44-.15.57.57,0,0,0-.42.16A.55.55,0,0,0,45.3,19.57Z" transform="translate(-1.63 -2.59)"/>
    <path class="cls-1" d="M48.88,22.55H48V18.43h.89v.31a.76.76,0,0,1,.33-.27,1.33,1.33,0,0,1,.54-.11,1.26,1.26,0,0,1,1,.44,1.8,1.8,0,0,1,0,2.24,1.34,1.34,0,0,1-1,.44,1,1,0,0,1-.81-.3ZM50,20.47a.89.89,0,0,0,0-1.1.7.7,0,0,0-1,0,.86.86,0,0,0,0,1.1.7.7,0,0,0,1,0Z" transform="translate(-1.63 -2.59)"/>
    <path class="cls-1" d="M52.61,21.41H51.7V17.07h.91Z" transform="translate(-1.63 -2.59)"/>
    <path class="cls-1" d="M55.36,20.34l.76.22a1.23,1.23,0,0,1-.47.68,1.45,1.45,0,0,1-.9.26,1.51,1.51,0,0,1-1.55-1.59,1.5,1.5,0,0,1,.44-1.13,1.43,1.43,0,0,1,1-.44,1.48,1.48,0,0,1,1.1.41,1.55,1.55,0,0,1,.4,1.12,1.28,1.28,0,0,1,0,.28H54.08a.57.57,0,0,0,.21.42.72.72,0,0,0,.47.16A.57.57,0,0,0,55.36,20.34Zm-1.26-.77h1.2a.54.54,0,0,0-.6-.51.54.54,0,0,0-.42.16A.52.52,0,0,0,54.1,19.57Z" transform="translate(-1.63 -2.59)"/>
    <path class="cls-1" d="M56.52,20.57l.77-.14a.46.46,0,0,0,.13.29.5.5,0,0,0,.34.11.4.4,0,0,0,.26-.07.23.23,0,0,0,.09-.19c0-.12-.1-.2-.29-.24l-.35-.08a1.22,1.22,0,0,1-.67-.34.84.84,0,0,1-.21-.58.89.89,0,0,1,.32-.7,1.21,1.21,0,0,1,.82-.29,1.23,1.23,0,0,1,.87.28,1,1,0,0,1,.33.61l-.76.14a.42.42,0,0,0-.12-.27.46.46,0,0,0-.31-.1.41.41,0,0,0-.22.07.22.22,0,0,0-.1.19c0,.12.08.19.23.22l.4.08a1.19,1.19,0,0,1,.68.34.85.85,0,0,1,.24.6,1,1,0,0,1-.31.71,1.22,1.22,0,0,1-.88.29,1.78,1.78,0,0,1-.59-.09,1.05,1.05,0,0,1-.39-.25,1.31,1.31,0,0,1-.2-.3A.84.84,0,0,1,56.52,20.57Z" transform="translate(-1.63 -2.59)"/>
    <path class="cls-1" d="M59.31,20.57l.78-.14a.46.46,0,0,0,.13.29.5.5,0,0,0,.34.11.36.36,0,0,0,.25-.07.22.22,0,0,0,.1-.19q0-.18-.3-.24l-.34-.08a1.18,1.18,0,0,1-.67-.34.81.81,0,0,1-.22-.58.9.9,0,0,1,.33-.7,1.21,1.21,0,0,1,.82-.29,1.23,1.23,0,0,1,.87.28,1,1,0,0,1,.32.61l-.75.14a.49.49,0,0,0-.13-.27.45.45,0,0,0-.3-.1.45.45,0,0,0-.23.07.23.23,0,0,0-.09.19c0,.12.07.19.23.22l.4.08a1.22,1.22,0,0,1,.68.34.84.84,0,0,1,.23.6,1,1,0,0,1-.31.71,1.21,1.21,0,0,1-.87.29,1.74,1.74,0,0,1-.59-.09,1,1,0,0,1-.59-.55A.88.88,0,0,1,59.31,20.57Z" transform="translate(-1.63 -2.59)"/>
    <path class="cls-1" d="M62.14,21.58l.81-.23a.6.6,0,0,0,.21.36.64.64,0,0,0,.43.14.66.66,0,0,0,.74-.76V21a.88.88,0,0,1-.8.34,1.29,1.29,0,0,1-1-.42,1.4,1.4,0,0,1-.4-1,1.47,1.47,0,0,1,.39-1,1.3,1.3,0,0,1,1-.43,1.2,1.2,0,0,1,.54.11.65.65,0,0,1,.28.26v-.32h.88V21a1.65,1.65,0,0,1-.41,1.15,1.5,1.5,0,0,1-1.19.45,1.61,1.61,0,0,1-1-.31A1.18,1.18,0,0,1,62.14,21.58Zm1.09-1.26a.64.64,0,0,0,.47.18.6.6,0,0,0,.45-.18.66.66,0,0,0-.91-1,.66.66,0,0,0-.19.48A.65.65,0,0,0,63.23,20.32Z" transform="translate(-1.63 -2.59)"/>
    <path class="cls-1" d="M66.91,21.41H66V17.07h.92Z" transform="translate(-1.63 -2.59)"/>
    <path class="cls-1" d="M69.08,18.34a1.54,1.54,0,0,1,1.13.45,1.51,1.51,0,0,1,.45,1.13,1.6,1.6,0,1,1-1.58-1.58Zm0,2.32a.63.63,0,0,0,.47-.19.86.86,0,0,0,0-1.1.67.67,0,0,0-.47-.19.71.71,0,0,0-.48.19.89.89,0,0,0,0,1.1A.66.66,0,0,0,69.08,20.66Z" transform="translate(-1.63 -2.59)"/>
    <path class="cls-1" d="M73.15,18.43v.9a1.29,1.29,0,0,0-.29,0,.67.67,0,0,0-.5.2.84.84,0,0,0-.2.61v1.3h-.91v-3h.88v.4a.66.66,0,0,1,.33-.33,1.22,1.22,0,0,1,.45-.1A.88.88,0,0,1,73.15,18.43Z" transform="translate(-1.63 -2.59)"/>
    <path class="cls-1" d="M75,22.56h-1L74.73,21l-1.25-2.58h1l.72,1.6.66-1.6h1Z" transform="translate(-1.63 -2.59)"/>
    <path class="cls-1" d="M79.6,17.08,77.44,21.5h-.81l2.15-4.42Z" transform="translate(-1.63 -2.59)"/>
    <path class="cls-1" d="M80.6,19.18a.68.68,0,0,0-.49.2.74.74,0,0,0-.19.55.77.77,0,0,0,.2.54.68.68,0,0,0,.5.19.65.65,0,0,0,.4-.12.6.6,0,0,0,.21-.32l.81.25a1.4,1.4,0,0,1-.49.73,1.44,1.44,0,0,1-.93.3,1.57,1.57,0,0,1-1.14-.44,1.58,1.58,0,0,1,1.1-2.72,1.49,1.49,0,0,1,1,.3,1.33,1.33,0,0,1,.48.74l-.82.25a.58.58,0,0,0-.6-.45Z" transform="translate(-1.63 -2.59)"/>
    <path class="cls-1" d="M83.93,18.34a1.54,1.54,0,0,1,1.13.45,1.48,1.48,0,0,1,.46,1.13,1.54,1.54,0,0,1-1.59,1.58,1.55,1.55,0,0,1-1.13-.45,1.64,1.64,0,0,1,0-2.26A1.55,1.55,0,0,1,83.93,18.34Zm0,2.32a.65.65,0,0,0,.48-.19.89.89,0,0,0,0-1.1.69.69,0,0,0-1,0,.86.86,0,0,0,0,1.1A.64.64,0,0,0,83.93,20.66Z" transform="translate(-1.63 -2.59)"/>
    <path class="cls-1" d="M87,21.41H86.1v-3H87v.34a.92.92,0,0,1,.36-.31,1.15,1.15,0,0,1,.5-.12.9.9,0,0,1,.88.47,1.08,1.08,0,0,1,.93-.47,1.12,1.12,0,0,1,.78.29,1.05,1.05,0,0,1,.32.85v1.93h-.88V19.69a.57.57,0,0,0-.12-.37.45.45,0,0,0-.35-.14.47.47,0,0,0-.37.15.52.52,0,0,0-.13.36v1.72H88V19.69a.57.57,0,0,0-.12-.37.49.49,0,0,0-.36-.14.46.46,0,0,0-.36.15.52.52,0,0,0-.13.37Z" transform="translate(-1.63 -2.59)"/>
    <path class="cls-1" d="M92.42,22.55h-.91V18.43h.88v.31a.8.8,0,0,1,.34-.27,1.33,1.33,0,0,1,.54-.11,1.27,1.27,0,0,1,1,.44,1.84,1.84,0,0,1,0,2.24,1.34,1.34,0,0,1-1,.44,1,1,0,0,1-.81-.3Zm1.15-2.08a.89.89,0,0,0,0-1.1.71.71,0,0,0-.49-.19.67.67,0,0,0-.47.19.86.86,0,0,0,0,1.1.63.63,0,0,0,.47.19A.67.67,0,0,0,93.57,20.47Z" transform="translate(-1.63 -2.59)"/>
    <path class="cls-1" d="M97.19,20.34l.76.22a1.23,1.23,0,0,1-.47.68,1.45,1.45,0,0,1-.9.26A1.51,1.51,0,0,1,95,19.91a1.5,1.5,0,0,1,.44-1.13,1.43,1.43,0,0,1,1-.44,1.48,1.48,0,0,1,1.1.41,1.51,1.51,0,0,1,.4,1.12,1.28,1.28,0,0,1,0,.28H95.91a.57.57,0,0,0,.21.42.72.72,0,0,0,.47.16A.57.57,0,0,0,97.19,20.34Zm-1.26-.77h1.2a.54.54,0,0,0-.16-.36.6.6,0,0,0-.44-.15.54.54,0,0,0-.42.16A.52.52,0,0,0,95.93,19.57Z" transform="translate(-1.63 -2.59)"/>
    <path class="cls-1" d="M99.69,17.56v.87h.58v.8h-.58v1.12c0,.2.11.31.33.31l.24,0v.75a1,1,0,0,1-.48.09,1,1,0,0,1-.72-.26.93.93,0,0,1-.27-.7V19.23h-.53v-.8h.15a.45.45,0,0,0,.35-.13.56.56,0,0,0,.11-.35v-.39Z" transform="translate(-1.63 -2.59)"/>
    <path class="cls-1" d="M101,17.9a.53.53,0,0,1,0-.76.5.5,0,0,1,.37-.15.54.54,0,0,1,.38.15.53.53,0,0,1,0,.76.54.54,0,0,1-.38.15A.5.5,0,0,1,101,17.9Zm.83,3.51h-.91v-3h.91Z" transform="translate(-1.63 -2.59)"/>
    <path class="cls-1" d="M103.72,17.56v.87h.58v.8h-.58v1.12c0,.2.11.31.33.31l.24,0v.75a1,1,0,0,1-.47.09,1,1,0,0,1-.73-.26.93.93,0,0,1-.27-.7V19.23h-.53v-.8h.15a.45.45,0,0,0,.35-.13.51.51,0,0,0,.11-.35v-.39Z" transform="translate(-1.63 -2.59)"/>
    <path class="cls-1" d="M105,17.9a.53.53,0,0,1,0-.76.51.51,0,0,1,.37-.15.52.52,0,0,1,.38.15.53.53,0,0,1,0,.76.52.52,0,0,1-.38.15A.51.51,0,0,1,105,17.9Zm.83,3.51H105v-3h.91Z" transform="translate(-1.63 -2.59)"/>
    <path class="cls-1" d="M108,18.34a1.54,1.54,0,0,1,1.13.45,1.51,1.51,0,0,1,.45,1.13A1.6,1.6,0,1,1,108,18.34Zm0,2.32a.65.65,0,0,0,.48-.19.89.89,0,0,0,0-1.1.69.69,0,0,0-.48-.19.71.71,0,0,0-.48.19.89.89,0,0,0,0,1.1A.66.66,0,0,0,108,20.66Z" transform="translate(-1.63 -2.59)"/>
    <path class="cls-1" d="M111.11,19.7v1.71h-.91v-3h.88v.34a.79.79,0,0,1,.35-.3,1.07,1.07,0,0,1,.49-.12,1,1,0,0,1,.81.34,1.29,1.29,0,0,1,.27.85v1.87h-.91V19.7a.58.58,0,0,0-.12-.38.48.48,0,0,0-.37-.14.45.45,0,0,0-.35.15A.53.53,0,0,0,111.11,19.7Z" transform="translate(-1.63 -2.59)"/>
    <path class="cls-1" d="M115.44,20h-1.8v-.83h1.8Z" transform="translate(-1.63 -2.59)"/>
    <path class="cls-1" d="M118,18.43v.9a1.29,1.29,0,0,0-.29,0,.67.67,0,0,0-.5.2.84.84,0,0,0-.2.61v1.3h-.91v-3H117v.4a.7.7,0,0,1,.33-.33,1.22,1.22,0,0,1,.45-.1A.88.88,0,0,1,118,18.43Z" transform="translate(-1.63 -2.59)"/>
    <path class="cls-1" d="M120.47,20.34l.76.22a1.23,1.23,0,0,1-.47.68,1.45,1.45,0,0,1-.9.26,1.51,1.51,0,0,1-1.55-1.59,1.5,1.5,0,0,1,.44-1.13,1.43,1.43,0,0,1,1-.44,1.48,1.48,0,0,1,1.1.41,1.51,1.51,0,0,1,.4,1.12,1.28,1.28,0,0,1,0,.28h-2.08a.57.57,0,0,0,.21.42.72.72,0,0,0,.47.16A.57.57,0,0,0,120.47,20.34Zm-1.26-.77h1.2a.54.54,0,0,0-.6-.51.54.54,0,0,0-.42.16A.52.52,0,0,0,119.21,19.57Z" transform="translate(-1.63 -2.59)"/>
    <path class="cls-1" d="M123.25,19.18a.66.66,0,0,0-.49.2.74.74,0,0,0-.19.55.72.72,0,0,0,.2.54.74.74,0,0,0,.9.07.75.75,0,0,0,.21-.32l.8.25a1.38,1.38,0,0,1-.48.73,1.45,1.45,0,0,1-.94.3,1.53,1.53,0,0,1-1.13-.44,1.48,1.48,0,0,1-.47-1.13,1.54,1.54,0,0,1,1.57-1.59,1.49,1.49,0,0,1,1,.3,1.45,1.45,0,0,1,.48.74l-.82.25a.63.63,0,0,0-.2-.32A.58.58,0,0,0,123.25,19.18Z" transform="translate(-1.63 -2.59)"/>
    <path class="cls-1" d="M126.58,18.34a1.54,1.54,0,0,1,1.13.45,1.51,1.51,0,0,1,.45,1.13,1.6,1.6,0,0,1-2.71,1.13,1.64,1.64,0,0,1,0-2.26A1.55,1.55,0,0,1,126.58,18.34Zm0,2.32a.65.65,0,0,0,.48-.19.89.89,0,0,0,0-1.1.69.69,0,0,0-1,0,.86.86,0,0,0,0,1.1A.64.64,0,0,0,126.58,20.66Z" transform="translate(-1.63 -2.59)"/>
    <path class="cls-1" d="M130.65,18.43v.9a1.29,1.29,0,0,0-.29,0,.69.69,0,0,0-.5.2.84.84,0,0,0-.19.61v1.3h-.92v-3h.88v.4a.75.75,0,0,1,.33-.33,1.22,1.22,0,0,1,.45-.1A.88.88,0,0,1,130.65,18.43Z" transform="translate(-1.63 -2.59)"/>
    <path class="cls-1" d="M134.1,17.07v3.81c0,.18,0,.36,0,.53h-.87a1.33,1.33,0,0,1,0-.28.75.75,0,0,1-.32.25,1.06,1.06,0,0,1-.48.1,1.4,1.4,0,0,1-1-.44,1.72,1.72,0,0,1,0-2.24,1.34,1.34,0,0,1,1-.44.88.88,0,0,1,.81.31v-1.6Zm-2,2.3a.89.89,0,0,0,0,1.1.7.7,0,0,0,1,0,.89.89,0,0,0,0-1.1.7.7,0,0,0-1,0Z" transform="translate(-1.63 -2.59)"/>
    <path class="cls-1" d="M134.67,20.57l.78-.14a.46.46,0,0,0,.13.29.5.5,0,0,0,.34.11.37.37,0,0,0,.25-.07.23.23,0,0,0,.09-.19c0-.12-.09-.2-.29-.24l-.34-.08a1.15,1.15,0,0,1-.67-.34.81.81,0,0,1-.22-.58.9.9,0,0,1,.33-.7,1.21,1.21,0,0,1,.82-.29,1.24,1.24,0,0,1,.87.28,1,1,0,0,1,.32.61l-.76.14a.42.42,0,0,0-.12-.27.45.45,0,0,0-.3-.1.42.42,0,0,0-.23.07.24.24,0,0,0-.1.19c0,.12.08.19.24.22l.39.08a1.25,1.25,0,0,1,.69.34.88.88,0,0,1,.23.6,1,1,0,0,1-.31.71,1.22,1.22,0,0,1-.88.29,1.72,1.72,0,0,1-.58-.09,1,1,0,0,1-.59-.55A.88.88,0,0,1,134.67,20.57Z" transform="translate(-1.63 -2.59)"/>
    <path class="cls-1" d="M1.63,23.54v-.48H137.31v.48Z" transform="translate(-1.63 -2.59)"/>
  </g>
</svg>
