<svg id="Layer_1" data-name="Layer 1" xmlns="http://www.w3.org/2000/svg" xmlns:xlink="http://www.w3.org/1999/xlink" viewBox="0 0 1440 778.76">
  <defs>
    <style>
      .cls-1 {
        fill: #08009f;
      }
    </style>
  </defs>
  <title>P1</title>
  <image width="1920" height="942" transform="translate(0 72.26) scale(0.75)" xlink:href="../../../Downloads/P1.png"/>
  <g>
    <path class="cls-1" d="M517.19,425.74l6.3-1.79a4.82,4.82,0,0,0,1.71,2.82,5.13,5.13,0,0,0,3.32,1.08q5.78,0,5.78-6V420.8c-1.16,1.76-3.24,2.63-6.25,2.63a10.31,10.31,0,0,1-7.76-3.24,11.32,11.32,0,0,1-3.1-8.13,11.53,11.53,0,0,1,3.08-8.06,10.09,10.09,0,0,1,7.78-3.36,8.91,8.91,0,0,1,4.23.89,5.38,5.38,0,0,1,2.25,2v-2.49h6.82v20.45a13.07,13.07,0,0,1-3.15,9q-3.15,3.54-9.35,3.55a12.63,12.63,0,0,1-8-2.47A9.14,9.14,0,0,1,517.19,425.74Zm8.56-9.92a4.88,4.88,0,0,0,3.61,1.41,4.81,4.81,0,0,0,3.6-1.41,5.14,5.14,0,0,0,1.39-3.76,5,5,0,0,0-1.46-3.74,5.08,5.08,0,0,0-7.07,0,5,5,0,0,0-1.49,3.74A5.08,5.08,0,0,0,525.75,415.82Z" transform="translate(-300 -389.74)"/>
    <path class="cls-1" d="M548,396.88a4.18,4.18,0,0,1,0-5.92,3.94,3.94,0,0,1,2.91-1.22,4.08,4.08,0,0,1,3,1.22,4.13,4.13,0,0,1,0,5.92,4.12,4.12,0,0,1-3,1.22A4,4,0,0,1,548,396.88Zm6.53,27.54h-7.15V401.06h7.15Z" transform="translate(-300 -389.74)"/>
    <path class="cls-1" d="M569.31,394.25v6.81h4.56v6.25h-4.56v8.75c0,1.63.86,2.44,2.59,2.44a8.41,8.41,0,0,0,1.88-.24v5.93a8.48,8.48,0,0,1-3.71.65,7.88,7.88,0,0,1-5.72-2,7.29,7.29,0,0,1-2.09-5.5v-10h-4.13v-6.25h1.17A3.36,3.36,0,0,0,562,400a4,4,0,0,0,.92-2.74v-3Z" transform="translate(-300 -389.74)"/>
    <path class="cls-1" d="M584.35,410.7v13.72h-7.14v-34h7.14v12.18a8.08,8.08,0,0,1,6-2.12q4.38,0,6.61,2.61a10,10,0,0,1,2.23,6.7v14.66H592V411a4.34,4.34,0,0,0-1-2.94,3.58,3.58,0,0,0-2.84-1.1A3.66,3.66,0,0,0,585.5,408,4,4,0,0,0,584.35,410.7Z" transform="translate(-300 -389.74)"/>
    <path class="cls-1" d="M620.21,424.42a11.89,11.89,0,0,1-.18-2.35,5.33,5.33,0,0,1-2.59,2.14,9.32,9.32,0,0,1-3.67.73,8.34,8.34,0,0,1-6.5-2.61,9.28,9.28,0,0,1-2.38-6.51V401.06H612v13.26a4.33,4.33,0,0,0,1,2.91,3.48,3.48,0,0,0,2.8,1.13,3.74,3.74,0,0,0,2.84-1.11,4,4,0,0,0,1.06-2.89v-13.3h7.14v19.18a33.2,33.2,0,0,0,.24,4.18Z" transform="translate(-300 -389.74)"/>
    <path class="cls-1" d="M640.05,424.42h-6.91v-34h7v12.88a5.93,5.93,0,0,1,2.63-2,10.33,10.33,0,0,1,4.14-.8,9.9,9.9,0,0,1,7.92,3.41,12.93,12.93,0,0,1,2.94,8.76,12.65,12.65,0,0,1-3.13,8.81,10.29,10.29,0,0,1-8,3.46,8.82,8.82,0,0,1-4-.87,6,6,0,0,1-2.58-2.28Zm10.57-11.7a5.77,5.77,0,0,0-1.5-4.3,5.54,5.54,0,0,0-7.54,0,6.77,6.77,0,0,0,0,8.6,5.15,5.15,0,0,0,3.76,1.53A5.09,5.09,0,0,0,649.1,417,5.84,5.84,0,0,0,650.62,412.72Z" transform="translate(-300 -389.74)"/>
    <path class="cls-1" d="M662.56,423.41a4.68,4.68,0,0,1-1.41-3.41,4.81,4.81,0,0,1,4.8-4.79,4.68,4.68,0,0,1,3.4,1.41,4.57,4.57,0,0,1,1.44,3.38,4.67,4.67,0,0,1-1.44,3.39,4.72,4.72,0,0,1-6.79,0Z" transform="translate(-300 -389.74)"/>
    <path class="cls-1" d="M686.63,406.94a5.15,5.15,0,0,0-3.84,1.55,5.86,5.86,0,0,0-1.52,4.28,5.68,5.68,0,0,0,1.57,4.23,5.32,5.32,0,0,0,3.88,1.55,4.81,4.81,0,0,0,4.84-3.48l6.3,1.93a10.75,10.75,0,0,1-3.79,5.73,11.22,11.22,0,0,1-7.35,2.4,12.39,12.39,0,0,1-8.91-3.5,11.77,11.77,0,0,1-3.64-8.86,12,12,0,0,1,12.31-12.41,11.54,11.54,0,0,1,7.48,2.35,10.54,10.54,0,0,1,3.76,5.78l-6.4,1.93a4.91,4.91,0,0,0-1.59-2.5A4.72,4.72,0,0,0,686.63,406.94Z" transform="translate(-300 -389.74)"/>
    <path class="cls-1" d="M712.71,400.36a12.16,12.16,0,0,1,8.86,3.48,12.92,12.92,0,0,1,0,17.79,12.9,12.9,0,0,1-17.7,0,12.8,12.8,0,0,1,0-17.74A12.11,12.11,0,0,1,712.71,400.36Zm0,18.19a5.11,5.11,0,0,0,3.74-1.51,5.82,5.82,0,0,0,1.52-4.32,5.74,5.74,0,0,0-1.52-4.3,5.4,5.4,0,0,0-7.45,0,5.66,5.66,0,0,0-1.55,4.28A5.74,5.74,0,0,0,709,417,5.09,5.09,0,0,0,712.71,418.55Z" transform="translate(-300 -389.74)"/>
    <path class="cls-1" d="M736.87,424.42h-7.15V401.06h6.82v2.68a6.07,6.07,0,0,1,2.8-2.44,8.89,8.89,0,0,1,3.92-.94c3.35,0,5.66,1.22,6.91,3.66a8.28,8.28,0,0,1,7.24-3.66,8.87,8.87,0,0,1,6.15,2.23c1.66,1.49,2.5,3.72,2.5,6.7v15.13h-6.91V410.89a4.29,4.29,0,0,0-.94-2.85,3.47,3.47,0,0,0-2.78-1.1,3.6,3.6,0,0,0-2.86,1.17,4.15,4.15,0,0,0-1,2.82v13.49h-7V410.89a4.2,4.2,0,0,0-1-2.85,3.54,3.54,0,0,0-2.8-1.1,3.57,3.57,0,0,0-2.82,1.17,4.2,4.2,0,0,0-1,2.87Z" transform="translate(-300 -389.74)"/>
    <path class="cls-1" d="M792.19,390.44l-16.92,34.64h-6.35l16.87-34.64Z" transform="translate(-300 -389.74)"/>
    <path class="cls-1" d="M788.8,417.79l6.07-1.08a3.42,3.42,0,0,0,1,2.24,3.58,3.58,0,0,0,2.65.91,3,3,0,0,0,2-.59,1.79,1.79,0,0,0,.71-1.43c0-.94-.77-1.58-2.31-1.93l-2.67-.61a9.4,9.4,0,0,1-5.27-2.65,6.59,6.59,0,0,1-1.69-4.54,7.06,7.06,0,0,1,2.56-5.5,9.38,9.38,0,0,1,6.42-2.25c3,0,5.31.73,6.84,2.18a7.59,7.59,0,0,1,2.51,4.77l-5.92,1.08a3.3,3.3,0,0,0-1-2.06,3.22,3.22,0,0,0-2.37-.8,3,3,0,0,0-1.79.56,1.75,1.75,0,0,0-.75,1.46c0,.94.61,1.52,1.84,1.74l3.1.61a9.67,9.67,0,0,1,5.36,2.68,6.59,6.59,0,0,1,1.83,4.65,7.43,7.43,0,0,1-2.45,5.57,9.55,9.55,0,0,1-6.86,2.33,12.75,12.75,0,0,1-4.58-.76,7.45,7.45,0,0,1-3.05-1.95,9.61,9.61,0,0,1-1.6-2.37A6.73,6.73,0,0,1,788.8,417.79Z" transform="translate(-300 -389.74)"/>
    <path class="cls-1" d="M819.77,424.42h-7.14v-34h7.14Z" transform="translate(-300 -389.74)"/>
    <path class="cls-1" d="M841.35,416l6,1.69A9.73,9.73,0,0,1,843.6,423a11.48,11.48,0,0,1-7.05,2.1,12.65,12.65,0,0,1-8.71-21.34,11.21,11.21,0,0,1,8.2-3.43q5.44,0,8.57,3.17c2.09,2.12,3.13,5.05,3.13,8.81a10.09,10.09,0,0,1-.14,2.21H831.34a4.31,4.31,0,0,0,1.64,3.22,5.57,5.57,0,0,0,3.67,1.29C839.06,419.06,840.63,418.05,841.35,416ZM831.48,410h9.35a4.24,4.24,0,0,0-1.24-2.78,4.66,4.66,0,0,0-3.46-1.17,4.43,4.43,0,0,0-3.29,1.22A4.36,4.36,0,0,0,831.48,410Z" transform="translate(-300 -389.74)"/>
    <path class="cls-1" d="M867.62,416l6,1.69a9.71,9.71,0,0,1-3.71,5.33,11.48,11.48,0,0,1-7,2.1,12.65,12.65,0,0,1-8.72-21.34,11.21,11.21,0,0,1,8.2-3.43,11.53,11.53,0,0,1,8.58,3.17c2.08,2.12,3.12,5.05,3.12,8.81a9.46,9.46,0,0,1-.14,2.21H857.61a4.31,4.31,0,0,0,1.64,3.22,5.57,5.57,0,0,0,3.67,1.29C865.33,419.06,866.9,418.05,867.62,416ZM857.75,410h9.35a4.19,4.19,0,0,0-1.24-2.78A4.66,4.66,0,0,0,862.4,406a4.43,4.43,0,0,0-3.29,1.22A4.36,4.36,0,0,0,857.75,410Z" transform="translate(-300 -389.74)"/>
    <path class="cls-1" d="M885.76,433.35h-7.14V401.06h6.91v2.4a6.19,6.19,0,0,1,2.65-2.09,10.81,10.81,0,0,1,12.13,2.54,12.93,12.93,0,0,1,2.94,8.76,12.65,12.65,0,0,1-3.13,8.81,10.29,10.29,0,0,1-8,3.46c-3,0-5.06-.78-6.35-2.35Zm9-16.33a5.84,5.84,0,0,0,1.52-4.3,5.76,5.76,0,0,0-1.52-4.28,5.2,5.2,0,0,0-3.79-1.5,5.11,5.11,0,0,0-3.73,1.5,5.73,5.73,0,0,0-1.53,4.28,5.81,5.81,0,0,0,1.53,4.3,5.05,5.05,0,0,0,3.73,1.53A5.14,5.14,0,0,0,894.72,417Z" transform="translate(-300 -389.74)"/>
    <path class="cls-1" d="M915,424.42h-7.15v-34H915Z" transform="translate(-300 -389.74)"/>
    <path class="cls-1" d="M936.57,416l6,1.69a9.73,9.73,0,0,1-3.72,5.33,11.48,11.48,0,0,1-7.05,2.1,12.65,12.65,0,0,1-8.71-21.34,11.21,11.21,0,0,1,8.2-3.43q5.44,0,8.57,3.17c2.09,2.12,3.13,5.05,3.13,8.81a10.09,10.09,0,0,1-.14,2.21H926.56a4.31,4.31,0,0,0,1.64,3.22,5.57,5.57,0,0,0,3.67,1.29C934.28,419.06,935.85,418.05,936.57,416ZM926.7,410h9.35a4.24,4.24,0,0,0-1.24-2.78,4.66,4.66,0,0,0-3.46-1.17,4.43,4.43,0,0,0-3.29,1.22A4.36,4.36,0,0,0,926.7,410Z" transform="translate(-300 -389.74)"/>
    <path class="cls-1" d="M945.64,417.79l6.06-1.08a3.42,3.42,0,0,0,1,2.24,3.61,3.61,0,0,0,2.66.91,3,3,0,0,0,2-.59,1.78,1.78,0,0,0,.7-1.43c0-.94-.76-1.58-2.3-1.93l-2.68-.61a9.4,9.4,0,0,1-5.26-2.65,6.59,6.59,0,0,1-1.69-4.54,7.06,7.06,0,0,1,2.56-5.5,9.34,9.34,0,0,1,6.41-2.25q4.56,0,6.84,2.18a7.55,7.55,0,0,1,2.52,4.77l-5.93,1.08a3,3,0,0,0-3.33-2.86,2.94,2.94,0,0,0-1.79.56,1.75,1.75,0,0,0-.75,1.46q0,1.41,1.83,1.74l3.1.61a9.64,9.64,0,0,1,5.36,2.68,6.6,6.6,0,0,1,1.84,4.65,7.43,7.43,0,0,1-2.45,5.57,9.57,9.57,0,0,1-6.86,2.33,12.75,12.75,0,0,1-4.58-.76,7.49,7.49,0,0,1-3.06-1.95,9.89,9.89,0,0,1-1.6-2.37A6.7,6.7,0,0,1,945.64,417.79Z" transform="translate(-300 -389.74)"/>
    <path class="cls-1" d="M967.54,417.79l6.06-1.08a3.47,3.47,0,0,0,1,2.24,3.62,3.62,0,0,0,2.66.91,3,3,0,0,0,2-.59,1.79,1.79,0,0,0,.71-1.43c0-.94-.77-1.58-2.31-1.93L975,415.3a9.4,9.4,0,0,1-5.26-2.65,6.59,6.59,0,0,1-1.69-4.54,7.06,7.06,0,0,1,2.56-5.5,9.36,9.36,0,0,1,6.41-2.25q4.56,0,6.84,2.18a7.55,7.55,0,0,1,2.52,4.77l-5.92,1.08a3.3,3.3,0,0,0-1-2.06,3.24,3.24,0,0,0-2.37-.8,2.94,2.94,0,0,0-1.79.56,1.75,1.75,0,0,0-.75,1.46q0,1.41,1.83,1.74l3.11.61a9.61,9.61,0,0,1,5.35,2.68,6.56,6.56,0,0,1,1.84,4.65,7.43,7.43,0,0,1-2.45,5.57,9.55,9.55,0,0,1-6.86,2.33,12.75,12.75,0,0,1-4.58-.76,7.56,7.56,0,0,1-3.06-1.95,10.2,10.2,0,0,1-1.6-2.37A6.7,6.7,0,0,1,967.54,417.79Z" transform="translate(-300 -389.74)"/>
    <path class="cls-1" d="M989.68,425.74,996,424a4.89,4.89,0,0,0,1.72,2.82,5.11,5.11,0,0,0,3.31,1.08q5.79,0,5.79-6V420.8c-1.16,1.76-3.25,2.63-6.26,2.63a10.29,10.29,0,0,1-7.75-3.24,11.28,11.28,0,0,1-3.1-8.13,11.49,11.49,0,0,1,3.08-8.06,10.08,10.08,0,0,1,7.77-3.36,8.85,8.85,0,0,1,4.23.89,5.41,5.41,0,0,1,2.26,2v-2.49h6.81v20.45a13.06,13.06,0,0,1-3.14,9q-3.15,3.54-9.36,3.55a12.6,12.6,0,0,1-8-2.47A9.06,9.06,0,0,1,989.68,425.74Zm8.55-9.92a4.91,4.91,0,0,0,3.62,1.41,4.84,4.84,0,0,0,3.6-1.41,5.14,5.14,0,0,0,1.38-3.76,5,5,0,0,0-1.45-3.74,4.88,4.88,0,0,0-3.53-1.43,5,5,0,0,0-5,5.17A5.08,5.08,0,0,0,998.23,415.82Z" transform="translate(-300 -389.74)"/>
    <path class="cls-1" d="M1027,424.42h-7.15v-34H1027Z" transform="translate(-300 -389.74)"/>
    <path class="cls-1" d="M1044,400.36a12.16,12.16,0,0,1,8.86,3.48,12.92,12.92,0,0,1,0,17.79,12.9,12.9,0,0,1-17.7,0,12.8,12.8,0,0,1,0-17.74A12.11,12.11,0,0,1,1044,400.36Zm0,18.19a5.11,5.11,0,0,0,3.74-1.51,5.82,5.82,0,0,0,1.52-4.32,5.74,5.74,0,0,0-1.52-4.3,5.4,5.4,0,0,0-7.45,0,5.66,5.66,0,0,0-1.55,4.28,5.74,5.74,0,0,0,1.55,4.3A5.09,5.09,0,0,0,1044,418.55Z" transform="translate(-300 -389.74)"/>
    <path class="cls-1" d="M1075.88,401.06v7.05a10.27,10.27,0,0,0-2.26-.23,5.26,5.26,0,0,0-3.93,1.55,6.62,6.62,0,0,0-1.52,4.79v10.2H1061V401.06h6.91v3.15a5.2,5.2,0,0,1,2.59-2.58,8.14,8.14,0,0,1,3.48-.8A7.06,7.06,0,0,1,1075.88,401.06Z" transform="translate(-300 -389.74)"/>
    <path class="cls-1" d="M1090.49,433.4H1083l5.31-12.13-9.82-20.21h8l5.69,12.5,5.17-12.5h7.56Z" transform="translate(-300 -389.74)"/>
    <path class="cls-1" d="M1126.45,390.44l-16.92,34.64h-6.35l16.87-34.64Z" transform="translate(-300 -389.74)"/>
    <path class="cls-1" d="M1134.29,406.94a5.14,5.14,0,0,0-3.83,1.55,5.86,5.86,0,0,0-1.52,4.28,5.68,5.68,0,0,0,1.57,4.23,5.32,5.32,0,0,0,3.88,1.55,4.81,4.81,0,0,0,4.84-3.48l6.3,1.93a10.75,10.75,0,0,1-3.79,5.73,11.22,11.22,0,0,1-7.35,2.4,12.39,12.39,0,0,1-8.91-3.5,11.77,11.77,0,0,1-3.64-8.86,12,12,0,0,1,12.31-12.41,11.54,11.54,0,0,1,7.48,2.35,10.54,10.54,0,0,1,3.76,5.78l-6.39,1.93a5,5,0,0,0-1.6-2.5A4.73,4.73,0,0,0,1134.29,406.94Z" transform="translate(-300 -389.74)"/>
    <path class="cls-1" d="M1160.38,400.36a12.16,12.16,0,0,1,8.86,3.48,12.92,12.92,0,0,1,0,17.79,12.9,12.9,0,0,1-17.7,0,12.8,12.8,0,0,1,0-17.74A12.11,12.11,0,0,1,1160.38,400.36Zm0,18.19a5.11,5.11,0,0,0,3.74-1.51,5.82,5.82,0,0,0,1.52-4.32,5.74,5.74,0,0,0-1.52-4.3,5.4,5.4,0,0,0-7.45,0,5.66,5.66,0,0,0-1.55,4.28,5.74,5.74,0,0,0,1.55,4.3A5.09,5.09,0,0,0,1160.38,418.55Z" transform="translate(-300 -389.74)"/>
    <path class="cls-1" d="M1184.54,424.42h-7.15V401.06h6.82v2.68a6.07,6.07,0,0,1,2.8-2.44,8.89,8.89,0,0,1,3.92-.94c3.35,0,5.66,1.22,6.91,3.66a8.28,8.28,0,0,1,7.24-3.66,8.87,8.87,0,0,1,6.15,2.23c1.66,1.49,2.5,3.72,2.5,6.7v15.13h-6.91V410.89a4.29,4.29,0,0,0-.94-2.85,3.47,3.47,0,0,0-2.78-1.1,3.6,3.6,0,0,0-2.86,1.17,4.15,4.15,0,0,0-1,2.82v13.49h-7V410.89a4.2,4.2,0,0,0-1-2.85,3.54,3.54,0,0,0-2.8-1.1,3.57,3.57,0,0,0-2.82,1.17,4.2,4.2,0,0,0-1,2.87Z" transform="translate(-300 -389.74)"/>
    <path class="cls-1" d="M1226.88,433.35h-7.14V401.06h6.91v2.4a6.22,6.22,0,0,1,2.66-2.09,9.73,9.73,0,0,1,4.2-.87,9.9,9.9,0,0,1,7.92,3.41,12.93,12.93,0,0,1,2.94,8.76,12.6,12.6,0,0,1-3.13,8.81,10.29,10.29,0,0,1-8,3.46c-3,0-5.06-.78-6.35-2.35Zm9-16.33a5.81,5.81,0,0,0,1.53-4.3,5.73,5.73,0,0,0-1.53-4.28,5.2,5.2,0,0,0-3.79-1.5,5.12,5.12,0,0,0-3.73,1.5,5.73,5.73,0,0,0-1.53,4.28,5.81,5.81,0,0,0,1.53,4.3,5.07,5.07,0,0,0,3.73,1.53A5.14,5.14,0,0,0,1235.84,417Z" transform="translate(-300 -389.74)"/>
    <path class="cls-1" d="M1264.25,416l6,1.69a9.73,9.73,0,0,1-3.72,5.33,11.43,11.43,0,0,1-7,2.1,12.65,12.65,0,0,1-8.72-21.34,11.21,11.21,0,0,1,8.2-3.43,11.53,11.53,0,0,1,8.58,3.17c2.08,2.12,3.12,5.05,3.12,8.81a10.09,10.09,0,0,1-.14,2.21h-16.26a4.31,4.31,0,0,0,1.64,3.22,5.57,5.57,0,0,0,3.67,1.29C1262,419.06,1263.53,418.05,1264.25,416Zm-9.87-6.06h9.35a4.24,4.24,0,0,0-1.24-2.78A4.66,4.66,0,0,0,1259,406a4.43,4.43,0,0,0-3.29,1.22A4.36,4.36,0,0,0,1254.38,410Z" transform="translate(-300 -389.74)"/>
    <path class="cls-1" d="M1283.8,394.25v6.81h4.56v6.25h-4.56v8.75c0,1.63.86,2.44,2.59,2.44a8.41,8.41,0,0,0,1.88-.24v5.93a8.5,8.5,0,0,1-3.72.65,7.87,7.87,0,0,1-5.71-2,7.29,7.29,0,0,1-2.09-5.5v-10h-4.14v-6.25h1.18a3.36,3.36,0,0,0,2.7-1.06,4,4,0,0,0,.92-2.74v-3Z" transform="translate(-300 -389.74)"/>
    <path class="cls-1" d="M1294,396.88a4.2,4.2,0,0,1,0-5.92,4,4,0,0,1,2.92-1.22,4.08,4.08,0,0,1,3,1.22,4.13,4.13,0,0,1,0,5.92,4.12,4.12,0,0,1-3,1.22A4,4,0,0,1,1294,396.88Zm6.54,27.54h-7.15V401.06h7.15Z" transform="translate(-300 -389.74)"/>
    <path class="cls-1" d="M1315.38,394.25v6.81h4.56v6.25h-4.56v8.75c0,1.63.86,2.44,2.59,2.44a8.41,8.41,0,0,0,1.88-.24v5.93a8.5,8.5,0,0,1-3.72.65,7.87,7.87,0,0,1-5.71-2,7.29,7.29,0,0,1-2.09-5.5v-10h-4.13v-6.25h1.17a3.36,3.36,0,0,0,2.7-1.06,4,4,0,0,0,.92-2.74v-3Z" transform="translate(-300 -389.74)"/>
    <path class="cls-1" d="M1325.63,396.88a4.2,4.2,0,0,1,0-5.92,3.94,3.94,0,0,1,2.91-1.22,4.1,4.1,0,0,1,3,1.22,4.15,4.15,0,0,1,0,5.92,4.14,4.14,0,0,1-3,1.22A4,4,0,0,1,1325.63,396.88Zm6.53,27.54H1325V401.06h7.14Z" transform="translate(-300 -389.74)"/>
    <path class="cls-1" d="M1349.13,400.36a12.16,12.16,0,0,1,8.86,3.48,12.92,12.92,0,0,1,0,17.79,12.9,12.9,0,0,1-17.7,0,12.8,12.8,0,0,1,0-17.74A12.11,12.11,0,0,1,1349.13,400.36Zm0,18.19a5.09,5.09,0,0,0,3.73-1.51,5.78,5.78,0,0,0,1.53-4.32,5.7,5.7,0,0,0-1.53-4.3,5.4,5.4,0,0,0-7.45,0,5.7,5.7,0,0,0-1.55,4.28,5.78,5.78,0,0,0,1.55,4.3A5.13,5.13,0,0,0,1349.13,418.55Z" transform="translate(-300 -389.74)"/>
    <path class="cls-1" d="M1373.28,411v13.39h-7.14V401.06h6.91v2.68a6,6,0,0,1,2.75-2.42,8.84,8.84,0,0,1,3.78-.87,7.77,7.77,0,0,1,6.35,2.61,10.15,10.15,0,0,1,2.16,6.7v14.66H1381V411a4.34,4.34,0,0,0-1-2.94,3.58,3.58,0,0,0-2.84-1.1,3.62,3.62,0,0,0-2.8,1.15A4.21,4.21,0,0,0,1373.28,411Z" transform="translate(-300 -389.74)"/>
    <path class="cls-1" d="M1407.17,413.47h-14.1V407h14.1Z" transform="translate(-300 -389.74)"/>
    <path class="cls-1" d="M1427.29,401.06v7.05a10.21,10.21,0,0,0-2.26-.23,5.22,5.22,0,0,0-3.92,1.55,6.58,6.58,0,0,0-1.53,4.79v10.2h-7.15V401.06h6.91v3.15a5.2,5.2,0,0,1,2.59-2.58,8.17,8.17,0,0,1,3.48-.8A7,7,0,0,1,1427.29,401.06Z" transform="translate(-300 -389.74)"/>
    <path class="cls-1" d="M1446.6,416l6,1.69a9.66,9.66,0,0,1-3.71,5.33,11.48,11.48,0,0,1-7,2.1,12.66,12.66,0,0,1-8.72-21.34,11.23,11.23,0,0,1,8.2-3.43q5.46,0,8.58,3.17c2.08,2.12,3.13,5.05,3.13,8.81a9.23,9.23,0,0,1-.15,2.21h-16.26a4.32,4.32,0,0,0,1.65,3.22,5.53,5.53,0,0,0,3.66,1.29C1444.32,419.06,1445.88,418.05,1446.6,416Zm-9.87-6.06h9.36a4.25,4.25,0,0,0-1.25-2.78,4.65,4.65,0,0,0-3.45-1.17,4.48,4.48,0,0,0-4.66,3.95Z" transform="translate(-300 -389.74)"/>
    <path class="cls-1" d="M1468.36,406.94a5.14,5.14,0,0,0-3.83,1.55,5.82,5.82,0,0,0-1.52,4.28,5.68,5.68,0,0,0,1.57,4.23,5.32,5.32,0,0,0,3.88,1.55,4.81,4.81,0,0,0,4.84-3.48l6.3,1.93a10.75,10.75,0,0,1-3.79,5.73,11.22,11.22,0,0,1-7.35,2.4,12.39,12.39,0,0,1-8.91-3.5,11.77,11.77,0,0,1-3.64-8.86,12,12,0,0,1,12.31-12.41,11.54,11.54,0,0,1,7.48,2.35,10.54,10.54,0,0,1,3.76,5.78l-6.4,1.93a4.91,4.91,0,0,0-1.59-2.5A4.73,4.73,0,0,0,1468.36,406.94Z" transform="translate(-300 -389.74)"/>
    <path class="cls-1" d="M1494.45,400.36a12.16,12.16,0,0,1,8.86,3.48,12.92,12.92,0,0,1,0,17.79,12.9,12.9,0,0,1-17.7,0,12.8,12.8,0,0,1,0-17.74A12.11,12.11,0,0,1,1494.45,400.36Zm0,18.19a5.11,5.11,0,0,0,3.74-1.51,5.82,5.82,0,0,0,1.52-4.32,5.74,5.74,0,0,0-1.52-4.3,5.4,5.4,0,0,0-7.45,0,5.67,5.67,0,0,0-1.56,4.28,5.74,5.74,0,0,0,1.56,4.3A5.09,5.09,0,0,0,1494.45,418.55Z" transform="translate(-300 -389.74)"/>
    <path class="cls-1" d="M1526.31,401.06v7.05a10.12,10.12,0,0,0-2.25-.23,5.26,5.26,0,0,0-3.93,1.55,6.62,6.62,0,0,0-1.52,4.79v10.2h-7.15V401.06h6.91v3.15a5.2,5.2,0,0,1,2.59-2.58,8.13,8.13,0,0,1,3.47-.8A6.9,6.9,0,0,1,1526.31,401.06Z" transform="translate(-300 -389.74)"/>
    <path class="cls-1" d="M1553.34,390.39v29.85c0,1.41.06,2.8.19,4.18h-6.86a13.14,13.14,0,0,1-.19-2.25,6.05,6.05,0,0,1-2.52,2,8.68,8.68,0,0,1-3.73.78,10.91,10.91,0,0,1-8.27-3.46,12.22,12.22,0,0,1-3.29-8.81,12.35,12.35,0,0,1,3.19-8.72,10.6,10.6,0,0,1,8.13-3.45q4.8,0,6.3,2.4V390.39Zm-16,18.05a5.76,5.76,0,0,0-1.52,4.28,5.84,5.84,0,0,0,1.52,4.3,5.34,5.34,0,0,0,7.48,0,5.84,5.84,0,0,0,1.52-4.3,5.76,5.76,0,0,0-1.52-4.28,5.41,5.41,0,0,0-7.48,0Z" transform="translate(-300 -389.74)"/>
    <path class="cls-1" d="M1557.85,417.79l6.07-1.08a3.38,3.38,0,0,0,1,2.24,3.58,3.58,0,0,0,2.65.91,3,3,0,0,0,2-.59,1.79,1.79,0,0,0,.71-1.43c0-.94-.77-1.58-2.31-1.93l-2.67-.61a9.4,9.4,0,0,1-5.27-2.65,6.59,6.59,0,0,1-1.69-4.54,7.06,7.06,0,0,1,2.56-5.5,9.38,9.38,0,0,1,6.42-2.25q4.55,0,6.83,2.18a7.55,7.55,0,0,1,2.52,4.77l-5.92,1.08a3.3,3.3,0,0,0-1-2.06,3.24,3.24,0,0,0-2.37-.8,2.94,2.94,0,0,0-1.79.56,1.75,1.75,0,0,0-.75,1.46c0,.94.61,1.52,1.84,1.74l3.1.61a9.67,9.67,0,0,1,5.36,2.68,6.59,6.59,0,0,1,1.83,4.65,7.43,7.43,0,0,1-2.45,5.57,9.55,9.55,0,0,1-6.86,2.33,12.75,12.75,0,0,1-4.58-.76,7.56,7.56,0,0,1-3.06-1.95,9.84,9.84,0,0,1-1.59-2.37A6.73,6.73,0,0,1,1557.85,417.79Z" transform="translate(-300 -389.74)"/>
    <path class="cls-1" d="M515.69,441.11v-3.76H1578.53v3.76Z" transform="translate(-300 -389.74)"/>
  </g>
</svg>
