<svg id="Layer_1" data-name="Layer 1" xmlns="http://www.w3.org/2000/svg" viewBox="0 0 135.68 6.56">
  <defs>
    <style>
      .cls-1 {
        fill: #08009f;
      }
    </style>
  </defs>
  <title>P1</title>
  <g>
    <path class="cls-1" d="M1.82,21.58l.81-.23a.57.57,0,0,0,.22.36.59.59,0,0,0,.42.14A.66.66,0,0,0,4,21.09V21a.88.88,0,0,1-.8.34,1.29,1.29,0,0,1-1-.42,1.53,1.53,0,0,1,0-2.06,1.27,1.27,0,0,1,1-.43,1.2,1.2,0,0,1,.54.11.68.68,0,0,1,.29.26v-.32h.87V21a1.69,1.69,0,0,1-.4,1.15,1.53,1.53,0,0,1-1.2.45,1.61,1.61,0,0,1-1-.31A1.18,1.18,0,0,1,1.82,21.58Zm1.1-1.26a.62.62,0,0,0,.46.18.62.62,0,0,0,.46-.18A.69.69,0,0,0,4,19.84a.64.64,0,1,0-1.09.48Z" transform="translate(-1.63 -16.99)"/>
    <path class="cls-1" d="M5.75,17.9A.53.53,0,0,1,6.13,17a.55.55,0,0,1,.38.15.53.53,0,0,1,0,.76.55.55,0,0,1-.38.15A.54.54,0,0,1,5.75,17.9Zm.84,3.51H5.68v-3h.91Z" transform="translate(-1.63 -16.99)"/>
    <path class="cls-1" d="M8.48,17.56v.87h.58v.8H8.48v1.12c0,.2.11.31.33.31l.24,0v.75a1,1,0,0,1-.48.09,1,1,0,0,1-.73-.26,1,1,0,0,1-.26-.7V19.23H7.05v-.8H7.2a.41.41,0,0,0,.34-.13A.51.51,0,0,0,7.66,18v-.39Z" transform="translate(-1.63 -16.99)"/>
    <path class="cls-1" d="M10.4,19.66v1.75H9.49V17.07h.91v1.55a1,1,0,0,1,.76-.27,1.05,1.05,0,0,1,.84.34,1.25,1.25,0,0,1,.29.85v1.87h-.91V19.7a.58.58,0,0,0-.13-.38.46.46,0,0,0-.36-.14.48.48,0,0,0-.35.14A.55.55,0,0,0,10.4,19.66Z" transform="translate(-1.63 -16.99)"/>
    <path class="cls-1" d="M15,21.41a1.15,1.15,0,0,1,0-.3.66.66,0,0,1-.33.28,1.23,1.23,0,0,1-.47.09,1.07,1.07,0,0,1-.83-.33,1.19,1.19,0,0,1-.3-.83V18.43h.91v1.69a.53.53,0,0,0,.13.38.45.45,0,0,0,.35.14.47.47,0,0,0,.36-.14.51.51,0,0,0,.14-.37v-1.7h.91v2.45a4.22,4.22,0,0,0,0,.53Z" transform="translate(-1.63 -16.99)"/>
    <path class="cls-1" d="M17.51,21.41h-.88V17.07h.89v1.64a.77.77,0,0,1,.34-.25,1.24,1.24,0,0,1,.52-.1,1.28,1.28,0,0,1,1,.44,1.64,1.64,0,0,1,.37,1.11,1.59,1.59,0,0,1-.4,1.13,1.34,1.34,0,0,1-1,.44,1.19,1.19,0,0,1-.51-.11.73.73,0,0,1-.33-.29Zm1.35-1.49a.78.78,0,0,0-.19-.55.71.71,0,0,0-1,0,.74.74,0,0,0-.19.55.7.7,0,0,0,.2.55.65.65,0,0,0,.48.19.64.64,0,0,0,.47-.19A.74.74,0,0,0,18.86,19.92Z" transform="translate(-1.63 -16.99)"/>
    <path class="cls-1" d="M20.38,21.29a.62.62,0,0,1-.18-.44.58.58,0,0,1,.18-.43.6.6,0,0,1,.43-.18.6.6,0,0,1,.44.18.58.58,0,0,1,.18.43.6.6,0,0,1-.18.43.58.58,0,0,1-.44.19A.6.6,0,0,1,20.38,21.29Z" transform="translate(-1.63 -16.99)"/>
    <path class="cls-1" d="M23.45,19.18a.68.68,0,0,0-.49.2.74.74,0,0,0-.19.55.77.77,0,0,0,.2.54.68.68,0,0,0,.5.19.65.65,0,0,0,.4-.12.6.6,0,0,0,.21-.32l.81.25a1.4,1.4,0,0,1-.49.73,1.44,1.44,0,0,1-.93.3,1.57,1.57,0,0,1-1.14-.44,1.58,1.58,0,0,1,1.11-2.72,1.48,1.48,0,0,1,.95.3,1.33,1.33,0,0,1,.48.74l-.82.25a.58.58,0,0,0-.6-.45Z" transform="translate(-1.63 -16.99)"/>
    <path class="cls-1" d="M26.78,18.34a1.52,1.52,0,0,1,1.13.45,1.48,1.48,0,0,1,.46,1.13,1.54,1.54,0,0,1-1.59,1.58,1.53,1.53,0,0,1-1.12-.45,1.62,1.62,0,0,1,0-2.26A1.53,1.53,0,0,1,26.78,18.34Zm0,2.32a.65.65,0,0,0,.48-.19.86.86,0,0,0,0-1.1.69.69,0,0,0-1,0,.86.86,0,0,0,0,1.1A.64.64,0,0,0,26.78,20.66Z" transform="translate(-1.63 -16.99)"/>
    <path class="cls-1" d="M29.87,21.41H29v-3h.87v.34a.83.83,0,0,1,.35-.31,1.18,1.18,0,0,1,.5-.12.92.92,0,0,1,.89.47,1,1,0,0,1,.92-.47,1.17,1.17,0,0,1,.79.29,1.08,1.08,0,0,1,.31.85v1.93h-.88V19.69a.57.57,0,0,0-.12-.37.45.45,0,0,0-.35-.14.47.47,0,0,0-.37.15.52.52,0,0,0-.13.36v1.72h-.9V19.69a.57.57,0,0,0-.12-.37.47.47,0,0,0-.36-.14.46.46,0,0,0-.36.15.52.52,0,0,0-.13.37Z" transform="translate(-1.63 -16.99)"/>
    <path class="cls-1" d="M36.93,17.08,34.77,21.5H34l2.15-4.42Z" transform="translate(-1.63 -16.99)"/>
    <path class="cls-1" d="M36.5,20.57l.77-.14a.46.46,0,0,0,.13.29.5.5,0,0,0,.34.11.4.4,0,0,0,.26-.07.23.23,0,0,0,.09-.19q0-.18-.3-.24l-.34-.08a1.18,1.18,0,0,1-.67-.34.85.85,0,0,1-.22-.58.9.9,0,0,1,.33-.7,1.21,1.21,0,0,1,.82-.29,1.23,1.23,0,0,1,.87.28.94.94,0,0,1,.32.61l-.75.14A.43.43,0,0,0,38,19.1a.45.45,0,0,0-.3-.1.45.45,0,0,0-.23.07.23.23,0,0,0-.09.19c0,.12.08.19.23.22l.4.08a1.19,1.19,0,0,1,.68.34.85.85,0,0,1,.24.6,1,1,0,0,1-.32.71,1.19,1.19,0,0,1-.87.29,1.78,1.78,0,0,1-.59-.09,1,1,0,0,1-.59-.55A.84.84,0,0,1,36.5,20.57Z" transform="translate(-1.63 -16.99)"/>
    <path class="cls-1" d="M40.45,21.41h-.91V17.07h.91Z" transform="translate(-1.63 -16.99)"/>
    <path class="cls-1" d="M43.21,20.34l.76.22a1.3,1.3,0,0,1-.48.68,1.45,1.45,0,0,1-.9.26,1.61,1.61,0,0,1-1.11-2.72,1.44,1.44,0,0,1,1.05-.44,1.46,1.46,0,0,1,1.09.41,1.51,1.51,0,0,1,.4,1.12.84.84,0,0,1,0,.28H41.93a.57.57,0,0,0,.21.42.71.71,0,0,0,.47.16A.58.58,0,0,0,43.21,20.34ZM42,19.57h1.19a.54.54,0,0,0-.16-.36.59.59,0,0,0-.44-.15.54.54,0,0,0-.42.16A.55.55,0,0,0,42,19.57Z" transform="translate(-1.63 -16.99)"/>
    <path class="cls-1" d="M46.56,20.34l.76.22a1.23,1.23,0,0,1-.47.68,1.45,1.45,0,0,1-.9.26,1.52,1.52,0,0,1-1.1-.43,1.5,1.5,0,0,1-.46-1.16,1.54,1.54,0,0,1,.44-1.13,1.57,1.57,0,0,1,2.15,0,1.55,1.55,0,0,1,.4,1.12,1.28,1.28,0,0,1,0,.28H45.28a.57.57,0,0,0,.21.42.71.71,0,0,0,.47.16A.57.57,0,0,0,46.56,20.34Zm-1.26-.77h1.19a.5.5,0,0,0-.16-.36.57.57,0,0,0-.44-.15.57.57,0,0,0-.42.16A.55.55,0,0,0,45.3,19.57Z" transform="translate(-1.63 -16.99)"/>
    <path class="cls-1" d="M48.88,22.55H48V18.43h.89v.31a.76.76,0,0,1,.33-.27,1.33,1.33,0,0,1,.54-.11,1.26,1.26,0,0,1,1,.44,1.8,1.8,0,0,1,0,2.24,1.34,1.34,0,0,1-1,.44,1,1,0,0,1-.81-.3ZM50,20.47a.89.89,0,0,0,0-1.1.7.7,0,0,0-1,0,.86.86,0,0,0,0,1.1.7.7,0,0,0,1,0Z" transform="translate(-1.63 -16.99)"/>
    <path class="cls-1" d="M52.61,21.41H51.7V17.07h.91Z" transform="translate(-1.63 -16.99)"/>
    <path class="cls-1" d="M55.36,20.34l.76.22a1.23,1.23,0,0,1-.47.68,1.45,1.45,0,0,1-.9.26,1.51,1.51,0,0,1-1.55-1.59,1.5,1.5,0,0,1,.44-1.13,1.43,1.43,0,0,1,1-.44,1.48,1.48,0,0,1,1.1.41,1.55,1.55,0,0,1,.4,1.12,1.28,1.28,0,0,1,0,.28H54.08a.57.57,0,0,0,.21.42.72.72,0,0,0,.47.16A.57.57,0,0,0,55.36,20.34Zm-1.26-.77h1.2a.54.54,0,0,0-.6-.51.54.54,0,0,0-.42.16A.52.52,0,0,0,54.1,19.57Z" transform="translate(-1.63 -16.99)"/>
    <path class="cls-1" d="M56.52,20.57l.77-.14a.46.46,0,0,0,.13.29.5.5,0,0,0,.34.11.4.4,0,0,0,.26-.07.23.23,0,0,0,.09-.19c0-.12-.1-.2-.29-.24l-.35-.08a1.22,1.22,0,0,1-.67-.34.84.84,0,0,1-.21-.58.89.89,0,0,1,.32-.7,1.21,1.21,0,0,1,.82-.29,1.23,1.23,0,0,1,.87.28,1,1,0,0,1,.33.61l-.76.14a.42.42,0,0,0-.12-.27.46.46,0,0,0-.31-.1.41.41,0,0,0-.22.07.22.22,0,0,0-.1.19c0,.12.08.19.23.22l.4.08a1.19,1.19,0,0,1,.68.34.85.85,0,0,1,.24.6,1,1,0,0,1-.31.71,1.22,1.22,0,0,1-.88.29,1.78,1.78,0,0,1-.59-.09,1.05,1.05,0,0,1-.39-.25,1.31,1.31,0,0,1-.2-.3A.84.84,0,0,1,56.52,20.57Z" transform="translate(-1.63 -16.99)"/>
    <path class="cls-1" d="M59.31,20.57l.78-.14a.46.46,0,0,0,.13.29.5.5,0,0,0,.34.11.36.36,0,0,0,.25-.07.22.22,0,0,0,.1-.19q0-.18-.3-.24l-.34-.08a1.18,1.18,0,0,1-.67-.34.81.81,0,0,1-.22-.58.9.9,0,0,1,.33-.7,1.21,1.21,0,0,1,.82-.29,1.23,1.23,0,0,1,.87.28,1,1,0,0,1,.32.61l-.75.14a.49.49,0,0,0-.13-.27.45.45,0,0,0-.3-.1.45.45,0,0,0-.23.07.23.23,0,0,0-.09.19c0,.12.07.19.23.22l.4.08a1.22,1.22,0,0,1,.68.34.84.84,0,0,1,.23.6,1,1,0,0,1-.31.71,1.21,1.21,0,0,1-.87.29,1.74,1.74,0,0,1-.59-.09,1,1,0,0,1-.59-.55A.88.88,0,0,1,59.31,20.57Z" transform="translate(-1.63 -16.99)"/>
    <path class="cls-1" d="M62.14,21.58l.81-.23a.6.6,0,0,0,.21.36.64.64,0,0,0,.43.14.66.66,0,0,0,.74-.76V21a.88.88,0,0,1-.8.34,1.29,1.29,0,0,1-1-.42,1.4,1.4,0,0,1-.4-1,1.47,1.47,0,0,1,.39-1,1.3,1.3,0,0,1,1-.43,1.2,1.2,0,0,1,.54.11.65.65,0,0,1,.28.26v-.32h.88V21a1.65,1.65,0,0,1-.41,1.15,1.5,1.5,0,0,1-1.19.45,1.61,1.61,0,0,1-1-.31A1.18,1.18,0,0,1,62.14,21.58Zm1.09-1.26a.64.64,0,0,0,.47.18.6.6,0,0,0,.45-.18.66.66,0,0,0-.91-1,.66.66,0,0,0-.19.48A.65.65,0,0,0,63.23,20.32Z" transform="translate(-1.63 -16.99)"/>
    <path class="cls-1" d="M66.91,21.41H66V17.07h.92Z" transform="translate(-1.63 -16.99)"/>
    <path class="cls-1" d="M69.08,18.34a1.54,1.54,0,0,1,1.13.45,1.51,1.51,0,0,1,.45,1.13,1.6,1.6,0,1,1-1.58-1.58Zm0,2.32a.63.63,0,0,0,.47-.19.86.86,0,0,0,0-1.1.67.67,0,0,0-.47-.19.71.71,0,0,0-.48.19.89.89,0,0,0,0,1.1A.66.66,0,0,0,69.08,20.66Z" transform="translate(-1.63 -16.99)"/>
    <path class="cls-1" d="M73.15,18.43v.9a1.29,1.29,0,0,0-.29,0,.67.67,0,0,0-.5.2.84.84,0,0,0-.2.61v1.3h-.91v-3h.88v.4a.66.66,0,0,1,.33-.33,1.22,1.22,0,0,1,.45-.1A.88.88,0,0,1,73.15,18.43Z" transform="translate(-1.63 -16.99)"/>
    <path class="cls-1" d="M75,22.56h-1L74.73,21l-1.25-2.58h1l.72,1.6.66-1.6h1Z" transform="translate(-1.63 -16.99)"/>
    <path class="cls-1" d="M79.6,17.08,77.44,21.5h-.81l2.15-4.42Z" transform="translate(-1.63 -16.99)"/>
    <path class="cls-1" d="M80.6,19.18a.68.68,0,0,0-.49.2.74.74,0,0,0-.19.55.77.77,0,0,0,.2.54.68.68,0,0,0,.5.19.65.65,0,0,0,.4-.12.6.6,0,0,0,.21-.32l.81.25a1.4,1.4,0,0,1-.49.73,1.44,1.44,0,0,1-.93.3,1.57,1.57,0,0,1-1.14-.44,1.58,1.58,0,0,1,1.1-2.72,1.49,1.49,0,0,1,1,.3,1.33,1.33,0,0,1,.48.74l-.82.25a.58.58,0,0,0-.6-.45Z" transform="translate(-1.63 -16.99)"/>
    <path class="cls-1" d="M83.93,18.34a1.54,1.54,0,0,1,1.13.45,1.48,1.48,0,0,1,.46,1.13,1.54,1.54,0,0,1-1.59,1.58,1.55,1.55,0,0,1-1.13-.45,1.64,1.64,0,0,1,0-2.26A1.55,1.55,0,0,1,83.93,18.34Zm0,2.32a.65.65,0,0,0,.48-.19.89.89,0,0,0,0-1.1.69.69,0,0,0-1,0,.86.86,0,0,0,0,1.1A.64.64,0,0,0,83.93,20.66Z" transform="translate(-1.63 -16.99)"/>
    <path class="cls-1" d="M87,21.41H86.1v-3H87v.34a.92.92,0,0,1,.36-.31,1.15,1.15,0,0,1,.5-.12.9.9,0,0,1,.88.47,1.08,1.08,0,0,1,.93-.47,1.12,1.12,0,0,1,.78.29,1.05,1.05,0,0,1,.32.85v1.93h-.88V19.69a.57.57,0,0,0-.12-.37.45.45,0,0,0-.35-.14.47.47,0,0,0-.37.15.52.52,0,0,0-.13.36v1.72H88V19.69a.57.57,0,0,0-.12-.37.49.49,0,0,0-.36-.14.46.46,0,0,0-.36.15.52.52,0,0,0-.13.37Z" transform="translate(-1.63 -16.99)"/>
    <path class="cls-1" d="M92.42,22.55h-.91V18.43h.88v.31a.8.8,0,0,1,.34-.27,1.33,1.33,0,0,1,.54-.11,1.27,1.27,0,0,1,1,.44,1.84,1.84,0,0,1,0,2.24,1.34,1.34,0,0,1-1,.44,1,1,0,0,1-.81-.3Zm1.15-2.08a.89.89,0,0,0,0-1.1.71.71,0,0,0-.49-.19.67.67,0,0,0-.47.19.86.86,0,0,0,0,1.1.63.63,0,0,0,.47.19A.67.67,0,0,0,93.57,20.47Z" transform="translate(-1.63 -16.99)"/>
    <path class="cls-1" d="M97.19,20.34l.76.22a1.23,1.23,0,0,1-.47.68,1.45,1.45,0,0,1-.9.26A1.51,1.51,0,0,1,95,19.91a1.5,1.5,0,0,1,.44-1.13,1.43,1.43,0,0,1,1-.44,1.48,1.48,0,0,1,1.1.41,1.51,1.51,0,0,1,.4,1.12,1.28,1.28,0,0,1,0,.28H95.91a.57.57,0,0,0,.21.42.72.72,0,0,0,.47.16A.57.57,0,0,0,97.19,20.34Zm-1.26-.77h1.2a.54.54,0,0,0-.16-.36.6.6,0,0,0-.44-.15.54.54,0,0,0-.42.16A.52.52,0,0,0,95.93,19.57Z" transform="translate(-1.63 -16.99)"/>
    <path class="cls-1" d="M99.69,17.56v.87h.58v.8h-.58v1.12c0,.2.11.31.33.31l.24,0v.75a1,1,0,0,1-.48.09,1,1,0,0,1-.72-.26.93.93,0,0,1-.27-.7V19.23h-.53v-.8h.15a.45.45,0,0,0,.35-.13.56.56,0,0,0,.11-.35v-.39Z" transform="translate(-1.63 -16.99)"/>
    <path class="cls-1" d="M101,17.9a.53.53,0,0,1,0-.76.5.5,0,0,1,.37-.15.54.54,0,0,1,.38.15.53.53,0,0,1,0,.76.54.54,0,0,1-.38.15A.5.5,0,0,1,101,17.9Zm.83,3.51h-.91v-3h.91Z" transform="translate(-1.63 -16.99)"/>
    <path class="cls-1" d="M103.72,17.56v.87h.58v.8h-.58v1.12c0,.2.11.31.33.31l.24,0v.75a1,1,0,0,1-.47.09,1,1,0,0,1-.73-.26.93.93,0,0,1-.27-.7V19.23h-.53v-.8h.15a.45.45,0,0,0,.35-.13.51.51,0,0,0,.11-.35v-.39Z" transform="translate(-1.63 -16.99)"/>
    <path class="cls-1" d="M105,17.9a.53.53,0,0,1,0-.76.51.51,0,0,1,.37-.15.52.52,0,0,1,.38.15.53.53,0,0,1,0,.76.52.52,0,0,1-.38.15A.51.51,0,0,1,105,17.9Zm.83,3.51H105v-3h.91Z" transform="translate(-1.63 -16.99)"/>
    <path class="cls-1" d="M108,18.34a1.54,1.54,0,0,1,1.13.45,1.51,1.51,0,0,1,.45,1.13A1.6,1.6,0,1,1,108,18.34Zm0,2.32a.65.65,0,0,0,.48-.19.89.89,0,0,0,0-1.1.69.69,0,0,0-.48-.19.71.71,0,0,0-.48.19.89.89,0,0,0,0,1.1A.66.66,0,0,0,108,20.66Z" transform="translate(-1.63 -16.99)"/>
    <path class="cls-1" d="M111.11,19.7v1.71h-.91v-3h.88v.34a.79.79,0,0,1,.35-.3,1.07,1.07,0,0,1,.49-.12,1,1,0,0,1,.81.34,1.29,1.29,0,0,1,.27.85v1.87h-.91V19.7a.58.58,0,0,0-.12-.38.48.48,0,0,0-.37-.14.45.45,0,0,0-.35.15A.53.53,0,0,0,111.11,19.7Z" transform="translate(-1.63 -16.99)"/>
    <path class="cls-1" d="M115.44,20h-1.8v-.83h1.8Z" transform="translate(-1.63 -16.99)"/>
    <path class="cls-1" d="M118,18.43v.9a1.29,1.29,0,0,0-.29,0,.67.67,0,0,0-.5.2.84.84,0,0,0-.2.61v1.3h-.91v-3H117v.4a.7.7,0,0,1,.33-.33,1.22,1.22,0,0,1,.45-.1A.88.88,0,0,1,118,18.43Z" transform="translate(-1.63 -16.99)"/>
    <path class="cls-1" d="M120.47,20.34l.76.22a1.23,1.23,0,0,1-.47.68,1.45,1.45,0,0,1-.9.26,1.51,1.51,0,0,1-1.55-1.59,1.5,1.5,0,0,1,.44-1.13,1.43,1.43,0,0,1,1-.44,1.48,1.48,0,0,1,1.1.41,1.51,1.51,0,0,1,.4,1.12,1.28,1.28,0,0,1,0,.28h-2.08a.57.57,0,0,0,.21.42.72.72,0,0,0,.47.16A.57.57,0,0,0,120.47,20.34Zm-1.26-.77h1.2a.54.54,0,0,0-.6-.51.54.54,0,0,0-.42.16A.52.52,0,0,0,119.21,19.57Z" transform="translate(-1.63 -16.99)"/>
    <path class="cls-1" d="M123.25,19.18a.66.66,0,0,0-.49.2.74.74,0,0,0-.19.55.72.72,0,0,0,.2.54.74.74,0,0,0,.9.07.75.75,0,0,0,.21-.32l.8.25a1.38,1.38,0,0,1-.48.73,1.45,1.45,0,0,1-.94.3,1.53,1.53,0,0,1-1.13-.44,1.48,1.48,0,0,1-.47-1.13,1.54,1.54,0,0,1,1.57-1.59,1.49,1.49,0,0,1,1,.3,1.45,1.45,0,0,1,.48.74l-.82.25a.63.63,0,0,0-.2-.32A.58.58,0,0,0,123.25,19.18Z" transform="translate(-1.63 -16.99)"/>
    <path class="cls-1" d="M126.58,18.34a1.54,1.54,0,0,1,1.13.45,1.51,1.51,0,0,1,.45,1.13,1.6,1.6,0,0,1-2.71,1.13,1.64,1.64,0,0,1,0-2.26A1.55,1.55,0,0,1,126.58,18.34Zm0,2.32a.65.65,0,0,0,.48-.19.89.89,0,0,0,0-1.1.69.69,0,0,0-1,0,.86.86,0,0,0,0,1.1A.64.64,0,0,0,126.58,20.66Z" transform="translate(-1.63 -16.99)"/>
    <path class="cls-1" d="M130.65,18.43v.9a1.29,1.29,0,0,0-.29,0,.69.69,0,0,0-.5.2.84.84,0,0,0-.19.61v1.3h-.92v-3h.88v.4a.75.75,0,0,1,.33-.33,1.22,1.22,0,0,1,.45-.1A.88.88,0,0,1,130.65,18.43Z" transform="translate(-1.63 -16.99)"/>
    <path class="cls-1" d="M134.1,17.07v3.81c0,.18,0,.36,0,.53h-.87a1.33,1.33,0,0,1,0-.28.75.75,0,0,1-.32.25,1.06,1.06,0,0,1-.48.1,1.4,1.4,0,0,1-1-.44,1.72,1.72,0,0,1,0-2.24,1.34,1.34,0,0,1,1-.44.88.88,0,0,1,.81.31v-1.6Zm-2,2.3a.89.89,0,0,0,0,1.1.7.7,0,0,0,1,0,.89.89,0,0,0,0-1.1.7.7,0,0,0-1,0Z" transform="translate(-1.63 -16.99)"/>
    <path class="cls-1" d="M134.67,20.57l.78-.14a.46.46,0,0,0,.13.29.5.5,0,0,0,.34.11.37.37,0,0,0,.25-.07.23.23,0,0,0,.09-.19c0-.12-.09-.2-.29-.24l-.34-.08a1.15,1.15,0,0,1-.67-.34.81.81,0,0,1-.22-.58.9.9,0,0,1,.33-.7,1.21,1.21,0,0,1,.82-.29,1.24,1.24,0,0,1,.87.28,1,1,0,0,1,.32.61l-.76.14a.42.42,0,0,0-.12-.27.45.45,0,0,0-.3-.1.42.42,0,0,0-.23.07.24.24,0,0,0-.1.19c0,.12.08.19.24.22l.39.08a1.25,1.25,0,0,1,.69.34.88.88,0,0,1,.23.6,1,1,0,0,1-.31.71,1.22,1.22,0,0,1-.88.29,1.72,1.72,0,0,1-.58-.09,1,1,0,0,1-.59-.55A.88.88,0,0,1,134.67,20.57Z" transform="translate(-1.63 -16.99)"/>
    <path class="cls-1" d="M1.63,23.54v-.48H137.31v.48Z" transform="translate(-1.63 -16.99)"/>
  </g>
</svg>
