<svg id="Layer_1" data-name="Layer 1" xmlns="http://www.w3.org/2000/svg" viewBox="0 0 203.52 9.84">
  <defs>
    <style>
      .cls-1 {
        fill: #08009f;
      }
    </style>
  </defs>
  <title>P1Link</title>
  <g>
    <path class="cls-1" d="M8.53,47.72l1.2-.34a1,1,0,0,0,.33.54,1,1,0,0,0,.64.2A1,1,0,0,0,11.8,47v-.21a1.31,1.31,0,0,1-1.19.51,2,2,0,0,1-1.49-.62,2.33,2.33,0,0,1,0-3.1,1.93,1.93,0,0,1,1.49-.65,1.74,1.74,0,0,1,.81.17,1.11,1.11,0,0,1,.43.39V43h1.3v3.92a2.5,2.5,0,0,1-.6,1.72,2.28,2.28,0,0,1-1.79.68,2.47,2.47,0,0,1-1.53-.47A1.74,1.74,0,0,1,8.53,47.72Zm1.63-1.9a1,1,0,0,0,.7.27.93.93,0,0,0,.69-.27,1,1,0,0,0,.26-.72,1,1,0,0,0-.28-.72.92.92,0,0,0-.67-.27.94.94,0,0,0-.68.27,1.07,1.07,0,0,0,0,1.44Z" transform="translate(-8.24 -40.82)"/>
    <path class="cls-1" d="M14.42,42.19a.81.81,0,0,1,0-1.13.76.76,0,0,1,.56-.24.78.78,0,0,1,.57.24.79.79,0,0,1,0,1.13.78.78,0,0,1-.57.24A.76.76,0,0,1,14.42,42.19Zm1.25,5.28H14.3V43h1.37Z" transform="translate(-8.24 -40.82)"/>
    <path class="cls-1" d="M18.51,41.69V43h.87v1.2h-.87v1.67c0,.32.16.47.49.47a1.59,1.59,0,0,0,.36,0v1.13a1.66,1.66,0,0,1-.71.13,1.48,1.48,0,0,1-1.09-.39,1.39,1.39,0,0,1-.4-1V44.19h-.79V43h.22a.64.64,0,0,0,.52-.2.8.8,0,0,0,.17-.53v-.57Z" transform="translate(-8.24 -40.82)"/>
    <path class="cls-1" d="M21.39,44.84v2.63H20V41h1.37v2.33a1.83,1.83,0,0,1,2.4.1,1.87,1.87,0,0,1,.43,1.28v2.81H22.85V44.89a.84.84,0,0,0-.18-.56.69.69,0,0,0-.54-.21.72.72,0,0,0-.52.2A.75.75,0,0,0,21.39,44.84Z" transform="translate(-8.24 -40.82)"/>
    <path class="cls-1" d="M28.25,47.47a2.64,2.64,0,0,1,0-.45,1,1,0,0,1-.5.4,1.65,1.65,0,0,1-.7.14,1.62,1.62,0,0,1-1.25-.49,1.81,1.81,0,0,1-.45-1.25V43h1.37v2.54a.86.86,0,0,0,.18.56.69.69,0,0,0,.54.21.7.7,0,0,0,.54-.21.74.74,0,0,0,.21-.55V43h1.36v3.68a6.47,6.47,0,0,0,.05.8Z" transform="translate(-8.24 -40.82)"/>
    <path class="cls-1" d="M32.05,47.47H30.73V41h1.34v2.47a1.12,1.12,0,0,1,.5-.38,2,2,0,0,1,.8-.16,1.88,1.88,0,0,1,1.51.66,2.44,2.44,0,0,1,.56,1.68,2.4,2.4,0,0,1-.59,1.68,2,2,0,0,1-1.54.66,1.67,1.67,0,0,1-.76-.16,1.14,1.14,0,0,1-.5-.44Zm2-2.25a1.11,1.11,0,0,0-.29-.82,1,1,0,0,0-.72-.28,1,1,0,0,0-.73.28,1.3,1.3,0,0,0,0,1.65,1,1,0,0,0,.72.29,1,1,0,0,0,.71-.29A1.11,1.11,0,0,0,34.08,45.22Z" transform="translate(-8.24 -40.82)"/>
    <path class="cls-1" d="M36.36,47.27a.92.92,0,1,1,1.3-1.3.86.86,0,0,1,.28.65.88.88,0,0,1-.28.65.9.9,0,0,1-.65.28A.86.86,0,0,1,36.36,47.27Z" transform="translate(-8.24 -40.82)"/>
    <path class="cls-1" d="M41,44.12a1,1,0,0,0-.73.3,1.26,1.26,0,0,0,0,1.62,1,1,0,0,0,.74.3,1,1,0,0,0,.61-.19,1,1,0,0,0,.32-.48l1.2.37a2,2,0,0,1-.72,1.1A2.15,2.15,0,0,1,41,47.6a2.38,2.38,0,0,1-1.71-.67,2.37,2.37,0,0,1,1.66-4.07,2.23,2.23,0,0,1,1.44.45,2,2,0,0,1,.72,1.11l-1.23.36a.89.89,0,0,0-.31-.47A.84.84,0,0,0,41,44.12Z" transform="translate(-8.24 -40.82)"/>
    <path class="cls-1" d="M46,42.86a2.33,2.33,0,0,1,1.69.66,2.48,2.48,0,0,1,0,3.41A2.4,2.4,0,1,1,46,42.86Zm0,3.48a.94.94,0,0,0,.71-.29,1.09,1.09,0,0,0,.29-.83,1.07,1.07,0,0,0-.29-.82,1,1,0,0,0-1.43,0,1.1,1.1,0,0,0-.29.81,1.15,1.15,0,0,0,.29.83A1,1,0,0,0,46,46.34Z" transform="translate(-8.24 -40.82)"/>
    <path class="cls-1" d="M50.59,47.47H49.22V43h1.31v.52a1.17,1.17,0,0,1,.53-.47,1.73,1.73,0,0,1,.76-.18,1.34,1.34,0,0,1,1.32.7,1.56,1.56,0,0,1,1.38-.7,1.67,1.67,0,0,1,1.18.43,1.62,1.62,0,0,1,.48,1.28v2.9H54.86v-2.6a.8.8,0,0,0-.18-.54.66.66,0,0,0-.53-.21.68.68,0,0,0-.55.22.8.8,0,0,0-.2.54v2.59H52.05v-2.6a.8.8,0,0,0-.18-.54.7.7,0,0,0-.54-.21.67.67,0,0,0-.54.22.83.83,0,0,0-.2.55Z" transform="translate(-8.24 -40.82)"/>
    <path class="cls-1" d="M61.19,41l-3.25,6.63H56.73L60,41Z" transform="translate(-8.24 -40.82)"/>
    <path class="cls-1" d="M60.54,46.2,61.7,46a.63.63,0,0,0,.19.43.73.73,0,0,0,.51.17.62.62,0,0,0,.39-.11.34.34,0,0,0,.13-.27c0-.18-.15-.31-.44-.37L62,45.72a1.86,1.86,0,0,1-1-.51,1.23,1.23,0,0,1-.32-.87,1.34,1.34,0,0,1,.49-1.05,1.75,1.75,0,0,1,1.22-.43,1.81,1.81,0,0,1,1.31.42,1.41,1.41,0,0,1,.49.91L63,44.4a.57.57,0,0,0-.64-.55A.51.51,0,0,0,62,44a.33.33,0,0,0-.14.27c0,.19.11.3.35.34l.59.12a1.83,1.83,0,0,1,1,.51,1.28,1.28,0,0,1,.35.89,1.45,1.45,0,0,1-.47,1.07,1.85,1.85,0,0,1-1.31.44,2.62,2.62,0,0,1-.88-.14,1.44,1.44,0,0,1-.59-.38,2,2,0,0,1-.3-.45A1.27,1.27,0,0,1,60.54,46.2Z" transform="translate(-8.24 -40.82)"/>
    <path class="cls-1" d="M66.47,47.47H65.1V41h1.37Z" transform="translate(-8.24 -40.82)"/>
    <path class="cls-1" d="M70.6,45.85l1.14.33a1.86,1.86,0,0,1-.71,1,2.18,2.18,0,0,1-1.35.4A2.43,2.43,0,0,1,68,43.51a2.19,2.19,0,0,1,1.57-.65,2.16,2.16,0,0,1,1.64.61,2.27,2.27,0,0,1,.6,1.68,3.16,3.16,0,0,1,0,.43H68.68a.81.81,0,0,0,.32.61,1,1,0,0,0,.7.25A.85.85,0,0,0,70.6,45.85Zm-1.89-1.16H70.5a.79.79,0,0,0-.24-.53,1,1,0,0,0-1.29,0A.84.84,0,0,0,68.71,44.69Z" transform="translate(-8.24 -40.82)"/>
    <path class="cls-1" d="M75.63,45.85l1.14.33a1.86,1.86,0,0,1-.71,1,2.18,2.18,0,0,1-1.35.4A2.43,2.43,0,0,1,73,43.51a2.19,2.19,0,0,1,1.57-.65,2.16,2.16,0,0,1,1.64.61,2.27,2.27,0,0,1,.6,1.68,3.16,3.16,0,0,1,0,.43H73.71a.81.81,0,0,0,.32.61,1,1,0,0,0,.7.25A.85.85,0,0,0,75.63,45.85Zm-1.89-1.16h1.79a.79.79,0,0,0-.24-.53.88.88,0,0,0-.66-.22.89.89,0,0,0-.63.23A.84.84,0,0,0,73.74,44.69Z" transform="translate(-8.24 -40.82)"/>
    <path class="cls-1" d="M79.1,49.18H77.74V43h1.32v.46a1.2,1.2,0,0,1,.51-.4,1.85,1.85,0,0,1,.8-.17,1.9,1.9,0,0,1,1.52.66,2.49,2.49,0,0,1,.56,1.68,2.4,2.4,0,0,1-.6,1.68,2,2,0,0,1-1.53.66,1.46,1.46,0,0,1-1.22-.45Zm1.72-3.13a1.15,1.15,0,0,0,.29-.83,1.1,1.1,0,0,0-.29-.81,1,1,0,0,0-.73-.29.94.94,0,0,0-.71.29,1.06,1.06,0,0,0-.29.81,1.11,1.11,0,0,0,.29.83,1,1,0,0,0,.71.29A1,1,0,0,0,80.82,46.05Z" transform="translate(-8.24 -40.82)"/>
    <path class="cls-1" d="M84.7,47.47H83.33V41H84.7Z" transform="translate(-8.24 -40.82)"/>
    <path class="cls-1" d="M88.83,45.85l1.15.33a1.93,1.93,0,0,1-.72,1,2.18,2.18,0,0,1-1.35.4A2.34,2.34,0,0,1,86.26,47a2.29,2.29,0,0,1-.68-1.73,2.31,2.31,0,0,1,.66-1.71,2.37,2.37,0,0,1,3.22,0,2.27,2.27,0,0,1,.6,1.68,1.79,1.79,0,0,1,0,.43H86.92a.8.8,0,0,0,.31.61,1,1,0,0,0,.7.25A.85.85,0,0,0,88.83,45.85Zm-1.89-1.16h1.79a.79.79,0,0,0-.24-.53.86.86,0,0,0-.66-.22.85.85,0,0,0-.89.75Z" transform="translate(-8.24 -40.82)"/>
    <path class="cls-1" d="M90.57,46.2,91.73,46a.68.68,0,0,0,.19.43.73.73,0,0,0,.51.17.62.62,0,0,0,.39-.11.34.34,0,0,0,.13-.27c0-.18-.14-.31-.44-.37L92,45.72a1.86,1.86,0,0,1-1-.51,1.28,1.28,0,0,1-.32-.87,1.34,1.34,0,0,1,.49-1.05,1.79,1.79,0,0,1,1.23-.43,1.82,1.82,0,0,1,1.31.42,1.44,1.44,0,0,1,.48.91L93,44.4a.6.6,0,0,0-.18-.4.65.65,0,0,0-.46-.15.51.51,0,0,0-.34.11.33.33,0,0,0-.14.27c0,.19.12.3.35.34l.59.12a1.8,1.8,0,0,1,1,.51,1.28,1.28,0,0,1,.35.89,1.45,1.45,0,0,1-.47,1.07,1.85,1.85,0,0,1-1.31.44,2.66,2.66,0,0,1-.88-.14,1.4,1.4,0,0,1-.58-.38,1.73,1.73,0,0,1-.31-.45A1.27,1.27,0,0,1,90.57,46.2Z" transform="translate(-8.24 -40.82)"/>
    <path class="cls-1" d="M94.76,46.2,95.92,46a.64.64,0,0,0,.71.6.61.61,0,0,0,.38-.11.35.35,0,0,0,.14-.27c0-.18-.15-.31-.44-.37l-.52-.12a1.82,1.82,0,0,1-1-.51,1.24,1.24,0,0,1-.33-.87,1.38,1.38,0,0,1,.49-1.05,1.79,1.79,0,0,1,1.23-.43,1.82,1.82,0,0,1,1.31.42,1.44,1.44,0,0,1,.48.91l-1.13.21a.59.59,0,0,0-.64-.55.5.5,0,0,0-.34.11.32.32,0,0,0-.15.27c0,.19.12.3.35.34l.6.12a1.77,1.77,0,0,1,1,.51,1.24,1.24,0,0,1,.35.89A1.44,1.44,0,0,1,98,47.16a1.88,1.88,0,0,1-1.32.44,2.56,2.56,0,0,1-.87-.14,1.44,1.44,0,0,1-.59-.38,2,2,0,0,1-.31-.45A1.56,1.56,0,0,1,94.76,46.2Z" transform="translate(-8.24 -40.82)"/>
    <path class="cls-1" d="M99,47.72l1.21-.34a1,1,0,0,0,.33.54,1,1,0,0,0,.63.2A1,1,0,0,0,102.28,47v-.21a1.32,1.32,0,0,1-1.2.51,2,2,0,0,1-1.48-.62,2.32,2.32,0,0,1,0-3.1,1.93,1.93,0,0,1,1.49-.65,1.74,1.74,0,0,1,.81.17,1.11,1.11,0,0,1,.43.39V43h1.31v3.92a2.46,2.46,0,0,1-.61,1.72,2.26,2.26,0,0,1-1.79.68,2.42,2.42,0,0,1-1.52-.47A1.75,1.75,0,0,1,99,47.72Zm1.64-1.9a1,1,0,0,0,1.38,0,1,1,0,0,0,.27-.72,1,1,0,0,0-.28-.72.94.94,0,0,0-.68-.27.94.94,0,0,0-1,1A1,1,0,0,0,100.64,45.82Z" transform="translate(-8.24 -40.82)"/>
    <path class="cls-1" d="M106.15,47.47h-1.37V41h1.37Z" transform="translate(-8.24 -40.82)"/>
    <path class="cls-1" d="M109.41,42.86a2.29,2.29,0,0,1,2.37,2.36,2.4,2.4,0,1,1-2.37-2.36Zm0,3.48a.94.94,0,0,0,.71-.29,1.09,1.09,0,0,0,.29-.83,1.07,1.07,0,0,0-.29-.82,1,1,0,0,0-1.43,0,1.1,1.1,0,0,0-.29.81,1.15,1.15,0,0,0,.29.83A1,1,0,0,0,109.41,46.34Z" transform="translate(-8.24 -40.82)"/>
    <path class="cls-1" d="M115.51,43v1.35a1.94,1.94,0,0,0-.44,0,1.05,1.05,0,0,0-.75.29,1.3,1.3,0,0,0-.29.92v2h-1.37V43H114v.61a1,1,0,0,1,.49-.5,1.59,1.59,0,0,1,.67-.15A1.37,1.37,0,0,1,115.51,43Z" transform="translate(-8.24 -40.82)"/>
    <path class="cls-1" d="M118.31,49.18h-1.44l1-2.32L116,43h1.53l1.09,2.4,1-2.4h1.45Z" transform="translate(-8.24 -40.82)"/>
    <path class="cls-1" d="M125.19,41,122,47.59h-1.21L124,41Z" transform="translate(-8.24 -40.82)"/>
    <path class="cls-1" d="M126.69,44.12a1,1,0,0,0-.73.3,1.11,1.11,0,0,0-.29.81,1.06,1.06,0,0,0,.3.81,1,1,0,0,0,.74.3.93.93,0,0,0,.61-.19,1,1,0,0,0,.32-.48l1.21.37a2,2,0,0,1-.73,1.1,2.12,2.12,0,0,1-1.41.46,2.34,2.34,0,0,1-1.7-.67,2.24,2.24,0,0,1-.7-1.7,2.31,2.31,0,0,1,2.36-2.37,2.2,2.2,0,0,1,1.43.45,2,2,0,0,1,.72,1.11l-1.23.36a.87.87,0,0,0-.3-.47A.88.88,0,0,0,126.69,44.12Z" transform="translate(-8.24 -40.82)"/>
    <path class="cls-1" d="M131.69,42.86a2.35,2.35,0,0,1,1.7.66A2.4,2.4,0,0,1,130,46.93a2.29,2.29,0,0,1-.69-1.71,2.26,2.26,0,0,1,.69-1.69A2.3,2.3,0,0,1,131.69,42.86Zm0,3.48a.94.94,0,0,0,.71-.29,1.1,1.1,0,0,0,.3-.83,1.07,1.07,0,0,0-.3-.82,1,1,0,0,0-.71-.28,1,1,0,0,0-.71.29,1.06,1.06,0,0,0-.3.81,1.11,1.11,0,0,0,.3.83A1,1,0,0,0,131.69,46.34Z" transform="translate(-8.24 -40.82)"/>
    <path class="cls-1" d="M136.31,47.47H135V43h1.3v.52a1.15,1.15,0,0,1,.54-.47,1.72,1.72,0,0,1,.75-.18,1.34,1.34,0,0,1,1.32.7,1.59,1.59,0,0,1,1.39-.7,1.68,1.68,0,0,1,1.18.43,1.61,1.61,0,0,1,.47,1.28v2.9h-1.32v-2.6a.8.8,0,0,0-.18-.54.66.66,0,0,0-.53-.21.69.69,0,0,0-.55.22.8.8,0,0,0-.2.54v2.59h-1.35v-2.6a.8.8,0,0,0-.18-.54.69.69,0,0,0-.54-.21.67.67,0,0,0-.54.22.83.83,0,0,0-.2.55Z" transform="translate(-8.24 -40.82)"/>
    <path class="cls-1" d="M144.42,49.18h-1.37V43h1.33v.46a1.2,1.2,0,0,1,.51-.4,1.85,1.85,0,0,1,.8-.17,1.9,1.9,0,0,1,1.52.66,2.49,2.49,0,0,1,.56,1.68,2.4,2.4,0,0,1-.6,1.68,2,2,0,0,1-1.53.66,1.46,1.46,0,0,1-1.22-.45Zm1.72-3.13a1.15,1.15,0,0,0,.29-.83,1.1,1.1,0,0,0-.29-.81,1,1,0,0,0-.73-.29.94.94,0,0,0-.71.29,1.06,1.06,0,0,0-.29.81,1.11,1.11,0,0,0,.29.83,1,1,0,0,0,.71.29A1,1,0,0,0,146.14,46.05Z" transform="translate(-8.24 -40.82)"/>
    <path class="cls-1" d="M151.58,45.85l1.14.33a1.86,1.86,0,0,1-.71,1,2.18,2.18,0,0,1-1.35.4A2.43,2.43,0,0,1,149,43.51a2.36,2.36,0,0,1,3.21,0,2.27,2.27,0,0,1,.6,1.68,1.79,1.79,0,0,1,0,.43h-3.11a.81.81,0,0,0,.32.61,1,1,0,0,0,.7.25A.85.85,0,0,0,151.58,45.85Zm-1.89-1.16h1.79a.79.79,0,0,0-.24-.53.89.89,0,0,0-.66-.22.85.85,0,0,0-.63.23A.84.84,0,0,0,149.69,44.69Z" transform="translate(-8.24 -40.82)"/>
    <path class="cls-1" d="M155.32,41.69V43h.88v1.2h-.88v1.67c0,.32.17.47.5.47a1.71,1.71,0,0,0,.36,0v1.13a1.7,1.7,0,0,1-.71.13,1.51,1.51,0,0,1-1.1-.39,1.42,1.42,0,0,1-.4-1V44.19h-.79V43h.23a.62.62,0,0,0,.51-.2.76.76,0,0,0,.18-.53v-.57Z" transform="translate(-8.24 -40.82)"/>
    <path class="cls-1" d="M157.28,42.19a.81.81,0,0,1,.56-1.37.78.78,0,0,1,.57.24.79.79,0,0,1,0,1.13.79.79,0,0,1-1.13,0Zm1.25,5.28h-1.36V43h1.36Z" transform="translate(-8.24 -40.82)"/>
    <path class="cls-1" d="M161.37,41.69V43h.87v1.2h-.87v1.67c0,.32.16.47.49.47a1.59,1.59,0,0,0,.36,0v1.13a1.63,1.63,0,0,1-.71.13,1.5,1.5,0,0,1-1.09-.39,1.39,1.39,0,0,1-.4-1V44.19h-.79V43h.22a.64.64,0,0,0,.52-.2.75.75,0,0,0,.17-.53v-.57Z" transform="translate(-8.24 -40.82)"/>
    <path class="cls-1" d="M163.33,42.19a.81.81,0,0,1,0-1.13.76.76,0,0,1,.56-.24.78.78,0,0,1,.57.24.79.79,0,0,1,0,1.13.78.78,0,0,1-.57.24A.76.76,0,0,1,163.33,42.19Zm1.25,5.28h-1.37V43h1.37Z" transform="translate(-8.24 -40.82)"/>
    <path class="cls-1" d="M167.83,42.86a2.35,2.35,0,0,1,1.7.66,2.4,2.4,0,0,1-3.39,3.41,2.29,2.29,0,0,1-.69-1.71,2.26,2.26,0,0,1,.69-1.69A2.3,2.3,0,0,1,167.83,42.86Zm0,3.48a.94.94,0,0,0,.71-.29,1.1,1.1,0,0,0,.3-.83,1.07,1.07,0,0,0-.3-.82,1,1,0,0,0-.71-.28,1,1,0,0,0-.71.29,1.06,1.06,0,0,0-.3.81,1.11,1.11,0,0,0,.3.83A1,1,0,0,0,167.83,46.34Z" transform="translate(-8.24 -40.82)"/>
    <path class="cls-1" d="M172.46,44.9v2.57h-1.37V43h1.32v.52a1.12,1.12,0,0,1,.53-.47,1.68,1.68,0,0,1,.72-.16,1.47,1.47,0,0,1,1.22.5,2,2,0,0,1,.41,1.28v2.81h-1.37V44.89a.84.84,0,0,0-.18-.56.69.69,0,0,0-.55-.21.67.67,0,0,0-.53.22A.77.77,0,0,0,172.46,44.9Z" transform="translate(-8.24 -40.82)"/>
    <path class="cls-1" d="M178.94,45.37h-2.7V44.14h2.7Z" transform="translate(-8.24 -40.82)"/>
    <path class="cls-1" d="M182.8,43v1.35a1.94,1.94,0,0,0-.44,0,1.05,1.05,0,0,0-.75.29,1.3,1.3,0,0,0-.29.92v2H180V43h1.32v.61a1,1,0,0,1,.5-.5,1.59,1.59,0,0,1,.67-.15A1.37,1.37,0,0,1,182.8,43Z" transform="translate(-8.24 -40.82)"/>
    <path class="cls-1" d="M186.5,45.85l1.14.33a1.91,1.91,0,0,1-.71,1,2.18,2.18,0,0,1-1.35.4,2.3,2.3,0,0,1-1.65-.65,2.25,2.25,0,0,1-.68-1.73,2.31,2.31,0,0,1,.66-1.71,2.36,2.36,0,0,1,3.21,0,2.27,2.27,0,0,1,.6,1.68,1.79,1.79,0,0,1,0,.43h-3.11a.8.8,0,0,0,.31.61,1.06,1.06,0,0,0,.7.25A.86.86,0,0,0,186.5,45.85Zm-1.9-1.16h1.8a.8.8,0,0,0-.9-.75.87.87,0,0,0-.9.75Z" transform="translate(-8.24 -40.82)"/>
    <path class="cls-1" d="M190.66,44.12a1,1,0,0,0-.73.3,1.26,1.26,0,0,0,0,1.62,1,1,0,0,0,.74.3.93.93,0,0,0,.61-.19,1,1,0,0,0,.32-.48l1.2.37a2,2,0,0,1-.72,1.1,2.15,2.15,0,0,1-1.41.46,2.38,2.38,0,0,1-1.71-.67,2.37,2.37,0,0,1,1.66-4.07,2.23,2.23,0,0,1,1.44.45,2,2,0,0,1,.72,1.11l-1.23.36a.87.87,0,0,0-.3-.47A.88.88,0,0,0,190.66,44.12Z" transform="translate(-8.24 -40.82)"/>
    <path class="cls-1" d="M195.66,42.86a2.33,2.33,0,0,1,1.69.66,2.48,2.48,0,0,1,0,3.41,2.3,2.3,0,0,1-1.69.67,2.31,2.31,0,0,1-2.38-2.38,2.29,2.29,0,0,1,.68-1.69A2.34,2.34,0,0,1,195.66,42.86Zm0,3.48a.94.94,0,0,0,.71-.29,1.1,1.1,0,0,0,.3-.83,1.07,1.07,0,0,0-.3-.82,1,1,0,0,0-.71-.28.94.94,0,0,0-.71.29,1.06,1.06,0,0,0-.3.81,1.11,1.11,0,0,0,.3.83A1,1,0,0,0,195.66,46.34Z" transform="translate(-8.24 -40.82)"/>
    <path class="cls-1" d="M201.76,43v1.35a1.91,1.91,0,0,0-.43,0,1,1,0,0,0-.75.29,1.26,1.26,0,0,0-.3.92v2h-1.37V43h1.33v.61a1,1,0,0,1,.49-.5,1.63,1.63,0,0,1,.67-.15A1.28,1.28,0,0,1,201.76,43Z" transform="translate(-8.24 -40.82)"/>
    <path class="cls-1" d="M206.93,41v5.72c0,.26,0,.53,0,.8h-1.31a2.18,2.18,0,0,1,0-.44,1.18,1.18,0,0,1-.48.39,1.85,1.85,0,0,1-.72.14,2.1,2.1,0,0,1-1.58-.66,2.57,2.57,0,0,1,0-3.35,2,2,0,0,1,1.56-.67,1.33,1.33,0,0,1,1.2.46V41Zm-3.05,3.46a1.06,1.06,0,0,0-.29.81,1.11,1.11,0,0,0,.29.83,1,1,0,0,0,.71.29,1,1,0,0,0,.72-.29,1.15,1.15,0,0,0,.29-.83,1.1,1.1,0,0,0-.29-.81,1,1,0,0,0-.72-.29A.94.94,0,0,0,203.88,44.41Z" transform="translate(-8.24 -40.82)"/>
    <path class="cls-1" d="M207.8,46.2,209,46a.68.68,0,0,0,.19.43.73.73,0,0,0,.51.17.62.62,0,0,0,.39-.11.34.34,0,0,0,.13-.27c0-.18-.14-.31-.44-.37l-.51-.12a1.86,1.86,0,0,1-1-.51,1.23,1.23,0,0,1-.32-.87,1.34,1.34,0,0,1,.49-1.05,1.76,1.76,0,0,1,1.23-.43,1.8,1.8,0,0,1,1.3.42,1.41,1.41,0,0,1,.49.91l-1.14.21a.57.57,0,0,0-.64-.55.51.51,0,0,0-.34.11.33.33,0,0,0-.14.27c0,.19.11.3.35.34l.59.12a1.83,1.83,0,0,1,1,.51,1.28,1.28,0,0,1,.35.89,1.45,1.45,0,0,1-.47,1.07,1.85,1.85,0,0,1-1.31.44,2.62,2.62,0,0,1-.88-.14,1.44,1.44,0,0,1-.59-.38,2,2,0,0,1-.3-.45A1.27,1.27,0,0,1,207.8,46.2Z" transform="translate(-8.24 -40.82)"/>
    <path class="cls-1" d="M8.24,50.66v-.72H211.76v.72Z" transform="translate(-8.24 -40.82)"/>
  </g>
</svg>
