<svg id="Layer_1" data-name="Layer 1" xmlns="http://www.w3.org/2000/svg" xmlns:xlink="http://www.w3.org/1999/xlink" viewBox="0 0 1440 837.47">
  <defs>
    <style>
      .cls-1 {
        fill: #08009f;
      }
    </style>
  </defs>
  <title>P2</title>
  <image width="1920" height="946" transform="translate(0 127.97) scale(0.75)" xlink:href="../../../Downloads/P2.png"/>
  <g>
    <path class="cls-1" d="M552.44,357.17l8.11-24h8.06l-12.43,34h-7.82l-12.48-34h8.35Z" transform="translate(-266.11 -331.82)"/>
    <path class="cls-1" d="M585.61,355h-5.24v12.25h-7.58v-34h12.82a11.74,11.74,0,0,1,8.42,3.08A11.12,11.12,0,0,1,594,352,11.83,11.83,0,0,1,585.61,355Zm-5.19-6.52h4.42a5.1,5.1,0,0,0,3.5-1.18,4,4,0,0,0,1.35-3.14,4,4,0,0,0-1.32-3.19,5.11,5.11,0,0,0-3.53-1.18h-4.42Z" transform="translate(-266.11 -331.82)"/>
    <path class="cls-1" d="M631.54,367.25h-8l-14-22.37v22.37H602v-34h9.22L624,353.9V333.21h7.58Z" transform="translate(-266.11 -331.82)"/>
    <path class="cls-1" d="M650.84,339.12a4.28,4.28,0,0,1,3-7.3,4.21,4.21,0,0,1,3.05,1.25,4.24,4.24,0,0,1,0,6.05,4.21,4.21,0,0,1-3.05,1.25A4.06,4.06,0,0,1,650.84,339.12Zm6.67,28.13h-7.3V343.39h7.3Z" transform="translate(-266.11 -331.82)"/>
    <path class="cls-1" d="M661.92,360.48l6.2-1.11a3.41,3.41,0,0,0,1,2.28,3.64,3.64,0,0,0,2.71.94,3.12,3.12,0,0,0,2.06-.6,1.85,1.85,0,0,0,.72-1.47c0-1-.78-1.61-2.35-2l-2.73-.63a9.56,9.56,0,0,1-5.38-2.71,6.74,6.74,0,0,1-1.73-4.63,7.21,7.21,0,0,1,2.62-5.62,9.57,9.57,0,0,1,6.55-2.3q4.65,0,7,2.23a7.64,7.64,0,0,1,2.57,4.87l-6,1.11a3.35,3.35,0,0,0-1-2.11,3.32,3.32,0,0,0-2.42-.82,3,3,0,0,0-1.83.57,1.8,1.8,0,0,0-.76,1.49c0,1,.62,1.56,1.87,1.78l3.16.62a9.93,9.93,0,0,1,5.48,2.74,6.78,6.78,0,0,1,1.87,4.75,7.57,7.57,0,0,1-2.5,5.69,9.77,9.77,0,0,1-7,2.38,13.27,13.27,0,0,1-4.68-.77,7.71,7.71,0,0,1-3.12-2,10.23,10.23,0,0,1-1.63-2.43A7.1,7.1,0,0,1,661.92,360.48Z" transform="translate(-266.11 -331.82)"/>
    <path class="cls-1" d="M713.24,343.39v7.2a10.06,10.06,0,0,0-2.31-.24,5.41,5.41,0,0,0-4,1.58,6.75,6.75,0,0,0-1.56,4.9v10.42h-7.29V343.39h7v3.21a5.32,5.32,0,0,1,2.64-2.63,8.4,8.4,0,0,1,3.56-.82A6.9,6.9,0,0,1,713.24,343.39Z" transform="translate(-266.11 -331.82)"/>
    <path class="cls-1" d="M733,358.65l6.1,1.73a9.91,9.91,0,0,1-3.79,5.45,11.78,11.78,0,0,1-7.2,2.14,12.32,12.32,0,0,1-8.81-3.46,13.56,13.56,0,0,1-.1-18.34,11.53,11.53,0,0,1,8.38-3.5q5.57,0,8.76,3.24t3.19,9a10.55,10.55,0,0,1-.14,2.26H722.74a4.37,4.37,0,0,0,1.68,3.28,5.66,5.66,0,0,0,3.74,1.32Q731.87,361.77,733,358.65Zm-10.08-6.19h9.56a4.29,4.29,0,0,0-1.28-2.83,4.72,4.72,0,0,0-3.52-1.2,4.54,4.54,0,0,0-3.36,1.25A4.46,4.46,0,0,0,722.88,352.46Z" transform="translate(-266.11 -331.82)"/>
    <path class="cls-1" d="M767.67,376.37h-7.15v-11q-1.74,2.44-6.25,2.44a11.17,11.17,0,0,1-8.47-3.52,13.9,13.9,0,0,1-.12-17.91,10.74,10.74,0,0,1,8.31-3.53,9.39,9.39,0,0,1,4.49.94,5.22,5.22,0,0,1,2.23,2v-2.35h7Zm-16.25-25.44a5.84,5.84,0,0,0-1.56,4.36,6,6,0,0,0,1.56,4.4,5.44,5.44,0,0,0,7.63,0,6,6,0,0,0,1.56-4.4,5.84,5.84,0,0,0-1.56-4.36,5.5,5.5,0,0,0-7.63,0Z" transform="translate(-266.11 -331.82)"/>
    <path class="cls-1" d="M789.46,367.25a11.58,11.58,0,0,1-.19-2.4,5.43,5.43,0,0,1-2.64,2.18,9.76,9.76,0,0,1-3.75.74,8.54,8.54,0,0,1-6.65-2.66,9.54,9.54,0,0,1-2.42-6.65V343.39h7.3v13.54a4.4,4.4,0,0,0,1,3,3.55,3.55,0,0,0,2.86,1.15,3.83,3.83,0,0,0,2.9-1.12,4.12,4.12,0,0,0,1.08-3V343.39h7.3V363a34.76,34.76,0,0,0,.24,4.28Z" transform="translate(-266.11 -331.82)"/>
    <path class="cls-1" d="M803.28,339.12a4.29,4.29,0,0,1,0-6.05,4.08,4.08,0,0,1,3-1.25,4.22,4.22,0,0,1,3,1.25,4.24,4.24,0,0,1,0,6.05,4.22,4.22,0,0,1-3,1.25A4.08,4.08,0,0,1,803.28,339.12ZM810,367.25h-7.29V343.39H810Z" transform="translate(-266.11 -331.82)"/>
    <path class="cls-1" d="M831.51,343.39v7.2a10.06,10.06,0,0,0-2.31-.24,5.41,5.41,0,0,0-4,1.58,6.75,6.75,0,0,0-1.56,4.9v10.42h-7.29V343.39h7v3.21A5.32,5.32,0,0,1,826,344a8.4,8.4,0,0,1,3.56-.82A6.9,6.9,0,0,1,831.51,343.39Z" transform="translate(-266.11 -331.82)"/>
    <path class="cls-1" d="M851.23,358.65l6.1,1.73a9.91,9.91,0,0,1-3.79,5.45,11.78,11.78,0,0,1-7.2,2.14,12.32,12.32,0,0,1-8.81-3.46,13.56,13.56,0,0,1-.1-18.34,11.53,11.53,0,0,1,8.38-3.5q5.57,0,8.76,3.24t3.19,9a10.55,10.55,0,0,1-.14,2.26H841a4.37,4.37,0,0,0,1.68,3.28,5.66,5.66,0,0,0,3.74,1.32Q850.14,361.77,851.23,358.65Zm-10.08-6.19h9.56a4.29,4.29,0,0,0-1.28-2.83,4.72,4.72,0,0,0-3.52-1.2,4.54,4.54,0,0,0-3.36,1.25A4.46,4.46,0,0,0,841.15,352.46Z" transform="translate(-266.11 -331.82)"/>
    <path class="cls-1" d="M885.94,332.49V363c0,1.44.06,2.87.19,4.28h-7a13.85,13.85,0,0,1-.19-2.31,6.24,6.24,0,0,1-2.57,2,8.9,8.9,0,0,1-3.81.79,11.17,11.17,0,0,1-8.45-3.52,13.77,13.77,0,0,1-.1-17.91,10.84,10.84,0,0,1,8.31-3.53q4.89,0,6.43,2.45V332.49Zm-16.3,18.44a5.84,5.84,0,0,0-1.56,4.36,6,6,0,0,0,1.56,4.4,5.44,5.44,0,0,0,7.63,0,6,6,0,0,0,1.56-4.4,5.84,5.84,0,0,0-1.56-4.36,5.5,5.5,0,0,0-7.63,0Z" transform="translate(-266.11 -331.82)"/>
    <path class="cls-1" d="M917.9,349.53h-5.18v17.72h-7.3V349.53h-3.79v-6.14h3.79v-2.06a9.24,9.24,0,0,1,2.43-6.7,8.84,8.84,0,0,1,6.69-2.52,8.29,8.29,0,0,1,3.46.53v5.95a8.92,8.92,0,0,0-2.16-.24,3.47,3.47,0,0,0-2.18.72,2.94,2.94,0,0,0-.94,2.49v1.83h5.18Z" transform="translate(-266.11 -331.82)"/>
    <path class="cls-1" d="M932.35,342.67a12.4,12.4,0,0,1,9,3.55,13.18,13.18,0,0,1,0,18.17,13.16,13.16,0,0,1-18.07,0,12.64,12.64,0,0,1,9-21.7Zm0,18.58a5.25,5.25,0,0,0,3.82-1.54,5.93,5.93,0,0,0,1.56-4.42,5.84,5.84,0,0,0-1.56-4.39,5.51,5.51,0,0,0-7.61,0,5.81,5.81,0,0,0-1.58,4.36,5.92,5.92,0,0,0,1.58,4.4A5.22,5.22,0,0,0,932.35,361.25Z" transform="translate(-266.11 -331.82)"/>
    <path class="cls-1" d="M964.9,343.39v7.2a10.06,10.06,0,0,0-2.31-.24,5.41,5.41,0,0,0-4,1.58,6.75,6.75,0,0,0-1.56,4.9v10.42h-7.29V343.39h7v3.21a5.32,5.32,0,0,1,2.64-2.63,8.4,8.4,0,0,1,3.56-.82A6.9,6.9,0,0,1,964.9,343.39Z" transform="translate(-266.11 -331.82)"/>
    <path class="cls-1" d="M979.44,360.67a6.37,6.37,0,0,1,2-4.87,9.3,9.3,0,0,1,5.09-2.33l5.61-.87c1.15-.15,1.73-.7,1.73-1.63a2.26,2.26,0,0,0-.93-1.84,4.69,4.69,0,0,0-5.48.28,3.65,3.65,0,0,0-1.17,2.48l-6.34-1.3a8.24,8.24,0,0,1,3-5.45q2.71-2.47,7.51-2.47,5.43,0,8,2.59a9,9,0,0,1,2.57,6.63v11.66a19.76,19.76,0,0,0,.28,3.7h-6.57a11.69,11.69,0,0,1-.24-2.69q-2.07,3.36-6.72,3.36a8.34,8.34,0,0,1-6-2.14A6.82,6.82,0,0,1,979.44,360.67Zm10,2a4.51,4.51,0,0,0,3.12-1.11,4.64,4.64,0,0,0,1.25-3.64v-1.06l-4.51.72c-1.79.29-2.69,1.17-2.69,2.64a2.39,2.39,0,0,0,.7,1.73A2.83,2.83,0,0,0,989.47,362.64Z" transform="translate(-266.11 -331.82)"/>
    <path class="cls-1" d="M1016.93,360.48l6.19-1.11a3.45,3.45,0,0,0,1,2.28,3.66,3.66,0,0,0,2.71.94,3.15,3.15,0,0,0,2.07-.6,1.85,1.85,0,0,0,.72-1.47c0-1-.79-1.61-2.35-2l-2.74-.63a9.63,9.63,0,0,1-5.38-2.71,6.73,6.73,0,0,1-1.72-4.63,7.23,7.23,0,0,1,2.61-5.62,9.6,9.6,0,0,1,6.56-2.3q4.65,0,7,2.23a7.69,7.69,0,0,1,2.57,4.87l-6,1.11a3.35,3.35,0,0,0-1-2.11,3.3,3.3,0,0,0-2.42-.82,3,3,0,0,0-1.82.57,1.78,1.78,0,0,0-.77,1.49c0,1,.62,1.56,1.87,1.78l3.17.62a9.9,9.9,0,0,1,5.47,2.74,6.74,6.74,0,0,1,1.87,4.75,7.6,7.6,0,0,1-2.49,5.69,9.79,9.79,0,0,1-7,2.38,13.27,13.27,0,0,1-4.68-.77,7.71,7.71,0,0,1-3.12-2,9.94,9.94,0,0,1-1.63-2.43A6.86,6.86,0,0,1,1016.93,360.48Z" transform="translate(-266.11 -331.82)"/>
    <path class="cls-1" d="M1050,336.43v7h4.66v6.38H1050v8.93c0,1.67.88,2.5,2.64,2.5a8.68,8.68,0,0,0,1.92-.24v6a8.62,8.62,0,0,1-3.79.68,8,8,0,0,1-5.83-2.07,7.4,7.4,0,0,1-2.14-5.61V349.77h-4.22v-6.38h1.2a3.47,3.47,0,0,0,2.76-1.08,4.16,4.16,0,0,0,.93-2.81v-3.07Z" transform="translate(-266.11 -331.82)"/>
    <path class="cls-1" d="M1058.59,360.67a6.37,6.37,0,0,1,2-4.87,9.3,9.3,0,0,1,5.09-2.33l5.61-.87c1.15-.15,1.73-.7,1.73-1.63a2.25,2.25,0,0,0-.94-1.84,4,4,0,0,0-2.56-.75,4.07,4.07,0,0,0-2.91,1,3.65,3.65,0,0,0-1.17,2.48l-6.34-1.3a8.24,8.24,0,0,1,3-5.45q2.71-2.47,7.51-2.47c3.62,0,6.28.86,8,2.59a9,9,0,0,1,2.56,6.63v11.66a19.65,19.65,0,0,0,.29,3.7h-6.57a11.69,11.69,0,0,1-.24-2.69q-2.07,3.36-6.72,3.36a8.34,8.34,0,0,1-6-2.14A6.82,6.82,0,0,1,1058.59,360.67Zm10,2a4.51,4.51,0,0,0,3.12-1.11,4.64,4.64,0,0,0,1.25-3.64v-1.06l-4.51.72c-1.79.29-2.69,1.17-2.69,2.64a2.39,2.39,0,0,0,.7,1.73A2.83,2.83,0,0,0,1068.62,362.64Z" transform="translate(-266.11 -331.82)"/>
    <path class="cls-1" d="M1093.29,367.25h-7V332.49h7.15v13.16a6,6,0,0,1,2.69-2,10.52,10.52,0,0,1,4.22-.82,10.14,10.14,0,0,1,8.09,3.48,13.24,13.24,0,0,1,3,9,12.92,12.92,0,0,1-3.19,9,10.55,10.55,0,0,1-8.19,3.52,9.06,9.06,0,0,1-4.08-.88,6.31,6.31,0,0,1-2.64-2.33Zm10.8-12a5.9,5.9,0,0,0-1.53-4.39,5.26,5.26,0,0,0-3.84-1.51,5.33,5.33,0,0,0-3.87,1.51,6.92,6.92,0,0,0,0,8.79,5.25,5.25,0,0,0,3.84,1.56,5.18,5.18,0,0,0,3.81-1.56A6,6,0,0,0,1104.09,355.29Z" transform="translate(-266.11 -331.82)"/>
    <path class="cls-1" d="M1123.39,367.25h-7.3V332.49h7.3Z" transform="translate(-266.11 -331.82)"/>
    <path class="cls-1" d="M1145.42,358.65l6.1,1.73a9.92,9.92,0,0,1-3.8,5.45,11.78,11.78,0,0,1-7.2,2.14,12.93,12.93,0,0,1-8.9-21.8,11.49,11.49,0,0,1,8.38-3.5q5.57,0,8.76,3.24t3.19,9a9.65,9.65,0,0,1-.15,2.26h-16.6a4.37,4.37,0,0,0,1.68,3.28,5.64,5.64,0,0,0,3.74,1.32Q1144.31,361.77,1145.42,358.65Zm-10.08-6.19h9.55a4.28,4.28,0,0,0-1.27-2.83,4.74,4.74,0,0,0-3.53-1.2,4.54,4.54,0,0,0-3.36,1.25A4.5,4.5,0,0,0,1135.34,352.46Z" transform="translate(-266.11 -331.82)"/>
    <path class="cls-1" d="M1179.45,349.39a5.28,5.28,0,0,0-3.91,1.58,6,6,0,0,0-1.56,4.37,5.76,5.76,0,0,0,1.61,4.32,5.41,5.41,0,0,0,4,1.59,4.92,4.92,0,0,0,4.94-3.56l6.43,2a10.9,10.9,0,0,1-3.86,5.86,11.51,11.51,0,0,1-7.51,2.45,12.65,12.65,0,0,1-9.1-3.58,12,12,0,0,1-3.72-9.05,12.31,12.31,0,0,1,12.58-12.67,11.79,11.79,0,0,1,7.63,2.4,10.8,10.8,0,0,1,3.84,5.9l-6.53,2a5,5,0,0,0-1.63-2.54A4.78,4.78,0,0,0,1179.45,349.39Z" transform="translate(-266.11 -331.82)"/>
    <path class="cls-1" d="M1206.09,342.67a12.4,12.4,0,0,1,9.05,3.55,13.21,13.21,0,0,1,0,18.17,13.16,13.16,0,0,1-18.07,0,13.07,13.07,0,0,1,0-18.12A12.36,12.36,0,0,1,1206.09,342.67Zm0,18.58a5.27,5.27,0,0,0,3.82-1.54,5.93,5.93,0,0,0,1.56-4.42,5.84,5.84,0,0,0-1.56-4.39,5.28,5.28,0,0,0-3.82-1.51,5.22,5.22,0,0,0-3.79,1.54,5.78,5.78,0,0,0-1.59,4.36,5.89,5.89,0,0,0,1.59,4.4A5.2,5.2,0,0,0,1206.09,361.25Z" transform="translate(-266.11 -331.82)"/>
    <path class="cls-1" d="M1230.76,353.56v13.69h-7.29V343.39h7v2.74a6.18,6.18,0,0,1,2.81-2.48,9,9,0,0,1,3.86-.88,7.91,7.91,0,0,1,6.48,2.66,10.33,10.33,0,0,1,2.21,6.84v15h-7.29V353.52a4.38,4.38,0,0,0-1-3,3.64,3.64,0,0,0-2.9-1.13,3.7,3.7,0,0,0-2.86,1.17A4.28,4.28,0,0,0,1230.76,353.56Z" transform="translate(-266.11 -331.82)"/>
    <path class="cls-1" d="M1259.32,353.56v13.69H1252V343.39h7v2.74a6.18,6.18,0,0,1,2.81-2.48,9,9,0,0,1,3.86-.88,7.91,7.91,0,0,1,6.48,2.66,10.33,10.33,0,0,1,2.21,6.84v15h-7.29V353.52a4.38,4.38,0,0,0-1-3,3.65,3.65,0,0,0-2.9-1.13,3.7,3.7,0,0,0-2.86,1.17A4.28,4.28,0,0,0,1259.32,353.56Z" transform="translate(-266.11 -331.82)"/>
    <path class="cls-1" d="M1296.19,358.65l6.09,1.73a9.91,9.91,0,0,1-3.79,5.45,11.78,11.78,0,0,1-7.2,2.14,12.32,12.32,0,0,1-8.81-3.46,13.56,13.56,0,0,1-.1-18.34,11.53,11.53,0,0,1,8.38-3.5q5.57,0,8.76,3.24t3.19,9a9.89,9.89,0,0,1-.14,2.26H1286a4.37,4.37,0,0,0,1.68,3.28,5.68,5.68,0,0,0,3.74,1.32Q1295.08,361.77,1296.19,358.65Zm-10.08-6.19h9.55a4.29,4.29,0,0,0-1.28-2.83,4.72,4.72,0,0,0-3.52-1.2,4.54,4.54,0,0,0-3.36,1.25A4.45,4.45,0,0,0,1286.11,352.46Z" transform="translate(-266.11 -331.82)"/>
    <path class="cls-1" d="M1318.41,349.39a5.28,5.28,0,0,0-3.91,1.58,6,6,0,0,0-1.56,4.37,5.79,5.79,0,0,0,1.6,4.32,5.44,5.44,0,0,0,4,1.59,4.92,4.92,0,0,0,5-3.56l6.43,2a11,11,0,0,1-3.86,5.86,11.52,11.52,0,0,1-7.52,2.45,12.64,12.64,0,0,1-9.09-3.58,12,12,0,0,1-3.72-9.05,12.31,12.31,0,0,1,12.58-12.67,11.79,11.79,0,0,1,7.63,2.4,10.8,10.8,0,0,1,3.84,5.9l-6.53,2a5,5,0,0,0-1.63-2.54A4.78,4.78,0,0,0,1318.41,349.39Z" transform="translate(-266.11 -331.82)"/>
    <path class="cls-1" d="M1343.08,336.43v7h4.66v6.38h-4.66v8.93c0,1.67.88,2.5,2.64,2.5a8.68,8.68,0,0,0,1.92-.24v6a8.59,8.59,0,0,1-3.79.68,8,8,0,0,1-5.83-2.07,7.4,7.4,0,0,1-2.14-5.61V349.77h-4.22v-6.38h1.2a3.47,3.47,0,0,0,2.76-1.08,4.16,4.16,0,0,0,.93-2.81v-3.07Z" transform="translate(-266.11 -331.82)"/>
    <path class="cls-1" d="M1353.54,339.12a4.28,4.28,0,0,1,3-7.3,4.22,4.22,0,0,1,3,1.25,4.24,4.24,0,0,1,0,6.05,4.22,4.22,0,0,1-3,1.25A4.1,4.1,0,0,1,1353.54,339.12Zm6.68,28.13h-7.3V343.39h7.3Z" transform="translate(-266.11 -331.82)"/>
    <path class="cls-1" d="M1377.54,342.67a12.39,12.39,0,0,1,9,3.55,13.18,13.18,0,0,1,0,18.17,13.16,13.16,0,0,1-18.07,0,12.64,12.64,0,0,1,9-21.7Zm0,18.58a5.25,5.25,0,0,0,3.82-1.54,5.93,5.93,0,0,0,1.56-4.42,5.84,5.84,0,0,0-1.56-4.39,5.51,5.51,0,0,0-7.61,0,5.81,5.81,0,0,0-1.58,4.36,5.92,5.92,0,0,0,1.58,4.4A5.22,5.22,0,0,0,1377.54,361.25Z" transform="translate(-266.11 -331.82)"/>
    <path class="cls-1" d="M1402.22,353.56v13.69h-7.3V343.39H1402v2.74a6.08,6.08,0,0,1,2.81-2.48,9,9,0,0,1,3.86-.88,7.91,7.91,0,0,1,6.48,2.66,10.39,10.39,0,0,1,2.21,6.84v15H1410V353.52a4.42,4.42,0,0,0-1-3,4.18,4.18,0,0,0-5.76,0A4.28,4.28,0,0,0,1402.22,353.56Z" transform="translate(-266.11 -331.82)"/>
    <path class="cls-1" d="M1432.94,333.21l-1.68,23.38h-5.38l-1.68-23.38Zm-8.55,30.39a4.05,4.05,0,0,1,1.2-3,3.94,3.94,0,0,1,2.93-1.23,4.2,4.2,0,0,1,4.18,4.18,3.94,3.94,0,0,1-1.23,2.9,4,4,0,0,1-3,1.23,3.94,3.94,0,0,1-2.93-1.23A4,4,0,0,1,1424.39,363.6Z" transform="translate(-266.11 -331.82)"/>
    <path class="cls-1" d="M540.43,426.19l6.44-1.82a4.93,4.93,0,0,0,1.75,2.88,5.24,5.24,0,0,0,3.38,1.1q5.91,0,5.91-6.1v-1.1q-1.78,2.69-6.39,2.69a10.53,10.53,0,0,1-7.92-3.31,11.56,11.56,0,0,1-3.17-8.31,11.75,11.75,0,0,1,3.15-8.23,10.28,10.28,0,0,1,7.94-3.43,9,9,0,0,1,4.32.91,5.58,5.58,0,0,1,2.31,2.06V401h7v20.88a13.36,13.36,0,0,1-3.22,9.19q-3.21,3.63-9.55,3.63a12.85,12.85,0,0,1-8.14-2.52A9.32,9.32,0,0,1,540.43,426.19Zm8.74-10.13a5,5,0,0,0,3.7,1.44,4.93,4.93,0,0,0,3.67-1.44,5.25,5.25,0,0,0,1.41-3.84,5.09,5.09,0,0,0-1.48-3.81,5,5,0,0,0-3.6-1.47,5.09,5.09,0,0,0-5.14,5.28A5.19,5.19,0,0,0,549.17,416.06Z" transform="translate(-266.11 -331.82)"/>
    <path class="cls-1" d="M571.87,396.72a4.28,4.28,0,0,1,3-7.3,4.22,4.22,0,0,1,3,1.25,4.24,4.24,0,0,1,0,6.05,4.22,4.22,0,0,1-3,1.25A4.1,4.1,0,0,1,571.87,396.72Zm6.68,28.13h-7.3V401h7.3Z" transform="translate(-266.11 -331.82)"/>
    <path class="cls-1" d="M593.67,394v7h4.65v6.38h-4.65v8.93c0,1.67.87,2.5,2.63,2.5a8.83,8.83,0,0,0,1.93-.24v6a8.67,8.67,0,0,1-3.8.68,8,8,0,0,1-5.83-2.07,7.44,7.44,0,0,1-2.14-5.61V407.37h-4.22V401h1.2a3.44,3.44,0,0,0,2.76-1.08,4.17,4.17,0,0,0,.94-2.81V394Z" transform="translate(-266.11 -331.82)"/>
    <path class="cls-1" d="M609,410.83v14h-7.29V390.09H609v12.44a8.26,8.26,0,0,1,6.1-2.16c3,0,5.22.88,6.74,2.66a10.16,10.16,0,0,1,2.28,6.84v15h-7.29V411.12a4.38,4.38,0,0,0-1-3A3.64,3.64,0,0,0,613,407a3.74,3.74,0,0,0-2.76,1.08A4.12,4.12,0,0,0,609,410.83Z" transform="translate(-266.11 -331.82)"/>
    <path class="cls-1" d="M645.65,424.85a11.58,11.58,0,0,1-.19-2.4,5.43,5.43,0,0,1-2.64,2.18,9.58,9.58,0,0,1-3.75.74,8.54,8.54,0,0,1-6.65-2.66,9.54,9.54,0,0,1-2.42-6.65V401h7.3v13.54a4.4,4.4,0,0,0,1,3,3.55,3.55,0,0,0,2.86,1.15,3.83,3.83,0,0,0,2.9-1.12,4.12,4.12,0,0,0,1.08-3V401h7.3v19.58a34.76,34.76,0,0,0,.24,4.28Z" transform="translate(-266.11 -331.82)"/>
    <path class="cls-1" d="M665.9,424.85h-7V390.09H666v13.16a6,6,0,0,1,2.69-2,10.52,10.52,0,0,1,4.22-.82,10.14,10.14,0,0,1,8.09,3.48,13.24,13.24,0,0,1,3,9,12.92,12.92,0,0,1-3.19,9,10.55,10.55,0,0,1-8.19,3.52,9.06,9.06,0,0,1-4.08-.88,6.31,6.31,0,0,1-2.64-2.33Zm10.8-12a5.9,5.9,0,0,0-1.53-4.39,5.26,5.26,0,0,0-3.84-1.51,5.33,5.33,0,0,0-3.87,1.51,6.92,6.92,0,0,0,0,8.79,5.25,5.25,0,0,0,3.84,1.56,5.18,5.18,0,0,0,3.81-1.56A6,6,0,0,0,676.7,412.89Z" transform="translate(-266.11 -331.82)"/>
    <path class="cls-1" d="M688.9,423.81a4.77,4.77,0,0,1-1.44-3.48,4.92,4.92,0,0,1,4.89-4.89,4.79,4.79,0,0,1,3.48,1.44,4.66,4.66,0,0,1,1.47,3.45,5.06,5.06,0,0,1-4.95,4.95A4.66,4.66,0,0,1,688.9,423.81Z" transform="translate(-266.11 -331.82)"/>
    <path class="cls-1" d="M713.47,407a5.28,5.28,0,0,0-3.91,1.58,6,6,0,0,0-1.56,4.37,5.78,5.78,0,0,0,1.61,4.32,5.41,5.41,0,0,0,4,1.59,5,5,0,0,0,3.24-1,4.91,4.91,0,0,0,1.7-2.52l6.43,2a10.9,10.9,0,0,1-3.86,5.86,11.5,11.5,0,0,1-7.51,2.45,12.65,12.65,0,0,1-9.1-3.58,12,12,0,0,1-3.72-9.05,12.32,12.32,0,0,1,12.58-12.67,11.77,11.77,0,0,1,7.63,2.4,10.8,10.8,0,0,1,3.84,5.9l-6.53,2a5,5,0,0,0-1.63-2.54A4.78,4.78,0,0,0,713.47,407Z" transform="translate(-266.11 -331.82)"/>
    <path class="cls-1" d="M740.11,400.27a12.4,12.4,0,0,1,9,3.55,13.21,13.21,0,0,1,0,18.17,13.16,13.16,0,0,1-18.07,0,13.07,13.07,0,0,1,0-18.12A12.36,12.36,0,0,1,740.11,400.27Zm0,18.58a5.27,5.27,0,0,0,3.82-1.54,5.93,5.93,0,0,0,1.56-4.42,5.84,5.84,0,0,0-1.56-4.39,5.51,5.51,0,0,0-7.61,0,5.77,5.77,0,0,0-1.58,4.36,5.88,5.88,0,0,0,1.58,4.4A5.22,5.22,0,0,0,740.11,418.85Z" transform="translate(-266.11 -331.82)"/>
    <path class="cls-1" d="M764.78,424.85h-7.29V401h7v2.74a6.21,6.21,0,0,1,2.85-2.5,9.18,9.18,0,0,1,4-1q5.15,0,7.06,3.74a8.46,8.46,0,0,1,7.39-3.74,9.08,9.08,0,0,1,6.29,2.28q2.54,2.28,2.54,6.84v15.46h-7.05V411a4.32,4.32,0,0,0-1-2.9,3.53,3.53,0,0,0-2.84-1.13,3.69,3.69,0,0,0-2.92,1.2,4.19,4.19,0,0,0-1.06,2.88v13.78h-7.2V411a4.28,4.28,0,0,0-1-2.9,4.12,4.12,0,0,0-5.74.07,4.31,4.31,0,0,0-1.06,2.93Z" transform="translate(-266.11 -331.82)"/>
    <path class="cls-1" d="M821.28,390.14,804,425.52h-6.48l17.23-35.38Z" transform="translate(-266.11 -331.82)"/>
    <path class="cls-1" d="M817.82,418.08,824,417a3.41,3.41,0,0,0,1,2.28,3.63,3.63,0,0,0,2.71.94,3.14,3.14,0,0,0,2.06-.6,1.84,1.84,0,0,0,.72-1.46c0-1-.78-1.62-2.35-2l-2.73-.63a9.56,9.56,0,0,1-5.38-2.71,6.74,6.74,0,0,1-1.73-4.63,7.21,7.21,0,0,1,2.62-5.62,9.57,9.57,0,0,1,6.55-2.3q4.65,0,7,2.23a7.64,7.64,0,0,1,2.57,4.87L831,408.48a3.1,3.1,0,0,0-3.4-2.93,2.92,2.92,0,0,0-1.83.58,1.78,1.78,0,0,0-.77,1.48c0,1,.63,1.56,1.88,1.78l3.16.62a9.93,9.93,0,0,1,5.48,2.74,6.78,6.78,0,0,1,1.87,4.75,7.61,7.61,0,0,1-2.5,5.69,9.77,9.77,0,0,1-7,2.38,13.27,13.27,0,0,1-4.68-.77,7.71,7.71,0,0,1-3.12-2,10.23,10.23,0,0,1-1.63-2.43A7.1,7.1,0,0,1,817.82,418.08Z" transform="translate(-266.11 -331.82)"/>
    <path class="cls-1" d="M849.45,424.85h-7.29V390.09h7.29Z" transform="translate(-266.11 -331.82)"/>
    <path class="cls-1" d="M871.49,416.25l6.09,1.73a9.91,9.91,0,0,1-3.79,5.45,11.78,11.78,0,0,1-7.2,2.14,12.93,12.93,0,0,1-8.9-21.8,11.49,11.49,0,0,1,8.37-3.5q5.57,0,8.76,3.24t3.19,9a9.89,9.89,0,0,1-.14,2.26H861.26a4.44,4.44,0,0,0,1.68,3.28,5.69,5.69,0,0,0,3.75,1.32Q870.38,419.37,871.49,416.25Zm-10.08-6.19H871a4.33,4.33,0,0,0-1.27-2.83,4.74,4.74,0,0,0-3.53-1.2,4.54,4.54,0,0,0-3.36,1.25A4.45,4.45,0,0,0,861.41,410.06Z" transform="translate(-266.11 -331.82)"/>
    <path class="cls-1" d="M898.32,416.25l6.09,1.73a9.91,9.91,0,0,1-3.79,5.45,11.78,11.78,0,0,1-7.2,2.14,12.93,12.93,0,0,1-8.9-21.8,11.49,11.49,0,0,1,8.37-3.5q5.57,0,8.76,3.24t3.2,9a9.65,9.65,0,0,1-.15,2.26H888.09a4.44,4.44,0,0,0,1.68,3.28,5.69,5.69,0,0,0,3.75,1.32Q897.21,419.37,898.32,416.25Zm-10.08-6.19h9.55a4.33,4.33,0,0,0-1.27-2.83A4.74,4.74,0,0,0,893,406a4.54,4.54,0,0,0-3.36,1.25A4.45,4.45,0,0,0,888.24,410.06Z" transform="translate(-266.11 -331.82)"/>
    <path class="cls-1" d="M916.85,434h-7.3V401h7.05v2.45a6.37,6.37,0,0,1,2.72-2.14,10,10,0,0,1,4.29-.89,10.14,10.14,0,0,1,8.09,3.48,13.24,13.24,0,0,1,3,9,12.92,12.92,0,0,1-3.19,9,10.55,10.55,0,0,1-8.18,3.52q-4.51,0-6.48-2.4ZM926,417.29a6,6,0,0,0,1.56-4.4,5.84,5.84,0,0,0-1.56-4.36,5.27,5.27,0,0,0-3.86-1.54,5.21,5.21,0,0,0-3.82,1.54,5.84,5.84,0,0,0-1.56,4.36,6,6,0,0,0,1.56,4.4,5.19,5.19,0,0,0,3.82,1.56A5.25,5.25,0,0,0,926,417.29Z" transform="translate(-266.11 -331.82)"/>
    <path class="cls-1" d="M946.7,424.85h-7.3V390.09h7.3Z" transform="translate(-266.11 -331.82)"/>
    <path class="cls-1" d="M968.73,416.25l6.1,1.73a9.91,9.91,0,0,1-3.79,5.45,11.78,11.78,0,0,1-7.2,2.14,12.3,12.3,0,0,1-8.81-3.46,13.53,13.53,0,0,1-.1-18.34,11.51,11.51,0,0,1,8.38-3.5q5.57,0,8.76,3.24t3.19,9a10.55,10.55,0,0,1-.14,2.26H958.51a4.37,4.37,0,0,0,1.68,3.28,5.64,5.64,0,0,0,3.74,1.32Q967.64,419.37,968.73,416.25Zm-10.08-6.19h9.55a4.23,4.23,0,0,0-1.27-2.83,4.73,4.73,0,0,0-3.53-1.2,4.57,4.57,0,0,0-3.36,1.25A4.5,4.5,0,0,0,958.65,410.06Z" transform="translate(-266.11 -331.82)"/>
    <path class="cls-1" d="M978,418.08l6.19-1.11a3.45,3.45,0,0,0,1,2.28,3.64,3.64,0,0,0,2.71.94,3.15,3.15,0,0,0,2.07-.6,1.84,1.84,0,0,0,.72-1.46c0-1-.79-1.62-2.36-2l-2.73-.63a9.59,9.59,0,0,1-5.38-2.71,6.74,6.74,0,0,1-1.73-4.63,7.24,7.24,0,0,1,2.62-5.62,9.57,9.57,0,0,1,6.55-2.3c3.11,0,5.43.74,7,2.23a7.67,7.67,0,0,1,2.56,4.87l-6,1.11a3.35,3.35,0,0,0-1-2.11,3.32,3.32,0,0,0-2.42-.82,2.94,2.94,0,0,0-1.83.58,1.77,1.77,0,0,0-.76,1.48c0,1,.62,1.56,1.87,1.78l3.17.62a9.9,9.9,0,0,1,5.47,2.74,6.74,6.74,0,0,1,1.87,4.75,7.57,7.57,0,0,1-2.5,5.69,9.76,9.76,0,0,1-7,2.38,13.27,13.27,0,0,1-4.68-.77,7.71,7.71,0,0,1-3.12-2,10.29,10.29,0,0,1-1.64-2.43A7.07,7.07,0,0,1,978,418.08Z" transform="translate(-266.11 -331.82)"/>
    <path class="cls-1" d="M1000.36,418.08l6.2-1.11a3.41,3.41,0,0,0,1,2.28,3.64,3.64,0,0,0,2.71.94,3.14,3.14,0,0,0,2.06-.6,1.84,1.84,0,0,0,.72-1.46c0-1-.78-1.62-2.35-2l-2.73-.63a9.56,9.56,0,0,1-5.38-2.71,6.74,6.74,0,0,1-1.73-4.63,7.21,7.21,0,0,1,2.62-5.62,9.56,9.56,0,0,1,6.55-2.3q4.65,0,7,2.23a7.69,7.69,0,0,1,2.57,4.87l-6.05,1.11a3.1,3.1,0,0,0-3.4-2.93,2.92,2.92,0,0,0-1.83.58,1.78,1.78,0,0,0-.77,1.48c0,1,.63,1.56,1.88,1.78l3.16.62a9.93,9.93,0,0,1,5.48,2.74,6.78,6.78,0,0,1,1.87,4.75,7.61,7.61,0,0,1-2.5,5.69,9.77,9.77,0,0,1-7,2.38,13.27,13.27,0,0,1-4.68-.77,7.71,7.71,0,0,1-3.12-2,10.23,10.23,0,0,1-1.63-2.43A7.1,7.1,0,0,1,1000.36,418.08Z" transform="translate(-266.11 -331.82)"/>
    <path class="cls-1" d="M1023,426.19l6.43-1.82a5,5,0,0,0,1.75,2.88,5.27,5.27,0,0,0,3.39,1.1q5.89,0,5.9-6.1v-1.1q-1.77,2.69-6.38,2.69a10.53,10.53,0,0,1-7.92-3.31,11.56,11.56,0,0,1-3.17-8.31,11.78,11.78,0,0,1,3.14-8.23,10.32,10.32,0,0,1,8-3.43,9,9,0,0,1,4.32.91,5.48,5.48,0,0,1,2.3,2.06V401h7v20.88a13.36,13.36,0,0,1-3.21,9.19q-3.23,3.63-9.55,3.63a12.85,12.85,0,0,1-8.14-2.52A9.28,9.28,0,0,1,1023,426.19Zm8.74-10.13a5,5,0,0,0,3.69,1.44,4.9,4.9,0,0,0,3.67-1.44,5.22,5.22,0,0,0,1.42-3.84,5.1,5.1,0,0,0-1.49-3.81,4.93,4.93,0,0,0-3.6-1.47,5.09,5.09,0,0,0-5.13,5.28A5.19,5.19,0,0,0,1031.71,416.06Z" transform="translate(-266.11 -331.82)"/>
    <path class="cls-1" d="M1061.08,424.85h-7.29V390.09h7.29Z" transform="translate(-266.11 -331.82)"/>
    <path class="cls-1" d="M1078.46,400.27a12.42,12.42,0,0,1,9,3.55,13.21,13.21,0,0,1,0,18.17,13.18,13.18,0,0,1-18.08,0,13.1,13.1,0,0,1,0-18.12A12.38,12.38,0,0,1,1078.46,400.27Zm0,18.58a5.24,5.24,0,0,0,3.81-1.54,5.93,5.93,0,0,0,1.56-4.42,5.84,5.84,0,0,0-1.56-4.39,5.5,5.5,0,0,0-7.6,0,5.78,5.78,0,0,0-1.59,4.36,5.89,5.89,0,0,0,1.59,4.4A5.2,5.2,0,0,0,1078.46,418.85Z" transform="translate(-266.11 -331.82)"/>
    <path class="cls-1" d="M1111,401v7.2a10,10,0,0,0-2.3-.24,5.41,5.41,0,0,0-4,1.58,6.75,6.75,0,0,0-1.56,4.9v10.42h-7.3V401h7.06v3.22a5.3,5.3,0,0,1,2.64-2.64,8.35,8.35,0,0,1,3.55-.82A6.8,6.8,0,0,1,1111,401Z" transform="translate(-266.11 -331.82)"/>
    <path class="cls-1" d="M1125.93,434h-7.68l5.42-12.38-10-20.64h8.16l5.81,12.77,5.28-12.77h7.73Z" transform="translate(-266.11 -331.82)"/>
    <path class="cls-1" d="M1162.65,390.14l-17.28,35.38h-6.48l17.23-35.38Z" transform="translate(-266.11 -331.82)"/>
    <path class="cls-1" d="M1178.06,401h7.73l4.65,14.16,4-14.16h7.15l-7.39,23.86h-7.25l-5.19-15.41-5.08,15.41h-7.4L1161.79,401h7.58l4,14.11Z" transform="translate(-266.11 -331.82)"/>
    <path class="cls-1" d="M1220.2,416.25l6.1,1.73a9.92,9.92,0,0,1-3.8,5.45,11.78,11.78,0,0,1-7.2,2.14,12.93,12.93,0,0,1-8.9-21.8,11.49,11.49,0,0,1,8.38-3.5q5.57,0,8.76,3.24t3.19,9a9.65,9.65,0,0,1-.15,2.26H1210a4.37,4.37,0,0,0,1.68,3.28,5.64,5.64,0,0,0,3.74,1.32Q1219.09,419.37,1220.2,416.25Zm-10.08-6.19h9.55a4.28,4.28,0,0,0-1.27-2.83,4.73,4.73,0,0,0-3.53-1.2,4.54,4.54,0,0,0-3.36,1.25A4.5,4.5,0,0,0,1210.12,410.06Z" transform="translate(-266.11 -331.82)"/>
    <path class="cls-1" d="M1230,418.27a6.37,6.37,0,0,1,2-4.87,9.3,9.3,0,0,1,5.09-2.33l5.61-.86c1.16-.16,1.73-.71,1.73-1.64a2.26,2.26,0,0,0-.93-1.84,4,4,0,0,0-2.57-.75,4.07,4.07,0,0,0-2.91,1,3.65,3.65,0,0,0-1.17,2.48l-6.34-1.3a8.28,8.28,0,0,1,3-5.45q2.71-2.48,7.52-2.47c3.61,0,6.28.86,8,2.59a9,9,0,0,1,2.57,6.63v11.66a19.76,19.76,0,0,0,.28,3.7h-6.57a11.69,11.69,0,0,1-.24-2.69q-2.07,3.36-6.72,3.36a8.34,8.34,0,0,1-6-2.14A6.85,6.85,0,0,1,1230,418.27Zm10,2a4.51,4.51,0,0,0,3.12-1.11,4.61,4.61,0,0,0,1.25-3.64v-1.06l-4.51.72c-1.79.29-2.69,1.17-2.69,2.64a2.39,2.39,0,0,0,.7,1.73A2.83,2.83,0,0,0,1240,420.24Z" transform="translate(-266.11 -331.82)"/>
    <path class="cls-1" d="M1266.14,394v7h4.65v6.38h-4.65v8.93c0,1.67.88,2.5,2.64,2.5a8.82,8.82,0,0,0,1.92-.24v6a8.64,8.64,0,0,1-3.8.68,8,8,0,0,1-5.83-2.07,7.43,7.43,0,0,1-2.13-5.61V407.37h-4.23V401h1.2a3.44,3.44,0,0,0,2.76-1.08,4.12,4.12,0,0,0,.94-2.81V394Z" transform="translate(-266.11 -331.82)"/>
    <path class="cls-1" d="M1281.5,410.83v14h-7.3V390.09h7.3v12.44a8.24,8.24,0,0,1,6.09-2.16c3,0,5.23.88,6.74,2.66a10.17,10.17,0,0,1,2.29,6.84v15h-7.3V411.12a4.38,4.38,0,0,0-1-3,3.64,3.64,0,0,0-2.9-1.13,3.74,3.74,0,0,0-2.76,1.08A4.06,4.06,0,0,0,1281.5,410.83Z" transform="translate(-266.11 -331.82)"/>
    <path class="cls-1" d="M1318.36,416.25l6.1,1.73a9.92,9.92,0,0,1-3.8,5.45,11.78,11.78,0,0,1-7.2,2.14,12.93,12.93,0,0,1-8.9-21.8,11.49,11.49,0,0,1,8.37-3.5q5.58,0,8.77,3.24t3.19,9a9.65,9.65,0,0,1-.15,2.26h-16.61a4.41,4.41,0,0,0,1.69,3.28,5.64,5.64,0,0,0,3.74,1.32Q1317.25,419.37,1318.36,416.25Zm-10.08-6.19h9.55a4.28,4.28,0,0,0-1.27-2.83A4.74,4.74,0,0,0,1313,406a4.54,4.54,0,0,0-3.36,1.25A4.5,4.5,0,0,0,1308.28,410.06Z" transform="translate(-266.11 -331.82)"/>
    <path class="cls-1" d="M1344.76,401v7.2a10,10,0,0,0-2.31-.24,5.39,5.39,0,0,0-4,1.58,6.75,6.75,0,0,0-1.56,4.9v10.42h-7.3V401h7.06v3.22a5.23,5.23,0,0,1,2.64-2.64,8.32,8.32,0,0,1,3.55-.82A6.9,6.9,0,0,1,1344.76,401Z" transform="translate(-266.11 -331.82)"/>
    <path class="cls-1" d="M1362.28,413.66h-14.4v-6.57h14.4Z" transform="translate(-266.11 -331.82)"/>
    <path class="cls-1" d="M1365.35,418.27a6.37,6.37,0,0,1,2-4.87,9.3,9.3,0,0,1,5.09-2.33l5.61-.86c1.15-.16,1.73-.71,1.73-1.64a2.25,2.25,0,0,0-.94-1.84,4,4,0,0,0-2.56-.75,4.07,4.07,0,0,0-2.91,1,3.65,3.65,0,0,0-1.17,2.48l-6.34-1.3a8.24,8.24,0,0,1,3-5.45q2.71-2.48,7.51-2.47c3.62,0,6.28.86,8,2.59a9,9,0,0,1,2.56,6.63v11.66a19.65,19.65,0,0,0,.29,3.7h-6.57a11.69,11.69,0,0,1-.24-2.69q-2.07,3.36-6.72,3.36a8.34,8.34,0,0,1-6-2.14A6.82,6.82,0,0,1,1365.35,418.27Zm10,2a4.51,4.51,0,0,0,3.12-1.11,4.64,4.64,0,0,0,1.25-3.64v-1.06l-4.51.72c-1.79.29-2.69,1.17-2.69,2.64a2.39,2.39,0,0,0,.7,1.73A2.83,2.83,0,0,0,1375.38,420.24Z" transform="translate(-266.11 -331.82)"/>
    <path class="cls-1" d="M1400.29,434H1393V401h7v2.45a6.37,6.37,0,0,1,2.72-2.14,10,10,0,0,1,4.29-.89,10.14,10.14,0,0,1,8.09,3.48,13.24,13.24,0,0,1,3,9,12.92,12.92,0,0,1-3.19,9,10.55,10.55,0,0,1-8.19,3.52q-4.5,0-6.48-2.4Zm9.15-16.68a6,6,0,0,0,1.56-4.4,5.84,5.84,0,0,0-1.56-4.36,5.28,5.28,0,0,0-3.87-1.54,5.2,5.2,0,0,0-3.81,1.54,5.84,5.84,0,0,0-1.56,4.36,6,6,0,0,0,1.56,4.4,5.18,5.18,0,0,0,3.81,1.56A5.25,5.25,0,0,0,1409.44,417.29Z" transform="translate(-266.11 -331.82)"/>
    <path class="cls-1" d="M1423.48,396.72a4.29,4.29,0,0,1,0-6.05,4.06,4.06,0,0,1,3-1.25,4.21,4.21,0,0,1,3,1.25,4.24,4.24,0,0,1,0,6.05,4.21,4.21,0,0,1-3,1.25A4.06,4.06,0,0,1,1423.48,396.72Zm6.67,28.13h-7.3V401h7.3Z" transform="translate(-266.11 -331.82)"/>
    <path class="cls-1" d="M538.9,441.88V438h894.42v3.84Z" transform="translate(-266.11 -331.82)"/>
  </g>
</svg>
