<svg id="Layer_1" data-name="Layer 1" xmlns="http://www.w3.org/2000/svg" viewBox="0 0 167.7 9.84">
  <defs>
    <style>
      .cls-1 {
        fill: #08009f;
      }
    </style>
  </defs>
  <title>P2Link</title>
  <g>
    <path class="cls-1" d="M26.44,46.68l1.2-.34a1,1,0,0,0,.33.54,1,1,0,0,0,.63.2,1,1,0,0,0,1.11-1.14v-.21a1.31,1.31,0,0,1-1.19.51A2,2,0,0,1,27,45.62a2.33,2.33,0,0,1,0-3.1,1.93,1.93,0,0,1,1.49-.65,1.72,1.72,0,0,1,.8.17,1.15,1.15,0,0,1,.44.39V42h1.3v3.92a2.49,2.49,0,0,1-.6,1.72,2.24,2.24,0,0,1-1.79.68,2.47,2.47,0,0,1-1.53-.47A1.74,1.74,0,0,1,26.44,46.68Zm1.63-1.9a1,1,0,0,0,1.39,0,1,1,0,0,0,.26-.72,1,1,0,0,0-.28-.72.92.92,0,0,0-.67-.27.94.94,0,0,0-.68.27,1.07,1.07,0,0,0,0,1.44Z" transform="translate(-26.15 -39.79)"/>
    <path class="cls-1" d="M32.33,41.15a.73.73,0,0,1-.23-.56.79.79,0,0,1,.79-.8.8.8,0,0,1,.81.8.74.74,0,0,1-.24.56.78.78,0,0,1-.57.24A.76.76,0,0,1,32.33,41.15Zm1.25,5.28H32.21V42h1.37Z" transform="translate(-26.15 -39.79)"/>
    <path class="cls-1" d="M36.42,40.65V42h.87v1.2h-.87v1.68c0,.31.16.46.49.46a1.59,1.59,0,0,0,.36,0v1.13a1.52,1.52,0,0,1-.71.13,1.48,1.48,0,0,1-1.09-.39,1.39,1.39,0,0,1-.4-1V43.15h-.8V42h.23a.64.64,0,0,0,.52-.2.79.79,0,0,0,.17-.52v-.58Z" transform="translate(-26.15 -39.79)"/>
    <path class="cls-1" d="M39.3,43.8v2.63H37.93V39.91H39.3v2.33a1.83,1.83,0,0,1,2.4.1,1.87,1.87,0,0,1,.43,1.28v2.81H40.76V43.85a.84.84,0,0,0-.18-.56.79.79,0,0,0-1.06,0A.75.75,0,0,0,39.3,43.8Z" transform="translate(-26.15 -39.79)"/>
    <path class="cls-1" d="M46.16,46.43a2.64,2.64,0,0,1,0-.45,1.08,1.08,0,0,1-.5.41,1.82,1.82,0,0,1-.7.14,1.63,1.63,0,0,1-1.25-.5,1.81,1.81,0,0,1-.45-1.25V42H44.6v2.54a.84.84,0,0,0,.18.56.69.69,0,0,0,.54.22.67.67,0,0,0,.54-.22.73.73,0,0,0,.2-.55V42h1.37v3.68a6.47,6.47,0,0,0,0,.8Z" transform="translate(-26.15 -39.79)"/>
    <path class="cls-1" d="M50,46.43H48.64V39.91H50v2.47a1.12,1.12,0,0,1,.5-.38,2,2,0,0,1,.8-.15,1.87,1.87,0,0,1,1.51.65,2.44,2.44,0,0,1,.56,1.68,2.4,2.4,0,0,1-.59,1.68,2,2,0,0,1-1.54.67,1.67,1.67,0,0,1-.76-.17,1.14,1.14,0,0,1-.5-.44Zm2-2.24a1.13,1.13,0,0,0-.29-.83,1,1,0,0,0-.72-.28,1,1,0,0,0-.73.28,1.13,1.13,0,0,0-.29.83,1.1,1.1,0,0,0,.3.82,1,1,0,0,0,.72.29,1,1,0,0,0,.71-.29A1.1,1.1,0,0,0,52,44.19Z" transform="translate(-26.15 -39.79)"/>
    <path class="cls-1" d="M54.27,46.23a.92.92,0,1,1,1.3-1.3.86.86,0,0,1,.28.65.88.88,0,0,1-.28.65.89.89,0,0,1-1.3,0Z" transform="translate(-26.15 -39.79)"/>
    <path class="cls-1" d="M58.88,43.08a1,1,0,0,0-.73.3,1.09,1.09,0,0,0-.3.82,1.1,1.1,0,0,0,.31.81,1,1,0,0,0,.74.29,1,1,0,0,0,.61-.19,1,1,0,0,0,.32-.47L61,45a2.06,2.06,0,0,1-.72,1.09,2.15,2.15,0,0,1-1.41.46,2.38,2.38,0,0,1-1.71-.67,2.37,2.37,0,0,1,1.66-4.07,2.19,2.19,0,0,1,1.43.45A1.93,1.93,0,0,1,61,43.38l-1.22.37a.88.88,0,0,0-.31-.48A.85.85,0,0,0,58.88,43.08Z" transform="translate(-26.15 -39.79)"/>
    <path class="cls-1" d="M63.88,41.82a2.3,2.3,0,0,1,1.69.67,2.46,2.46,0,0,1,0,3.4,2.4,2.4,0,1,1-1.69-4.07Zm0,3.48a.94.94,0,0,0,.71-.29,1.07,1.07,0,0,0,.29-.82,1.09,1.09,0,0,0-.29-.83,1,1,0,0,0-.71-.28,1,1,0,0,0-.72.29,1.11,1.11,0,0,0-.29.82,1.14,1.14,0,0,0,.29.82A1,1,0,0,0,63.88,45.3Z" transform="translate(-26.15 -39.79)"/>
    <path class="cls-1" d="M68.5,46.43H67.13V42h1.31v.52A1.23,1.23,0,0,1,69,42a1.73,1.73,0,0,1,.76-.18,1.34,1.34,0,0,1,1.32.7,1.56,1.56,0,0,1,1.38-.7,1.67,1.67,0,0,1,1.18.43,1.62,1.62,0,0,1,.48,1.28v2.9H72.77V43.84a.81.81,0,0,0-.18-.55.66.66,0,0,0-.53-.21.68.68,0,0,0-.55.22.8.8,0,0,0-.2.54v2.59H70V43.84a.81.81,0,0,0-.18-.55.7.7,0,0,0-.54-.21.67.67,0,0,0-.54.22.83.83,0,0,0-.2.55Z" transform="translate(-26.15 -39.79)"/>
    <path class="cls-1" d="M79.09,39.92l-3.24,6.63H74.64l3.23-6.63Z" transform="translate(-26.15 -39.79)"/>
    <path class="cls-1" d="M78.45,45.16,79.61,45a.63.63,0,0,0,.19.43.69.69,0,0,0,.51.17.57.57,0,0,0,.39-.11.32.32,0,0,0,.13-.27c0-.18-.15-.31-.44-.37l-.51-.12a1.73,1.73,0,0,1-1-.51,1.23,1.23,0,0,1-.32-.87,1.34,1.34,0,0,1,.49-1,1.75,1.75,0,0,1,1.22-.43,1.81,1.81,0,0,1,1.31.42,1.41,1.41,0,0,1,.49.91l-1.14.21a.67.67,0,0,0-.18-.4.65.65,0,0,0-.46-.15.58.58,0,0,0-.34.11.31.31,0,0,0-.14.28c0,.18.11.29.35.33l.59.12a1.9,1.9,0,0,1,1,.51,1.28,1.28,0,0,1,.35.89,1.45,1.45,0,0,1-.47,1.07,1.85,1.85,0,0,1-1.31.44,2.62,2.62,0,0,1-.88-.14,1.44,1.44,0,0,1-.59-.38,2,2,0,0,1-.3-.45A1.21,1.21,0,0,1,78.45,45.16Z" transform="translate(-26.15 -39.79)"/>
    <path class="cls-1" d="M84.38,46.43H83V39.91h1.37Z" transform="translate(-26.15 -39.79)"/>
    <path class="cls-1" d="M88.51,44.82l1.14.32a1.82,1.82,0,0,1-.71,1,2.18,2.18,0,0,1-1.35.4,2.26,2.26,0,0,1-1.65-.65,2.53,2.53,0,0,1,0-3.43,2.34,2.34,0,0,1,3.21,0,2.27,2.27,0,0,1,.6,1.68,3.16,3.16,0,0,1,0,.43H86.59a.81.81,0,0,0,.32.61,1,1,0,0,0,.7.25A.86.86,0,0,0,88.51,44.82Zm-1.89-1.16h1.79a.79.79,0,0,0-.24-.54,1,1,0,0,0-1.29,0A.84.84,0,0,0,86.62,43.66Z" transform="translate(-26.15 -39.79)"/>
    <path class="cls-1" d="M93.54,44.82l1.14.32a1.82,1.82,0,0,1-.71,1,2.18,2.18,0,0,1-1.35.4A2.26,2.26,0,0,1,91,45.91a2.53,2.53,0,0,1,0-3.43,2.34,2.34,0,0,1,3.21,0,2.27,2.27,0,0,1,.6,1.68,3.16,3.16,0,0,1,0,.43H91.62a.81.81,0,0,0,.32.61,1,1,0,0,0,.7.25A.86.86,0,0,0,93.54,44.82Zm-1.89-1.16h1.79a.79.79,0,0,0-.24-.54,1,1,0,0,0-1.29,0A.84.84,0,0,0,91.65,43.66Z" transform="translate(-26.15 -39.79)"/>
    <path class="cls-1" d="M97,48.14H95.65V42H97v.46a1.2,1.2,0,0,1,.51-.4,1.84,1.84,0,0,1,.8-.16,1.89,1.89,0,0,1,1.52.65,2.49,2.49,0,0,1,.56,1.68,2.4,2.4,0,0,1-.6,1.68,2,2,0,0,1-1.53.67A1.49,1.49,0,0,1,97,46.08ZM98.73,45a1.14,1.14,0,0,0,.29-.82,1.11,1.11,0,0,0-.29-.82,1,1,0,0,0-.73-.29,1,1,0,0,0-.71.29,1.07,1.07,0,0,0-.29.82,1.1,1.1,0,0,0,.29.82,1,1,0,0,0,.71.29A1,1,0,0,0,98.73,45Z" transform="translate(-26.15 -39.79)"/>
    <path class="cls-1" d="M102.61,46.43h-1.37V39.91h1.37Z" transform="translate(-26.15 -39.79)"/>
    <path class="cls-1" d="M106.74,44.82l1.14.32a1.82,1.82,0,0,1-.71,1,2.18,2.18,0,0,1-1.35.4,2.42,2.42,0,0,1-1.67-4.08,2.36,2.36,0,0,1,3.22,0,2.27,2.27,0,0,1,.6,1.68,1.79,1.79,0,0,1,0,.43h-3.12a.84.84,0,0,0,.32.61,1,1,0,0,0,.7.25A.86.86,0,0,0,106.74,44.82Zm-1.89-1.16h1.79a.79.79,0,0,0-.24-.54.86.86,0,0,0-.66-.22.85.85,0,0,0-.89.76Z" transform="translate(-26.15 -39.79)"/>
    <path class="cls-1" d="M108.48,45.16l1.16-.21a.62.62,0,0,0,.7.6.57.57,0,0,0,.39-.11.32.32,0,0,0,.13-.27c0-.18-.14-.31-.44-.37l-.51-.12a1.73,1.73,0,0,1-1-.51,1.28,1.28,0,0,1-.32-.87,1.34,1.34,0,0,1,.49-1,1.78,1.78,0,0,1,1.23-.43,1.84,1.84,0,0,1,1.31.42,1.44,1.44,0,0,1,.48.91l-1.14.21a.62.62,0,0,0-.18-.4.65.65,0,0,0-.46-.15.58.58,0,0,0-.34.11.34.34,0,0,0-.14.28c0,.18.12.29.35.33l.59.12a1.86,1.86,0,0,1,1,.51,1.28,1.28,0,0,1,.35.89,1.45,1.45,0,0,1-.47,1.07,1.85,1.85,0,0,1-1.31.44,2.66,2.66,0,0,1-.88-.14,1.4,1.4,0,0,1-.58-.38,1.73,1.73,0,0,1-.31-.45A1.21,1.21,0,0,1,108.48,45.16Z" transform="translate(-26.15 -39.79)"/>
    <path class="cls-1" d="M112.67,45.16l1.16-.21a.69.69,0,0,0,.2.43.66.66,0,0,0,.51.17.56.56,0,0,0,.38-.11.33.33,0,0,0,.14-.27c0-.18-.15-.31-.44-.37l-.52-.12a1.7,1.7,0,0,1-1-.51,1.24,1.24,0,0,1-.33-.87,1.34,1.34,0,0,1,.49-1,1.79,1.79,0,0,1,1.23-.43,1.82,1.82,0,0,1,1.31.42,1.44,1.44,0,0,1,.48.91l-1.13.21A.63.63,0,0,0,115,43a.61.61,0,0,0-.45-.15.55.55,0,0,0-.34.11.32.32,0,0,0-.15.28c0,.18.12.29.35.33l.6.12a1.83,1.83,0,0,1,1,.51,1.24,1.24,0,0,1,.35.89,1.44,1.44,0,0,1-.46,1.07,1.88,1.88,0,0,1-1.32.44,2.66,2.66,0,0,1-.88-.14,1.47,1.47,0,0,1-.58-.38,1.73,1.73,0,0,1-.31-.45A1.21,1.21,0,0,1,112.67,45.16Z" transform="translate(-26.15 -39.79)"/>
    <path class="cls-1" d="M116.91,46.68l1.21-.34a1,1,0,0,0,.33.54,1,1,0,0,0,.63.2,1,1,0,0,0,1.11-1.14v-.21a1.32,1.32,0,0,1-1.2.51,2,2,0,0,1-1.48-.62,2.17,2.17,0,0,1-.6-1.56,2.21,2.21,0,0,1,.59-1.54,1.93,1.93,0,0,1,1.49-.65,1.74,1.74,0,0,1,.81.17,1,1,0,0,1,.43.39V42h1.31v3.92a2.45,2.45,0,0,1-.61,1.72,2.23,2.23,0,0,1-1.79.68,2.42,2.42,0,0,1-1.52-.47A1.75,1.75,0,0,1,116.91,46.68Zm1.64-1.9a.93.93,0,0,0,.69.27.92.92,0,0,0,.69-.27,1,1,0,0,0,.27-.72,1,1,0,0,0-.28-.72.94.94,0,0,0-.68-.27,1,1,0,0,0-.68.27,1,1,0,0,0-.28.72A1,1,0,0,0,118.55,44.78Z" transform="translate(-26.15 -39.79)"/>
    <path class="cls-1" d="M124.06,46.43h-1.37V39.91h1.37Z" transform="translate(-26.15 -39.79)"/>
    <path class="cls-1" d="M127.32,41.82a2.3,2.3,0,0,1,1.69.67,2.46,2.46,0,0,1,0,3.4,2.4,2.4,0,1,1-1.69-4.07Zm0,3.48A.94.94,0,0,0,128,45a1.07,1.07,0,0,0,.29-.82,1.09,1.09,0,0,0-.29-.83,1,1,0,0,0-1.42,0,1.07,1.07,0,0,0-.3.82,1.1,1.1,0,0,0,.3.82A1,1,0,0,0,127.32,45.3Z" transform="translate(-26.15 -39.79)"/>
    <path class="cls-1" d="M133.42,42V43.3a1.91,1.91,0,0,0-.43,0,1,1,0,0,0-.76.3,1.26,1.26,0,0,0-.29.91v2h-1.37V42h1.33v.61a1,1,0,0,1,.49-.5,1.63,1.63,0,0,1,.67-.15A1.28,1.28,0,0,1,133.42,42Z" transform="translate(-26.15 -39.79)"/>
    <path class="cls-1" d="M136.22,48.15h-1.44l1-2.33L133.91,42h1.53l1.09,2.4,1-2.4H139Z" transform="translate(-26.15 -39.79)"/>
    <path class="cls-1" d="M143.1,39.92l-3.24,6.63h-1.21l3.23-6.63Z" transform="translate(-26.15 -39.79)"/>
    <path class="cls-1" d="M146,42h1.45l.87,2.66.75-2.66h1.34L149,46.43h-1.35l-1-2.89-1,2.89h-1.39L142.94,42h1.42l.75,2.65Z" transform="translate(-26.15 -39.79)"/>
    <path class="cls-1" d="M153.89,44.82l1.15.32a1.87,1.87,0,0,1-.71,1,2.2,2.2,0,0,1-1.35.4,2.28,2.28,0,0,1-2.34-2.38,2.24,2.24,0,0,1,.67-1.7,2.14,2.14,0,0,1,1.57-.66,2.19,2.19,0,0,1,1.64.61,2.27,2.27,0,0,1,.6,1.68,1.79,1.79,0,0,1,0,.43H152a.8.8,0,0,0,.31.61,1,1,0,0,0,.7.25A.85.85,0,0,0,153.89,44.82ZM152,43.66h1.79a.83.83,0,0,0-.23-.54.9.9,0,0,0-.67-.22.85.85,0,0,0-.89.76Z" transform="translate(-26.15 -39.79)"/>
    <path class="cls-1" d="M155.73,45.19a1.18,1.18,0,0,1,.37-.91,1.72,1.72,0,0,1,1-.44l1.06-.16c.21,0,.32-.13.32-.3a.42.42,0,0,0-.18-.35.74.74,0,0,0-.48-.14.73.73,0,0,0-.54.19.67.67,0,0,0-.22.47l-1.19-.25a1.54,1.54,0,0,1,.55-1,2.47,2.47,0,0,1,2.91,0,1.67,1.67,0,0,1,.48,1.24v2.18a3.31,3.31,0,0,0,.06.7h-1.24a2.27,2.27,0,0,1,0-.51,1.37,1.37,0,0,1-1.26.63,1.55,1.55,0,0,1-1.13-.4A1.26,1.26,0,0,1,155.73,45.19Zm1.88.37a.76.76,0,0,0,.82-.89v-.2l-.85.14c-.33,0-.5.22-.5.49a.44.44,0,0,0,.13.33A.54.54,0,0,0,157.61,45.56Z" transform="translate(-26.15 -39.79)"/>
    <path class="cls-1" d="M162.51,40.65V42h.87v1.2h-.87v1.68c0,.31.16.46.49.46a1.59,1.59,0,0,0,.36,0v1.13a1.52,1.52,0,0,1-.71.13,1.48,1.48,0,0,1-1.09-.39,1.39,1.39,0,0,1-.4-1V43.15h-.8V42h.23a.64.64,0,0,0,.52-.2.79.79,0,0,0,.17-.52v-.58Z" transform="translate(-26.15 -39.79)"/>
    <path class="cls-1" d="M165.39,43.8v2.63H164V39.91h1.37v2.33a1.83,1.83,0,0,1,2.4.1,1.87,1.87,0,0,1,.43,1.28v2.81h-1.37V43.85a.84.84,0,0,0-.18-.56.79.79,0,0,0-1.06,0A.75.75,0,0,0,165.39,43.8Z" transform="translate(-26.15 -39.79)"/>
    <path class="cls-1" d="M172.3,44.82l1.14.32a1.82,1.82,0,0,1-.71,1,2.18,2.18,0,0,1-1.35.4,2.26,2.26,0,0,1-1.65-.65,2.53,2.53,0,0,1,0-3.43,2.14,2.14,0,0,1,1.57-.66,2.17,2.17,0,0,1,1.64.61,2.27,2.27,0,0,1,.6,1.68,1.79,1.79,0,0,1,0,.43h-3.11a.81.81,0,0,0,.32.61,1,1,0,0,0,.7.25A.86.86,0,0,0,172.3,44.82Zm-1.89-1.16h1.79a.79.79,0,0,0-.24-.54.89.89,0,0,0-.66-.22.85.85,0,0,0-.63.23A.84.84,0,0,0,170.41,43.66Z" transform="translate(-26.15 -39.79)"/>
    <path class="cls-1" d="M177.25,42V43.3a1.91,1.91,0,0,0-.43,0,1,1,0,0,0-.76.3,1.26,1.26,0,0,0-.29.91v2H174.4V42h1.33v.61a1,1,0,0,1,.49-.5,1.63,1.63,0,0,1,.67-.15A1.28,1.28,0,0,1,177.25,42Z" transform="translate(-26.15 -39.79)"/>
    <path class="cls-1" d="M180.53,44.33h-2.7V43.1h2.7Z" transform="translate(-26.15 -39.79)"/>
    <path class="cls-1" d="M181.11,45.19a1.18,1.18,0,0,1,.37-.91,1.72,1.72,0,0,1,1-.44l1.06-.16c.21,0,.32-.13.32-.3a.42.42,0,0,0-.18-.35.74.74,0,0,0-.48-.14.73.73,0,0,0-.54.19.67.67,0,0,0-.22.47l-1.19-.25a1.54,1.54,0,0,1,.55-1,2.47,2.47,0,0,1,2.91,0,1.67,1.67,0,0,1,.48,1.24v2.18a3.31,3.31,0,0,0,.06.7H184a2.27,2.27,0,0,1,0-.51,1.37,1.37,0,0,1-1.26.63,1.55,1.55,0,0,1-1.13-.4A1.26,1.26,0,0,1,181.11,45.19Zm1.88.37a.76.76,0,0,0,.82-.89v-.2l-.85.14c-.33,0-.5.22-.5.49a.44.44,0,0,0,.13.33A.54.54,0,0,0,183,45.56Z" transform="translate(-26.15 -39.79)"/>
    <path class="cls-1" d="M187.66,48.14h-1.37V42h1.33v.46a1.2,1.2,0,0,1,.51-.4,1.84,1.84,0,0,1,.8-.16,1.89,1.89,0,0,1,1.52.65,2.49,2.49,0,0,1,.56,1.68,2.4,2.4,0,0,1-.6,1.68,2,2,0,0,1-1.53.67,1.49,1.49,0,0,1-1.22-.45ZM189.38,45a1.14,1.14,0,0,0,.29-.82,1.11,1.11,0,0,0-.29-.82,1,1,0,0,0-.73-.29,1,1,0,0,0-.71.29,1.07,1.07,0,0,0-.3.82,1.1,1.1,0,0,0,.3.82,1,1,0,0,0,.71.29A1,1,0,0,0,189.38,45Z" transform="translate(-26.15 -39.79)"/>
    <path class="cls-1" d="M192,41.15a.74.74,0,0,1-.24-.56A.76.76,0,0,1,192,40a.73.73,0,0,1,.56-.23.8.8,0,0,1,.81.8.74.74,0,0,1-.24.56.78.78,0,0,1-.57.24A.74.74,0,0,1,192,41.15Zm1.25,5.28h-1.37V42h1.37Z" transform="translate(-26.15 -39.79)"/>
    <path class="cls-1" d="M26.15,49.62V48.9h167.7v.72Z" transform="translate(-26.15 -39.79)"/>
  </g>
</svg>
