<svg id="Layer_1" data-name="Layer 1" xmlns="http://www.w3.org/2000/svg" viewBox="0 0 156.35 9.84">
  <defs>
    <style>
      .cls-1 {
        fill: #08009f;
      }
    </style>
  </defs>
  <title>P3Link</title>
  <g>
    <path class="cls-1" d="M32.11,47.12l1.21-.34a.94.94,0,0,0,1,.75,1,1,0,0,0,1.11-1.14v-.21a1.32,1.32,0,0,1-1.2.5,1.93,1.93,0,0,1-1.48-.62,2.14,2.14,0,0,1-.6-1.56A2.23,2.23,0,0,1,32.7,43a1.94,1.94,0,0,1,1.49-.64,1.74,1.74,0,0,1,.81.17,1,1,0,0,1,.44.39V42.4h1.3v3.91a2.53,2.53,0,0,1-.6,1.73,2.28,2.28,0,0,1-1.79.68,2.45,2.45,0,0,1-1.53-.47A1.79,1.79,0,0,1,32.11,47.12Zm1.64-1.89a.94.94,0,0,0,.7.27.9.9,0,0,0,.68-.27,1,1,0,0,0,.27-.73,1,1,0,1,0-1.92,0A1,1,0,0,0,33.75,45.23Z" transform="translate(-31.83 -40.23)"/>
    <path class="cls-1" d="M38,41.6a.82.82,0,0,1,0-1.14.79.79,0,0,1,.56-.23.81.81,0,0,1,.57.23.8.8,0,0,1,0,1.14.81.81,0,0,1-.57.23A.79.79,0,0,1,38,41.6Zm1.25,5.27H37.89V42.4h1.37Z" transform="translate(-31.83 -40.23)"/>
    <path class="cls-1" d="M42.1,41.09V42.4H43v1.2H42.1v1.67c0,.31.16.47.49.47a1.63,1.63,0,0,0,.36-.05v1.14a1.68,1.68,0,0,1-.71.12,1.52,1.52,0,0,1-1.09-.38,1.39,1.39,0,0,1-.4-1.06V43.6H40V42.4h.23a.67.67,0,0,0,.52-.2.82.82,0,0,0,.17-.53v-.58Z" transform="translate(-31.83 -40.23)"/>
    <path class="cls-1" d="M45,44.24v2.63H43.61V40.36H45v2.33a1.54,1.54,0,0,1,1.14-.41,1.56,1.56,0,0,1,1.26.5,1.87,1.87,0,0,1,.43,1.28v2.81H46.44V44.3a.82.82,0,0,0-.18-.56.68.68,0,0,0-.55-.22.66.66,0,0,0-.51.21A.71.71,0,0,0,45,44.24Z" transform="translate(-31.83 -40.23)"/>
    <path class="cls-1" d="M51.84,46.87a2.64,2.64,0,0,1,0-.45,1,1,0,0,1-.5.41,1.82,1.82,0,0,1-.7.14,1.63,1.63,0,0,1-1.25-.5,1.79,1.79,0,0,1-.45-1.24V42.4h1.37v2.54a.86.86,0,0,0,.18.56.67.67,0,0,0,.54.21.72.72,0,0,0,.54-.21.75.75,0,0,0,.2-.55V42.4h1.37v3.67a6.35,6.35,0,0,0,0,.8Z" transform="translate(-31.83 -40.23)"/>
    <path class="cls-1" d="M55.64,46.87H54.32V40.36h1.34v2.46a1.2,1.2,0,0,1,.5-.38,2,2,0,0,1,.79-.15,1.91,1.91,0,0,1,1.52.65,2.76,2.76,0,0,1,0,3.37A2,2,0,0,1,56.9,47a1.55,1.55,0,0,1-.76-.17,1.13,1.13,0,0,1-.5-.43Zm2-2.24a1.11,1.11,0,0,0-.29-.82,1,1,0,0,0-.72-.29,1,1,0,0,0-.73.29,1.11,1.11,0,0,0-.29.82,1.07,1.07,0,0,0,.3.82,1,1,0,0,0,.72.3.94.94,0,0,0,.71-.3A1.07,1.07,0,0,0,57.67,44.63Z" transform="translate(-31.83 -40.23)"/>
    <path class="cls-1" d="M60,46.68a.89.89,0,0,1-.27-.65.88.88,0,0,1,.27-.65.92.92,0,0,1,1.3,0,.85.85,0,0,1,.28.65,1,1,0,0,1-.93.92A.89.89,0,0,1,60,46.68Z" transform="translate(-31.83 -40.23)"/>
    <path class="cls-1" d="M64.56,43.52a1,1,0,0,0-.73.3,1.26,1.26,0,0,0,0,1.63,1,1,0,0,0,.75.3,1,1,0,0,0,.61-.2.93.93,0,0,0,.31-.47l1.21.37a2.09,2.09,0,0,1-.72,1.1,2.21,2.21,0,0,1-1.41.46,2.42,2.42,0,0,1-1.71-.67,2.29,2.29,0,0,1-.7-1.7,2.32,2.32,0,0,1,.68-1.71,2.35,2.35,0,0,1,1.68-.67,2.2,2.2,0,0,1,1.43.45,1.93,1.93,0,0,1,.72,1.11l-1.22.37a1,1,0,0,0-.31-.48A.91.91,0,0,0,64.56,43.52Z" transform="translate(-31.83 -40.23)"/>
    <path class="cls-1" d="M69.55,42.26a2.35,2.35,0,0,1,1.7.67,2.28,2.28,0,0,1,.68,1.7,2.32,2.32,0,0,1-.68,1.71,2.47,2.47,0,0,1-3.39,0,2.47,2.47,0,0,1,0-3.4A2.36,2.36,0,0,1,69.55,42.26Zm0,3.49a1,1,0,0,0,.72-.29,1.13,1.13,0,0,0,.29-.83,1.11,1.11,0,0,0-.29-.82,1,1,0,0,0-.72-.29,1,1,0,0,0-.71.29,1.12,1.12,0,0,0-.29.82,1.11,1.11,0,0,0,.29.82A1,1,0,0,0,69.55,45.75Z" transform="translate(-31.83 -40.23)"/>
    <path class="cls-1" d="M74.18,46.87H72.81V42.4h1.31v.51a1.17,1.17,0,0,1,.53-.47,1.72,1.72,0,0,1,.75-.18,1.36,1.36,0,0,1,1.33.71,1.57,1.57,0,0,1,1.38-.71,1.73,1.73,0,0,1,1.18.43A1.63,1.63,0,0,1,79.77,44v2.9H78.45V44.28a.8.8,0,0,0-.18-.54.64.64,0,0,0-.53-.22.69.69,0,0,0-.55.23.76.76,0,0,0-.2.54v2.58H75.64V44.28a.76.76,0,0,0-.19-.54.64.64,0,0,0-.53-.22.68.68,0,0,0-.54.23.81.81,0,0,0-.2.55Z" transform="translate(-31.83 -40.23)"/>
    <path class="cls-1" d="M84.77,40.37,81.53,47H80.32l3.23-6.63Z" transform="translate(-31.83 -40.23)"/>
    <path class="cls-1" d="M84.13,45.6l1.16-.2a.61.61,0,0,0,.19.42A.69.69,0,0,0,86,46a.62.62,0,0,0,.39-.11.35.35,0,0,0,.13-.28c0-.18-.15-.3-.44-.37l-.51-.11a1.82,1.82,0,0,1-1-.51,1.28,1.28,0,0,1-.33-.87,1.33,1.33,0,0,1,.5-1,1.76,1.76,0,0,1,1.22-.44,1.81,1.81,0,0,1,1.31.42,1.46,1.46,0,0,1,.48.92l-1.13.2a.65.65,0,0,0-.18-.39.66.66,0,0,0-.46-.16.58.58,0,0,0-.34.11.32.32,0,0,0-.14.28c0,.18.11.29.35.33l.59.12a1.9,1.9,0,0,1,1,.51,1.3,1.3,0,0,1,.35.9,1.43,1.43,0,0,1-.47,1.06A1.81,1.81,0,0,1,86,47a2.39,2.39,0,0,1-.88-.15,1.42,1.42,0,0,1-.59-.37,2,2,0,0,1-.3-.45A1.26,1.26,0,0,1,84.13,45.6Z" transform="translate(-31.83 -40.23)"/>
    <path class="cls-1" d="M90.06,46.87H88.69V40.36h1.37Z" transform="translate(-31.83 -40.23)"/>
    <path class="cls-1" d="M94.19,45.26l1.14.32a1.85,1.85,0,0,1-.71,1,2.25,2.25,0,0,1-1.35.4,2.3,2.3,0,0,1-1.65-.65,2.26,2.26,0,0,1-.68-1.74,2.31,2.31,0,0,1,.66-1.7,2.14,2.14,0,0,1,1.57-.66,2.21,2.21,0,0,1,1.64.61,2.31,2.31,0,0,1,.6,1.69,1.63,1.63,0,0,1,0,.42H92.27a.85.85,0,0,0,.31.62,1.12,1.12,0,0,0,.71.25A.86.86,0,0,0,94.19,45.26ZM92.3,44.1h1.79a.79.79,0,0,0-.24-.53.9.9,0,0,0-.66-.23.82.82,0,0,0-.63.24A.77.77,0,0,0,92.3,44.1Z" transform="translate(-31.83 -40.23)"/>
    <path class="cls-1" d="M99.22,45.26l1.14.32a1.85,1.85,0,0,1-.71,1,2.25,2.25,0,0,1-1.35.4,2.43,2.43,0,0,1-1.67-4.09,2.14,2.14,0,0,1,1.57-.66,2.21,2.21,0,0,1,1.64.61,2.31,2.31,0,0,1,.6,1.69,2.86,2.86,0,0,1,0,.42H97.3a.83.83,0,0,0,.32.62,1.07,1.07,0,0,0,.7.25A.86.86,0,0,0,99.22,45.26ZM97.33,44.1h1.79a.79.79,0,0,0-.24-.53.9.9,0,0,0-.66-.23.85.85,0,0,0-.63.24A.81.81,0,0,0,97.33,44.1Z" transform="translate(-31.83 -40.23)"/>
    <path class="cls-1" d="M102.69,48.58h-1.37V42.4h1.33v.46a1.13,1.13,0,0,1,.51-.4,1.85,1.85,0,0,1,.8-.17,1.92,1.92,0,0,1,1.52.65,2.52,2.52,0,0,1,.56,1.68,2.41,2.41,0,0,1-.6,1.69,2,2,0,0,1-1.53.66,1.49,1.49,0,0,1-1.22-.45Zm1.72-3.13a1.11,1.11,0,0,0,.29-.82,1.12,1.12,0,0,0-.29-.82,1,1,0,0,0-.73-.29,1,1,0,0,0-.71.29,1.09,1.09,0,0,0-.3.82,1.07,1.07,0,0,0,.3.82.94.94,0,0,0,.71.3A1,1,0,0,0,104.41,45.45Z" transform="translate(-31.83 -40.23)"/>
    <path class="cls-1" d="M108.29,46.87h-1.37V40.36h1.37Z" transform="translate(-31.83 -40.23)"/>
    <path class="cls-1" d="M112.42,45.26l1.14.32a1.85,1.85,0,0,1-.71,1,2.25,2.25,0,0,1-1.35.4,2.43,2.43,0,0,1-1.67-4.09,2.16,2.16,0,0,1,1.57-.66,2.24,2.24,0,0,1,1.65.61,2.31,2.31,0,0,1,.59,1.69,1.86,1.86,0,0,1,0,.42H110.5a.86.86,0,0,0,.32.62,1.09,1.09,0,0,0,.7.25A.86.86,0,0,0,112.42,45.26Zm-1.89-1.16h1.79a.79.79,0,0,0-.24-.53.88.88,0,0,0-.66-.23.85.85,0,0,0-.63.24A.86.86,0,0,0,110.53,44.1Z" transform="translate(-31.83 -40.23)"/>
    <path class="cls-1" d="M114.16,45.6l1.16-.2a.61.61,0,0,0,.19.42A.69.69,0,0,0,116,46a.62.62,0,0,0,.39-.11.35.35,0,0,0,.13-.28c0-.18-.15-.3-.44-.37l-.51-.11a1.86,1.86,0,0,1-1-.51,1.27,1.27,0,0,1-.32-.87,1.32,1.32,0,0,1,.49-1,1.76,1.76,0,0,1,1.22-.44,1.81,1.81,0,0,1,1.31.42,1.43,1.43,0,0,1,.49.92l-1.14.2a.65.65,0,0,0-.18-.39.66.66,0,0,0-.46-.16.58.58,0,0,0-.34.11.32.32,0,0,0-.14.28c0,.18.11.29.35.33l.59.12a1.9,1.9,0,0,1,1,.51,1.3,1.3,0,0,1,.35.9,1.43,1.43,0,0,1-.47,1.06,1.81,1.81,0,0,1-1.31.45,2.39,2.39,0,0,1-.88-.15,1.42,1.42,0,0,1-.59-.37,2,2,0,0,1-.3-.45A1.26,1.26,0,0,1,114.16,45.6Z" transform="translate(-31.83 -40.23)"/>
    <path class="cls-1" d="M118.35,45.6l1.16-.2a.62.62,0,0,0,.2.42.65.65,0,0,0,.5.18.62.62,0,0,0,.39-.11.37.37,0,0,0,.14-.28c0-.18-.15-.3-.45-.37l-.51-.11a1.89,1.89,0,0,1-1-.51,1.36,1.36,0,0,1,.17-1.92,1.8,1.8,0,0,1,1.23-.44,1.82,1.82,0,0,1,1.31.42,1.46,1.46,0,0,1,.48.92l-1.13.2a.61.61,0,0,0-.19-.39.63.63,0,0,0-.45-.16.58.58,0,0,0-.35.11.35.35,0,0,0-.14.28c0,.18.12.29.35.33l.6.12a1.83,1.83,0,0,1,1,.51,1.26,1.26,0,0,1,.35.9,1.42,1.42,0,0,1-.46,1.06,1.85,1.85,0,0,1-1.32.45,2.42,2.42,0,0,1-.88-.15,1.38,1.38,0,0,1-.58-.37,1.73,1.73,0,0,1-.31-.45A1.26,1.26,0,0,1,118.35,45.6Z" transform="translate(-31.83 -40.23)"/>
    <path class="cls-1" d="M122.59,47.12l1.21-.34a.86.86,0,0,0,.33.54,1,1,0,0,0,.63.21,1,1,0,0,0,1.11-1.14v-.21a1.33,1.33,0,0,1-1.2.5,2,2,0,0,1-1.49-.62,2.18,2.18,0,0,1-.59-1.56,2.23,2.23,0,0,1,.59-1.54,1.92,1.92,0,0,1,1.49-.64,1.74,1.74,0,0,1,.81.17,1,1,0,0,1,.43.39V42.4h1.31v3.91a2.49,2.49,0,0,1-.61,1.73,2.28,2.28,0,0,1-1.79.68,2.42,2.42,0,0,1-1.52-.47A1.75,1.75,0,0,1,122.59,47.12Zm1.64-1.89a1,1,0,0,0,1.38,0,1,1,0,0,0,.27-.73,1,1,0,0,0-.28-.71.94.94,0,0,0-.68-.27,1,1,0,0,0-.68.27.93.93,0,0,0-.28.71A1,1,0,0,0,124.23,45.23Z" transform="translate(-31.83 -40.23)"/>
    <path class="cls-1" d="M129.74,46.87h-1.37V40.36h1.37Z" transform="translate(-31.83 -40.23)"/>
    <path class="cls-1" d="M133,42.26a2.34,2.34,0,0,1,1.69.67,2.28,2.28,0,0,1,.68,1.7,2.38,2.38,0,1,1-4.07-1.7A2.36,2.36,0,0,1,133,42.26Zm0,3.49a1,1,0,0,0,.71-.29,1.09,1.09,0,0,0,.29-.83,1.07,1.07,0,0,0-.29-.82,1,1,0,0,0-.71-.29,1,1,0,0,0-.72.29,1.12,1.12,0,0,0-.29.82,1.11,1.11,0,0,0,.29.82A1,1,0,0,0,133,45.75Z" transform="translate(-31.83 -40.23)"/>
    <path class="cls-1" d="M139.1,42.4v1.35a1.9,1.9,0,0,0-.44,0,1,1,0,0,0-.75.3,1.28,1.28,0,0,0-.29.92v1.95h-1.37V42.4h1.33V43a.94.94,0,0,1,.49-.49,1.61,1.61,0,0,1,.67-.16A1.36,1.36,0,0,1,139.1,42.4Z" transform="translate(-31.83 -40.23)"/>
    <path class="cls-1" d="M141.9,48.59h-1.44l1-2.32-1.88-3.87h1.53l1.09,2.39,1-2.39h1.45Z" transform="translate(-31.83 -40.23)"/>
    <path class="cls-1" d="M148.78,40.37,145.54,47h-1.21l3.23-6.63Z" transform="translate(-31.83 -40.23)"/>
    <path class="cls-1" d="M150.94,41.09V42.4h.87v1.2h-.87v1.67c0,.31.17.47.5.47a1.81,1.81,0,0,0,.36-.05v1.14a1.73,1.73,0,0,1-.72.12,1.54,1.54,0,0,1-1.09-.38,1.39,1.39,0,0,1-.4-1.06V43.6h-.79V42.4H149a.67.67,0,0,0,.52-.2.77.77,0,0,0,.18-.53v-.58Z" transform="translate(-31.83 -40.23)"/>
    <path class="cls-1" d="M154.78,42.26a2.35,2.35,0,0,1,1.7.67,2.28,2.28,0,0,1,.68,1.7,2.32,2.32,0,0,1-.68,1.71,2.47,2.47,0,0,1-3.39,0,2.47,2.47,0,0,1,0-3.4A2.36,2.36,0,0,1,154.78,42.26Zm0,3.49a1,1,0,0,0,.72-.29,1.13,1.13,0,0,0,.29-.83,1.11,1.11,0,0,0-.29-.82,1,1,0,0,0-.72-.29,1,1,0,0,0-.71.29,1.12,1.12,0,0,0-.29.82,1.11,1.11,0,0,0,.29.82A1,1,0,0,0,154.78,45.75Z" transform="translate(-31.83 -40.23)"/>
    <path class="cls-1" d="M160.54,44.77h-2.7V43.54h2.7Z" transform="translate(-31.83 -40.23)"/>
    <path class="cls-1" d="M166,40.36v5.71a7,7,0,0,0,0,.8h-1.32a3.11,3.11,0,0,1,0-.43,1.16,1.16,0,0,1-.48.38,1.69,1.69,0,0,1-.72.15,2.1,2.1,0,0,1-1.58-.66,2.59,2.59,0,0,1,0-3.36,2,2,0,0,1,1.56-.66c.61,0,1,.15,1.2.46V40.36Zm-3,3.45a1.09,1.09,0,0,0-.3.82,1.07,1.07,0,0,0,.3.82.94.94,0,0,0,.71.3,1,1,0,0,0,.72-.3,1.11,1.11,0,0,0,.29-.82,1.12,1.12,0,0,0-.29-.82,1,1,0,0,0-.72-.29A1,1,0,0,0,162.9,43.81Z" transform="translate(-31.83 -40.23)"/>
    <path class="cls-1" d="M169.24,42.26a2.32,2.32,0,0,1,1.69.67,2.25,2.25,0,0,1,.68,1.7,2.28,2.28,0,0,1-.68,1.71,2.32,2.32,0,0,1-1.69.67,2.35,2.35,0,0,1-1.7-.68,2.46,2.46,0,0,1,0-3.4A2.38,2.38,0,0,1,169.24,42.26Zm0,3.49a1,1,0,0,0,.71-.29,1.1,1.1,0,0,0,.3-.83,1.07,1.07,0,0,0-.3-.82,1,1,0,0,0-1.42,0,1.09,1.09,0,0,0-.3.82,1.07,1.07,0,0,0,.3.82A.94.94,0,0,0,169.24,45.75Z" transform="translate(-31.83 -40.23)"/>
    <path class="cls-1" d="M175,44.77h-2.7V43.54H175Z" transform="translate(-31.83 -40.23)"/>
    <path class="cls-1" d="M177.37,46.87H176V40.36h1.37Z" transform="translate(-31.83 -40.23)"/>
    <path class="cls-1" d="M178.7,41.6a.8.8,0,0,1,0-1.14.76.76,0,0,1,.55-.23.8.8,0,1,1,0,1.6A.76.76,0,0,1,178.7,41.6ZM180,46.87h-1.37V42.4H180Z" transform="translate(-31.83 -40.23)"/>
    <path class="cls-1" d="M180.77,45.6l1.16-.2a.67.67,0,0,0,.2.42.69.69,0,0,0,.51.18.61.61,0,0,0,.38-.11.37.37,0,0,0,.14-.28c0-.18-.15-.3-.44-.37l-.51-.11a1.82,1.82,0,0,1-1-.51,1.28,1.28,0,0,1-.33-.87,1.35,1.35,0,0,1,.49-1,1.8,1.8,0,0,1,1.23-.44,1.82,1.82,0,0,1,1.31.42,1.46,1.46,0,0,1,.48.92l-1.13.2a.61.61,0,0,0-.19-.39.61.61,0,0,0-.45-.16.55.55,0,0,0-.34.11.33.33,0,0,0-.15.28c0,.18.12.29.35.33l.6.12a1.83,1.83,0,0,1,1,.51,1.27,1.27,0,0,1,.36.9,1.43,1.43,0,0,1-.47,1.06,1.82,1.82,0,0,1-1.32.45,2.33,2.33,0,0,1-.87-.15,1.42,1.42,0,0,1-.59-.37,1.68,1.68,0,0,1-.3-.45A1.56,1.56,0,0,1,180.77,45.6Z" transform="translate(-31.83 -40.23)"/>
    <path class="cls-1" d="M187,41.09V42.4h.87v1.2H187v1.67c0,.31.16.47.49.47a1.63,1.63,0,0,0,.36-.05v1.14a1.68,1.68,0,0,1-.71.12,1.52,1.52,0,0,1-1.09-.38,1.39,1.39,0,0,1-.4-1.06V43.6h-.8V42.4h.23a.67.67,0,0,0,.52-.2.82.82,0,0,0,.17-.53v-.58Z" transform="translate(-31.83 -40.23)"/>
    <path class="cls-1" d="M31.83,50.07v-.72H188.17v.72Z" transform="translate(-31.83 -40.23)"/>
  </g>
</svg>
