<svg id="Layer_1" data-name="Layer 1" xmlns="http://www.w3.org/2000/svg" viewBox="0 0 207.01 39.16">
  <defs>
    <style>
      .cls-1 {
        fill: #08009f;
      }
    </style>
  </defs>
  <title>Portfolio</title>
  <g>
    <path class="cls-1" d="M21.58,48.72H15.91V62H7.69V25.11H21.58a12.71,12.71,0,0,1,9.12,3.33,11.17,11.17,0,0,1,3.51,8.48,11.11,11.11,0,0,1-3.51,8.52A12.81,12.81,0,0,1,21.58,48.72ZM16,41.65h4.78a5.56,5.56,0,0,0,3.8-1.28A4.28,4.28,0,0,0,26,37a4.38,4.38,0,0,0-1.44-3.46,5.51,5.51,0,0,0-3.82-1.27H16Z" transform="translate(-7.69 -23.6)"/>
    <path class="cls-1" d="M49.5,35.36a13.45,13.45,0,0,1,9.8,3.84A13.18,13.18,0,0,1,63.23,49,13.34,13.34,0,0,1,49.5,62.76a13.39,13.39,0,0,1-9.78-3.9A13.26,13.26,0,0,1,35.77,49a13.16,13.16,0,0,1,3.95-9.8A13.45,13.45,0,0,1,49.5,35.36Zm0,20.12a5.64,5.64,0,0,0,4.13-1.66A6.42,6.42,0,0,0,55.32,49a6.33,6.33,0,0,0-1.69-4.76,6,6,0,0,0-8.24,0A6.31,6.31,0,0,0,43.67,49a6.4,6.4,0,0,0,1.72,4.76A5.62,5.62,0,0,0,49.5,55.48Z" transform="translate(-7.69 -23.6)"/>
    <path class="cls-1" d="M84.75,36.14v7.8a10.41,10.41,0,0,0-2.49-.26,5.82,5.82,0,0,0-4.34,1.71c-1.13,1.15-1.69,2.91-1.69,5.31V62H68.32V36.14H76v3.48a5.69,5.69,0,0,1,2.86-2.86,9.1,9.1,0,0,1,3.84-.88A7.16,7.16,0,0,1,84.75,36.14Z" transform="translate(-7.69 -23.6)"/>
    <path class="cls-1" d="M99.83,28.6v7.54h5v6.91h-5v9.67c0,1.81,1,2.71,2.86,2.71a9.6,9.6,0,0,0,2.08-.26v6.55a9.29,9.29,0,0,1-4.1.73,8.71,8.71,0,0,1-6.32-2.24A8.08,8.08,0,0,1,92,54.13V43.05H87.46V36.14h1.3a3.74,3.74,0,0,0,3-1.17,4.52,4.52,0,0,0,1-3V28.6Z" transform="translate(-7.69 -23.6)"/>
    <path class="cls-1" d="M125,42.79h-5.62V62h-7.9V42.79h-4.11V36.14h4.11V33.9a10,10,0,0,1,2.62-7.25,9.6,9.6,0,0,1,7.26-2.73,9,9,0,0,1,3.74.57v6.45a9.31,9.31,0,0,0-2.34-.26,3.74,3.74,0,0,0-2.36.78,3.2,3.2,0,0,0-1,2.7v2H125Z" transform="translate(-7.69 -23.6)"/>
    <path class="cls-1" d="M140.6,35.36a13.44,13.44,0,0,1,9.8,3.84A13.18,13.18,0,0,1,154.33,49a13.73,13.73,0,1,1-27.45,0,13.12,13.12,0,0,1,4-9.8A13.41,13.41,0,0,1,140.6,35.36Zm0,20.12a5.68,5.68,0,0,0,4.14-1.66A6.46,6.46,0,0,0,146.43,49a6.37,6.37,0,0,0-1.69-4.76,5.73,5.73,0,0,0-4.14-1.63,5.67,5.67,0,0,0-4.1,1.66A6.27,6.27,0,0,0,134.78,49a6.36,6.36,0,0,0,1.72,4.76A5.62,5.62,0,0,0,140.6,55.48Z" transform="translate(-7.69 -23.6)"/>
    <path class="cls-1" d="M167.33,62h-7.9V24.33h7.9Z" transform="translate(-7.69 -23.6)"/>
    <path class="cls-1" d="M175,31.51a4.64,4.64,0,0,1,3.23-7.91A4.56,4.56,0,0,1,181.5,25a4.58,4.58,0,0,1,0,6.55,4.55,4.55,0,0,1-3.3,1.35A4.43,4.43,0,0,1,175,31.51ZM182.2,62h-7.9V36.14h7.9Z" transform="translate(-7.69 -23.6)"/>
    <path class="cls-1" d="M201,35.36a13.48,13.48,0,0,1,9.81,3.84A13.21,13.21,0,0,1,214.7,49a13.73,13.73,0,1,1-27.45,0,13.12,13.12,0,0,1,3.95-9.8A13.41,13.41,0,0,1,201,35.36Zm0,20.12a5.68,5.68,0,0,0,4.14-1.66A6.46,6.46,0,0,0,206.8,49a6.37,6.37,0,0,0-1.69-4.76A5.73,5.73,0,0,0,201,42.64a5.67,5.67,0,0,0-4.1,1.66A6.27,6.27,0,0,0,195.15,49a6.36,6.36,0,0,0,1.72,4.76A5.62,5.62,0,0,0,201,55.48Z" transform="translate(-7.69 -23.6)"/>
  </g>
  <polygon class="cls-1" points="54.41 0.73 56.15 4.25 60.03 4.81 57.22 7.55 57.88 11.42 54.41 9.59 50.94 11.42 51.6 7.55 48.79 4.81 52.67 4.25 54.41 0.73"/>
  <polygon class="cls-1" points="21.73 27.75 23.47 31.26 27.35 31.83 24.54 34.57 25.2 38.44 21.73 36.61 18.26 38.44 18.92 34.57 16.11 31.83 19.99 31.26 21.73 27.75"/>
  <polygon class="cls-1" points="143.98 0.73 145.72 4.25 149.6 4.81 146.79 7.55 147.46 11.42 143.98 9.59 140.51 11.42 141.17 7.55 138.36 4.81 142.25 4.25 143.98 0.73"/>
</svg>
