<svg id="Layer_1" data-name="Layer 1" xmlns="http://www.w3.org/2000/svg" viewBox="0 0 195.6 60.24">
  <defs>
    <style>
      .cls-1 {
        fill: #08009f;
      }
    </style>
  </defs>
  <title>Skills</title>
  <g>
    <path class="cls-1" d="M55.08,30.12l-11.36,3.2a8.75,8.75,0,0,0-2.64-4.88q-2.23-2.24-6.8-2.24a8.46,8.46,0,0,0-5.6,1.8,5.42,5.42,0,0,0-2.16,4.28c0,2.93,1.87,4.75,5.6,5.44l7.6,1.44q7.85,1.44,12.12,6.12A15.69,15.69,0,0,1,56.12,56.2a16.77,16.77,0,0,1-5.68,12.52q-5.69,5.4-15.28,5.4-10.72,0-16.6-5.56A19.89,19.89,0,0,1,12,56l11.6-2.8a10.66,10.66,0,0,0,3.32,7q2.93,2.76,8.44,2.76a9.46,9.46,0,0,0,5.84-1.64A5.12,5.12,0,0,0,43.32,57a4.76,4.76,0,0,0-1.6-3.64,8.93,8.93,0,0,0-4.48-2l-7.76-1.44A19.87,19.87,0,0,1,18.16,44,15.39,15.39,0,0,1,14,33.24a16.54,16.54,0,0,1,6-13A21.12,21.12,0,0,1,34.36,15a27,27,0,0,1,9,1.4,16.45,16.45,0,0,1,6.28,3.72,20.43,20.43,0,0,1,3.64,4.8A17.47,17.47,0,0,1,55.08,30.12Z" transform="translate(-11.96 -13.88)"/>
    <path class="cls-1" d="M103.56,33.16,88,49.88l15.84,23H89l-9.36-14-3.92,4.24v9.76H63.56V15H75.72V46.52L87.8,33.16Z" transform="translate(-11.96 -13.88)"/>
    <path class="cls-1" d="M110.68,26a6.86,6.86,0,0,1-2.08-5,6.86,6.86,0,0,1,2.08-5,6.76,6.76,0,0,1,5-2.08A7,7,0,0,1,120.72,16a7.05,7.05,0,0,1,0,10.08,7,7,0,0,1-5.08,2.08A6.76,6.76,0,0,1,110.68,26ZM121.8,72.92H109.64V33.16H121.8Z" transform="translate(-11.96 -13.88)"/>
    <path class="cls-1" d="M144.6,72.92H132.44V15H144.6Z" transform="translate(-11.96 -13.88)"/>
    <path class="cls-1" d="M167.48,72.92H155.32V15h12.16Z" transform="translate(-11.96 -13.88)"/>
    <path class="cls-1" d="M174.92,61.64l10.32-1.84A5.81,5.81,0,0,0,187,63.6a6.13,6.13,0,0,0,4.52,1.56,5.23,5.23,0,0,0,3.44-1,3.07,3.07,0,0,0,1.2-2.44q0-2.4-3.92-3.28l-4.56-1q-6.07-1.27-9-4.52a11.22,11.22,0,0,1-2.88-7.72,12,12,0,0,1,4.36-9.36A15.93,15.93,0,0,1,191.08,32q7.75,0,11.64,3.72A12.8,12.8,0,0,1,207,43.8l-10.08,1.84a5.62,5.62,0,0,0-1.64-3.52,5.55,5.55,0,0,0-4-1.36,4.92,4.92,0,0,0-3,1,3,3,0,0,0-1.28,2.48q0,2.4,3.12,3l5.28,1q6,1.2,9.12,4.56a11.26,11.26,0,0,1,3.12,7.92,12.64,12.64,0,0,1-4.16,9.48q-4.16,4-11.68,4a22.15,22.15,0,0,1-7.8-1.28,12.73,12.73,0,0,1-5.2-3.32,16.77,16.77,0,0,1-2.72-4A11.74,11.74,0,0,1,174.92,61.64Z" transform="translate(-11.96 -13.88)"/>
  </g>
  <polygon class="cls-1" points="187.21 0 189.8 5.25 195.6 6.09 191.4 10.18 192.39 15.96 187.21 13.23 182.03 15.96 183.01 10.18 178.82 6.09 184.62 5.25 187.21 0"/>
  <polygon class="cls-1" points="83.53 1.12 86.12 6.37 91.92 7.21 87.73 11.3 88.72 17.07 83.53 14.35 78.35 17.07 79.34 11.3 75.14 7.21 80.94 6.37 83.53 1.12"/>
</svg>
