<svg id="Layer_1" data-name="Layer 1" xmlns="http://www.w3.org/2000/svg" viewBox="0 0 211.63 33.25">
  <defs>
    <style>
      .cls-1 {
        fill: #08009f;
      }
    </style>
  </defs>
  <title>Welcome!</title>
  <g>
    <path class="cls-1" d="M36,51.15l5.18-20.47h7.29l-8.69,31.9H32.4L25.6,41.43,18.76,62.58H11.29L2.61,30.68h7.56l5.26,20.43,6.62-20.43h7.29Z" transform="translate(-2.61 -30)"/>
    <path class="cls-1" d="M64.71,54.53l5.71,1.61a9.28,9.28,0,0,1-3.55,5.11,11,11,0,0,1-6.75,2A11.35,11.35,0,0,1,48.46,51.33a11.48,11.48,0,0,1,3.31-8.5,10.77,10.77,0,0,1,7.85-3.29,11,11,0,0,1,8.22,3c2,2,3,4.84,3,8.44a9.2,9.2,0,0,1-.14,2.11H55.12a4.13,4.13,0,0,0,1.58,3.08,5.29,5.29,0,0,0,3.51,1.24Q63.68,57.45,64.71,54.53Zm-9.45-5.81h8.95A4,4,0,0,0,63,46.06a4.47,4.47,0,0,0-3.31-1.12,4.26,4.26,0,0,0-3.15,1.17A4.19,4.19,0,0,0,55.26,48.72Z" transform="translate(-2.61 -30)"/>
    <path class="cls-1" d="M82.08,62.58H75.24V30h6.84Z" transform="translate(-2.61 -30)"/>
    <path class="cls-1" d="M98.41,45.84a4.88,4.88,0,0,0-3.66,1.49,5.54,5.54,0,0,0-1.47,4.09,5.41,5.41,0,0,0,1.51,4A5.08,5.08,0,0,0,98.5,57a4.69,4.69,0,0,0,3-1,4.76,4.76,0,0,0,1.6-2.36l6,1.84A10.27,10.27,0,0,1,105.55,61a10.8,10.8,0,0,1-7,2.29A11.79,11.79,0,0,1,90,59.9a11.24,11.24,0,0,1-3.49-8.48A11.54,11.54,0,0,1,98.28,39.54a11,11,0,0,1,7.15,2.25,10.09,10.09,0,0,1,3.6,5.54l-6.12,1.84a4.69,4.69,0,0,0-1.53-2.38A4.47,4.47,0,0,0,98.41,45.84Z" transform="translate(-2.61 -30)"/>
    <path class="cls-1" d="M123.39,39.54a11.64,11.64,0,0,1,8.48,3.33,11.43,11.43,0,0,1,3.4,8.51,11.88,11.88,0,1,1-23.76,0,11.4,11.4,0,0,1,3.42-8.49A11.63,11.63,0,0,1,123.39,39.54Zm0,17.42A4.88,4.88,0,0,0,127,55.52a5.55,5.55,0,0,0,1.47-4.14A5.46,5.46,0,0,0,127,47.26a5.16,5.16,0,0,0-7.13,0,5.45,5.45,0,0,0-1.48,4.1,5.49,5.49,0,0,0,1.48,4.11A4.89,4.89,0,0,0,123.39,57Z" transform="translate(-2.61 -30)"/>
    <path class="cls-1" d="M146.52,62.58h-6.84V40.21h6.52v2.57a5.83,5.83,0,0,1,2.68-2.34,8.58,8.58,0,0,1,3.76-.9q4.81,0,6.61,3.51a7.93,7.93,0,0,1,6.93-3.51,8.5,8.5,0,0,1,5.9,2.14q2.38,2.13,2.38,6.41V62.58h-6.61v-13a4,4,0,0,0-.9-2.72,3.29,3.29,0,0,0-2.66-1.06A3.45,3.45,0,0,0,161.55,47a4,4,0,0,0-1,2.71V62.58h-6.75v-13a4,4,0,0,0-.93-2.72,3.32,3.32,0,0,0-2.67-1.06,3.41,3.41,0,0,0-2.7,1.12,4,4,0,0,0-1,2.75Z" transform="translate(-2.61 -30)"/>
    <path class="cls-1" d="M194.85,54.53l5.71,1.61A9.28,9.28,0,0,1,197,61.25a11,11,0,0,1-6.75,2A11.35,11.35,0,0,1,178.6,51.33a11.44,11.44,0,0,1,3.31-8.5,10.76,10.76,0,0,1,7.85-3.29,11,11,0,0,1,8.21,3c2,2,3,4.84,3,8.44a9.2,9.2,0,0,1-.14,2.11H185.26a4.13,4.13,0,0,0,1.58,3.08,5.29,5.29,0,0,0,3.51,1.24Q193.82,57.45,194.85,54.53Zm-9.45-5.81h8.95a4.08,4.08,0,0,0-1.19-2.66,4.49,4.49,0,0,0-3.31-1.12,4.26,4.26,0,0,0-3.15,1.17A4.19,4.19,0,0,0,185.4,48.72Z" transform="translate(-2.61 -30)"/>
    <path class="cls-1" d="M214.24,30.68l-1.57,21.91h-5l-1.58-21.91Zm-8,28.48a3.83,3.83,0,0,1,1.13-2.77,3.68,3.68,0,0,1,2.74-1.14A3.91,3.91,0,0,1,214,59.16a3.73,3.73,0,0,1-1.15,2.72A3.77,3.77,0,0,1,210.1,63a3.66,3.66,0,0,1-2.74-1.15A3.75,3.75,0,0,1,206.23,59.16Z" transform="translate(-2.61 -30)"/>
  </g>
  <polygon class="cls-1" points="66.61 0 68.29 3.4 72.04 3.94 69.33 6.59 69.97 10.33 66.61 8.56 63.26 10.33 63.9 6.59 61.18 3.94 64.94 3.4 66.61 0"/>
  <polygon class="cls-1" points="197.27 0 198.95 3.4 202.7 3.94 199.99 6.59 200.63 10.33 197.27 8.56 193.92 10.33 194.56 6.59 191.84 3.94 195.59 3.4 197.27 0"/>
</svg>
